<svg width="130" height="63" viewBox="0 0 130 63" fill="none" xmlns="http://www.w3.org/2000/svg">
<path fill-rule="evenodd" clip-rule="evenodd" d="M33.6985 41.1831V41.2072C38.4969 34.8359 40.9259 28.3662 40.9537 20.7065C40.9537 13.0964 38.3582 6.47739 33.6985 0.130859H33.6706C29.4578 6.1051 26.7801 12.3532 26.5291 19.3184C26.2479 27.0979 28.7587 34.7552 33.6985 41.1831ZM33.6985 39.6953V39.6705C32.36 37.3409 31.6614 34.8118 31.6614 32.2338C31.6614 29.7054 32.3607 27.0537 33.6985 24.8213V24.7972C34.9827 27.1522 35.7356 29.6056 35.7356 32.2338C35.7356 34.9357 34.9827 37.2659 33.6985 39.6953ZM28.3138 19.1444C28.7878 13.4922 30.7133 8.41055 33.6706 3.30412L33.6985 3.3289C37.1019 8.78284 38.888 14.1377 39.2234 20.3349C39.3907 23.0622 39.084 25.7145 38.4426 28.3916C38.5813 25.6402 38.4133 23.0622 37.8563 20.3851C37.1027 16.6668 35.6519 13.3442 33.6985 9.97274L33.6706 9.94796C31.941 12.9973 30.6297 15.9965 29.821 19.2937C29.0681 22.3672 28.8993 25.2184 28.8993 28.3916C28.3974 25.2927 28.0621 22.2674 28.3138 19.1444Z" fill="#7D8693"/>
<path fill-rule="evenodd" clip-rule="evenodd" d="M26.3312 48.7437C27.7262 47.5297 29.0382 46.9103 31.0195 47.0837C34.1992 47.3569 36.2355 49.0417 36.4035 51.8433C36.711 57.1982 28.7308 60.4458 23.7371 60.1967C16.5105 59.8753 11.7121 55.7357 10.5673 49.8345C9.87021 46.2401 11.376 42.2981 14.2232 39.5721C17.0411 36.895 20.8635 35.829 24.8247 35.7547V19.666C11.2923 19.666 1.30437 28.1935 0.607975 39.8701C-0.144921 52.8846 10.4844 61.71 24.0446 62.1318C31.2434 62.3796 36.6274 59.9744 41.566 55.8348V41.9767H26.3312V48.7437ZM45.1741 61.6676H49.6981V45.1454H51.7821V42.0021H45.1741V61.6676ZM54.1142 42.0021L51.9737 61.6676H56.0067L56.472 58.0621H58.2273L58.7211 61.6676H62.7534L60.5865 42.0021H54.1142ZM56.6378 54.4546L57.2403 47.3628H57.4612L58.0922 54.4546H56.6378ZM73.3681 51.5297V51.3106C74.3558 51.1646 74.3287 49.4348 74.3287 48.6544V45.5118C74.3287 43.0981 74.1364 42.0021 70.9832 42.0021H67.2238C64.0428 42.0021 63.8512 43.415 63.8512 45.5118V48.0937H68.3767V45.8776C68.3767 45.3657 68.8441 45.2184 69.0907 45.2184C69.5295 45.2184 69.8032 45.5359 69.8032 45.8776V48.2169C69.8032 49.4355 69.3644 49.678 68.0758 49.678H67.2246V53.1147H67.9929C69.6939 53.1147 69.8032 53.798 69.8032 54.4063V57.989C69.8032 58.3287 69.5295 58.6469 69.0907 58.6469C68.8441 58.6469 68.3767 58.4995 68.3767 57.989V54.5276H63.8512V58.1344C63.8512 60.9361 64.0428 61.6676 67.2238 61.6676H70.9832C73.8884 61.6676 74.3287 61.1799 74.3287 58.1344V54.1866C74.3287 53.4798 74.4644 51.5297 73.3681 51.5297ZM76.3577 61.6676H80.8824V45.1943H82.3089V61.6676H86.8358V42.0021H76.3577V61.6676ZM96.2984 42.0021H89.195V61.6676H93.7198V54.967H96.2984C99.4788 54.967 99.6695 53.6996 99.6695 51.4567V45.5118C99.6695 43.7814 99.4788 42.0021 96.2984 42.0021ZM95.1448 50.9207C95.1448 51.5551 94.7882 51.9209 94.2951 51.9209H93.7205V45.1454H94.2951C94.7882 45.1454 95.1448 45.5118 95.1448 46.1201V50.9207ZM108.695 42.0021H104.938C101.784 42.0021 101.591 43.6099 101.591 45.4629V58.1351C101.591 60.4249 101.784 61.6682 104.938 61.6682H108.695C111.877 61.6682 112.069 60.5709 112.069 58.1351V45.5124C112.068 43.6099 111.877 42.0021 108.695 42.0021ZM107.543 57.8912C107.544 57.9748 107.525 58.0577 107.49 58.1349C107.454 58.2122 107.401 58.2823 107.334 58.3413C107.267 58.4002 107.188 58.4468 107.101 58.4784C107.014 58.5099 106.921 58.5258 106.826 58.525C106.554 58.525 106.114 58.4024 106.114 57.8912V45.828C106.114 45.3162 106.554 45.1936 106.826 45.1936C107.24 45.1936 107.543 45.4864 107.543 45.828V57.8912ZM123.531 42.0021L121.721 50.9938L120.076 42.0021H114.181V61.6676H118.733V52.7489H118.898L120.406 61.6676H123.176L124.74 52.7489H124.903V61.6676H129.428V42.0021H123.531Z" fill="#7D8693"/>
</svg>
