<svg width="24" height="25" viewBox="0 0 24 25" fill="none" xmlns="http://www.w3.org/2000/svg">
<path d="M4 11.1396L5 14.1396L6 12.1396L7 14.1396L8 11.1396M10 11.1396L11 14.1396L12 12.1396L13 14.1396L14 11.1396M16 11.1396L17 14.1396L18 12.1396L19 14.1396L20 11.1396M5.07034 8.13948C6.4536 5.74837 9.03894 4.13965 12 4.13965M12 4.13965C15.0122 4.13965 17.6357 5.80447 19.0003 8.26418M12 4.13965C10.5195 4.13965 9.2268 5.74838 8.53517 8.13951M12 4.13965C13.4805 4.13965 14.7732 5.74841 15.4648 8.13957M18.2452 17.1398C16.7791 18.9686 14.5263 20.1396 12 20.1396M12 20.1396C9.47369 20.1396 7.22092 18.9687 5.75479 17.1399M12 20.1396C13.2631 20.1396 14.3895 18.9686 15.1226 17.1398M12 20.1396C10.7369 20.1396 9.61046 18.9687 8.8774 17.1398" stroke="black" stroke-width="1.5" stroke-linecap="round" stroke-linejoin="round"/>
</svg>
