<svg width="30" height="31" viewBox="0 0 30 31" fill="none" xmlns="http://www.w3.org/2000/svg">
<g clip-path="url(#clip0_129_12205)">
<path fill-rule="evenodd" clip-rule="evenodd" d="M7.681 0.139648H17.7211L26.2175 9.00826V26.2309C26.2175 28.3878 24.4766 30.1396 22.3197 30.1396H7.681C5.53502 30.1396 3.7832 28.3878 3.7832 26.2309V4.03745C3.78317 1.89146 5.53502 0.139648 7.681 0.139648Z" fill="#00733B"/>
<path opacity="0.302" fill-rule="evenodd" clip-rule="evenodd" d="M17.709 0.139648V8.93162H26.2163L17.709 0.139648Z" fill="white"/>
<path d="M13.1114 21.9829H11.6552L10.6588 20.3077L9.66246 21.9829H8.19531L9.92526 19.0704L8.40337 16.5412H9.87048L10.6588 17.8551L11.4361 16.5412H12.9033L11.3923 19.0814L13.1114 21.9829ZM13.626 21.9829V16.5412H15.0165V20.8003H17.3814V21.9828H13.626V21.9829ZM19.6807 22.0486C19.1332 22.0486 18.6515 21.8734 18.2355 21.534C17.8303 21.2055 17.6004 20.7894 17.5676 20.2967L18.761 19.9464C18.7939 20.2091 18.9033 20.4391 19.0895 20.6143C19.2866 20.7895 19.5055 20.877 19.7464 20.877C19.9435 20.877 20.1077 20.8332 20.2391 20.7457C20.3595 20.6581 20.4252 20.5376 20.4252 20.3953C20.4252 20.2749 20.3705 20.1763 20.2719 20.0887C20.1734 20.0121 20.042 19.9464 19.8887 19.8917C19.7354 19.8369 19.5493 19.7821 19.3632 19.7384C19.1661 19.6836 18.969 19.6179 18.7829 19.5303C18.5858 19.4537 18.4106 19.3551 18.2573 19.2347C18.0931 19.1252 17.9727 18.961 17.8741 18.753C17.7756 18.5559 17.7208 18.315 17.7208 18.0413C17.7208 17.5924 17.9069 17.2201 18.2902 16.9245C18.6734 16.6179 19.1332 16.4756 19.6697 16.4756C20.2062 16.4756 20.677 16.607 21.0712 16.8588C21.4653 17.1216 21.7171 17.461 21.8157 17.877L20.5675 18.4026C20.5128 18.1727 20.4033 17.9866 20.25 17.8442C20.0967 17.7128 19.8996 17.6362 19.6697 17.6362C19.4945 17.6362 19.3631 17.68 19.2537 17.7457C19.1551 17.8114 19.1113 17.9099 19.1113 18.0304C19.1113 18.1399 19.177 18.2384 19.3084 18.315C19.4398 18.3807 19.615 18.4355 19.812 18.4683C20.0091 18.5012 20.2281 18.5559 20.458 18.6326C20.6989 18.7202 20.9069 18.8078 21.1149 18.9282C21.312 19.0377 21.4762 19.2238 21.6076 19.4647C21.75 19.7165 21.8156 20.0122 21.8156 20.3516C21.8156 20.8552 21.6186 21.2713 21.2244 21.5778C20.8302 21.8844 20.3158 22.0486 19.6807 22.0486Z" fill="white"/>
</g>
<defs>
<clipPath id="clip0_129_12205">
<rect width="30" height="30" fill="white" transform="translate(0 0.139648)"/>
</clipPath>
</defs>
</svg>
