<svg width="38" height="38" viewBox="0 0 38 38" fill="none" xmlns="http://www.w3.org/2000/svg">
<rect x="2" y="2" width="34" height="34" rx="17" fill="#9E211B"/>
<rect x="2" y="2" width="34" height="34" rx="17" stroke="#9E211B" stroke-width="4"/>
<path d="M25.6462 19.0918C26.8634 17.5747 27.3334 16.0639 26.752 14.97C26.1278 13.7959 24.4279 13.3578 22.2837 13.6262C21.5149 11.6076 20.3298 10.3125 19.0004 10.3125C18.3556 10.3363 17.7449 10.6077 17.2951 11.0704C17.5164 11.1361 17.7152 11.2616 17.8698 11.433C18.0244 11.6043 18.1288 11.815 18.1715 12.0418C18.4333 11.9289 18.7153 11.8699 19.0004 11.8686C19.9846 11.8686 20.8818 12.578 21.5576 13.7429C20.6848 13.9137 19.829 14.1622 19.0004 14.4855C18.1719 14.1622 17.3161 13.9136 16.4432 13.7429C16.4953 13.6531 16.5488 13.5661 16.6037 13.4819C16.3479 13.4108 16.1212 13.2603 15.9562 13.0522C15.8725 13.2368 15.7927 13.4286 15.7168 13.6276C13.5723 13.3581 11.8726 13.7963 11.2477 14.9704C10.6667 16.0642 11.1367 17.575 12.354 19.0918C11.1367 20.609 10.6667 22.1197 11.2477 23.2139C11.8719 24.388 13.5719 24.8262 15.7161 24.5578C16.4849 26.5778 17.6696 27.8729 18.9994 27.8729C20.3291 27.8729 21.5141 26.5778 22.2826 24.5578C24.4271 24.8276 26.1268 24.3891 26.751 23.2139C27.3334 22.1197 26.8638 20.609 25.6462 19.0918ZM16.1391 14.3303C16.9 14.3792 17.6526 14.5163 18.3819 14.7388C17.9335 14.9318 17.4815 15.1483 17.0306 15.3881C16.4874 15.677 15.9721 15.9854 15.4876 16.3075C15.6333 15.627 15.8517 14.9641 16.1391 14.3303ZM12.6231 15.701C13.0853 14.8321 14.1328 14.3731 15.4777 14.3218C15.2438 15.0885 15.073 15.873 14.9671 16.6676C14.2122 17.2061 13.5114 17.8166 12.8745 18.4906C12.3313 17.4693 12.2079 16.4822 12.6231 15.701ZM14.8931 20.8866C14.2669 20.3632 13.712 19.7599 13.2427 19.0922C13.712 18.4245 14.2669 17.8212 14.8931 17.2978C14.8355 17.877 14.8054 18.4772 14.8054 19.0922C14.8054 19.7072 14.8355 20.3073 14.8931 20.8866ZM12.6231 22.4829C12.2079 21.7021 12.3313 20.7147 12.8759 19.6937C13.5124 20.3673 14.2127 20.9775 14.9671 21.5157C15.0731 22.3102 15.2439 23.0948 15.4777 23.8615C14.1328 23.8109 13.0867 23.3519 12.6231 22.4829ZM15.4876 21.8764C15.6706 21.9983 15.8578 22.118 16.0492 22.2354C16.0804 22.1027 16.1502 21.9823 16.2497 21.8892C15.9418 21.6916 15.6489 21.4862 15.3709 21.2731C15.1351 19.8289 15.1351 18.3561 15.3709 16.9119C16.4729 16.0735 17.6968 15.4089 19.0001 14.941C19.3601 15.0694 19.7233 15.2176 20.0875 15.3852C20.1222 15.2567 20.1823 15.1364 20.2644 15.0316C20.0484 14.9285 19.8329 14.8306 19.6179 14.7377C20.3472 14.5153 21.0998 14.3783 21.8607 14.3292C22.1481 14.9632 22.3665 15.6262 22.5121 16.3068C22.341 16.1927 22.1658 16.0805 21.9866 15.9702C21.9425 16.0978 21.8728 16.2151 21.7819 16.315C22.0782 16.5062 22.3604 16.7046 22.6285 16.9102C22.7472 17.6309 22.8064 18.3603 22.8053 19.0908C22.8063 19.8212 22.7472 20.5506 22.6285 21.2713C22.0479 21.7145 21.4317 22.1091 20.7863 22.4511C20.2109 22.758 19.6138 23.0225 18.9997 23.2422C18.4508 23.0464 17.9154 22.8148 17.397 22.5487C17.3676 22.6779 17.3017 22.7958 17.2071 22.8886C17.5996 23.0918 17.9915 23.2778 18.3826 23.4466C17.6533 23.669 16.9006 23.8061 16.1398 23.8551C15.8518 23.2211 15.6332 22.5574 15.4876 21.8764ZM19.0001 26.3147C18.0159 26.3147 17.1187 25.6053 16.4432 24.4404C17.3159 24.2696 18.1716 24.0211 19.0001 23.6977C19.8285 24.0212 20.6842 24.2697 21.5569 24.4404C20.8815 25.6053 19.9825 26.3147 19.0001 26.3147ZM21.8611 23.854C21.1002 23.8051 20.3475 23.6681 19.6182 23.4456C20.0667 23.2525 20.5186 23.036 20.9695 22.7963C21.5127 22.5073 22.028 22.199 22.5125 21.8768C22.3669 22.5572 22.1486 23.2199 21.8614 23.8537L21.8611 23.854ZM25.377 22.4829C24.9148 23.3519 23.8673 23.8109 22.5224 23.8622C22.7563 23.0955 22.9271 22.311 23.0331 21.5164C23.7874 20.9782 24.4878 20.368 25.1242 19.6944C25.6688 20.7147 25.7922 21.7021 25.377 22.4829ZM23.1077 17.2978C23.7334 17.8212 24.288 18.4244 24.7571 19.0918C24.2881 19.7596 23.7336 20.363 23.1077 20.8866C23.165 20.3069 23.1954 19.7072 23.1954 19.0922C23.1954 18.4772 23.1657 17.877 23.1077 17.2978ZM25.1235 18.4906C24.487 17.8171 23.7867 17.2069 23.0324 16.6686C22.9263 15.8741 22.7555 15.0896 22.5217 14.3229C23.8656 14.3731 24.9141 14.8321 25.3763 15.7021C25.7926 16.4822 25.6688 17.4693 25.1245 18.4906H25.1235Z" fill="white"/>
<path d="M16.6483 12.4911C17.4033 12.4911 18.0153 11.9334 18.0153 11.2455C18.0153 10.5577 17.4033 10 16.6483 10C15.8933 10 15.2812 10.5577 15.2812 11.2455C15.2812 11.9334 15.8933 12.4911 16.6483 12.4911Z" fill="white"/>
<path d="M22.0642 16.2294C22.6304 16.2294 23.0894 15.8112 23.0894 15.2954C23.0894 14.7795 22.6304 14.3613 22.0642 14.3613C21.498 14.3613 21.0391 14.7795 21.0391 15.2954C21.0391 15.8112 21.498 16.2294 22.0642 16.2294Z" fill="white"/>
<path d="M16.3608 23.9619C16.7068 23.9619 16.9873 23.7063 16.9873 23.3911C16.9873 23.0759 16.7068 22.8203 16.3608 22.8203C16.0148 22.8203 15.7344 23.0759 15.7344 23.3911C15.7344 23.7063 16.0148 23.9619 16.3608 23.9619Z" fill="white"/>
</svg>
