<svg width="30" height="31" viewBox="0 0 30 31" fill="none" xmlns="http://www.w3.org/2000/svg">
<path fill-rule="evenodd" clip-rule="evenodd" d="M22.4637 9.98074C22.0347 9.60704 21.3565 9.24717 20.3461 9.24717C18.2423 9.24717 16.3807 9.24717 16.3807 9.24717C16.3807 9.24717 14.6368 9.18489 14.6368 7.14337C14.6368 5.10185 14.6368 3.53091 14.6368 3.53091C14.6368 3.53091 14.3945 2.08455 13.917 1.66932C13.8409 1.60704 13.834 1.56551 13.8686 1.55859C13.8617 1.55859 13.8547 1.56551 13.8547 1.56551L22.4637 9.88385V9.97382V9.98074ZM14.0208 1.56551C14.0416 1.57243 14.0554 1.57243 14.0762 1.57935C14.0554 1.57243 14.0347 1.57243 14.0208 1.56551ZM14.0831 1.57935L14.1454 1.60012C14.1246 1.5932 14.1039 1.58628 14.0831 1.57935ZM14.4361 1.70392C14.4637 1.71776 14.4983 1.7316 14.5329 1.74544C14.4983 1.7316 14.4707 1.71776 14.4361 1.70392Z" fill="#9E211B"/>
<path fill-rule="evenodd" clip-rule="evenodd" d="M11.4607 1.19141H8.07657H6.1527H4.1873C4.1873 1.19141 4.14578 1.19141 4.07657 1.19141H3.52294C2.53332 1.19141 1.72363 2.00109 1.72363 2.99071V3.71044V4.79002V4.80386V4.84539V4.85923V4.91459V5.01148V5.12912V5.26753V5.40594V5.43362V5.62047V5.71044V5.835V6.02878V6.06338V6.31251V6.36096V6.58241V6.7139V6.87307V7.07376V7.17757V7.45438V7.50282V7.84193V7.84885V8.19487V8.25023V8.56165V8.66545V8.94227V9.08068V9.32981V9.50974V9.7312V9.95265V10.1464V10.4025V10.5686V10.8523V10.9976V11.3091V11.4475V11.7866V11.9042V12.2641V12.3679V12.7485V12.8385V13.2329V13.316V13.3783V13.7174V13.7866V14.1949V14.2641V14.6793V14.7416V14.9492V15.1568V15.2191V15.4267V15.6343V15.6966V16.1118V16.181V16.5893V16.6585V17.0668V17.1499V17.2745V27.3644C1.72363 28.3471 2.51256 29.143 3.48834 29.1637H3.49526H3.50218H3.5091H3.51602H3.52294H3.52986H3.53678H4.15962H8.09041H5.90356H12.0697H21.2738C22.2634 29.1637 23.0731 28.354 23.0731 27.3644V14.9492V12.7554C23.0731 10.0495 20.734 9.93189 20.734 9.93189C20.734 9.93189 18.6302 9.93189 16.2911 9.93189C13.952 9.93189 14.0074 7.53051 14.0074 7.53051C14.0074 7.53051 14.0074 6.62393 14.0074 3.86961C14.0074 1.10144 11.4814 1.22601 11.4814 1.22601L11.4676 1.21217L11.4607 1.19141ZM22.478 9.98033C22.0489 9.59971 21.3707 9.24677 20.3603 9.24677C18.2565 9.24677 16.3949 9.24677 16.3949 9.24677C16.3949 9.24677 14.651 9.18449 14.651 7.14296C14.651 5.10144 14.651 3.53051 14.651 3.53051C14.651 3.53051 14.4088 2.08414 13.9312 1.66891C13.8759 1.62047 13.8551 1.58587 13.869 1.56511L22.471 9.87653V9.78656C20.2288 6.39556 18.3603 4.72082 17.0454 3.40594C16.4157 2.77618 15.6475 2.28483 15.0247 1.96649C15.6544 2.28483 16.4226 2.77618 17.0593 3.41286C18.3742 4.72774 20.2427 6.40248 22.4849 9.79348V9.97341V9.98033H22.478Z" fill="#9E211B"/>
<path d="M5.7168 15.3302H8.1597C8.69257 15.3302 9.08704 15.4548 9.35693 15.7109C9.62683 15.9669 9.7514 16.3199 9.7514 16.7905C9.7514 17.268 9.59915 17.6417 9.31541 17.9116C9.02475 18.1815 8.58877 18.3199 7.99361 18.3199H7.19085V20.0777H5.7168V15.3372V15.3302ZM7.19085 17.3579H7.55071C7.84136 17.3579 8.02822 17.3026 8.14586 17.2057C8.26351 17.1088 8.31887 16.9842 8.31887 16.832C8.31887 16.6797 8.26351 16.5552 8.16662 16.4514C8.06974 16.3475 7.87597 16.2922 7.59915 16.2922H7.18392V17.3441V17.3579H7.19085ZM10.5265 15.3302H12.6995C13.1286 15.3302 13.4746 15.3856 13.7445 15.5033C14.0144 15.6209 14.222 15.7939 14.4019 16.0015C14.5749 16.223 14.6995 16.4721 14.7756 16.7559C14.8517 17.0465 14.8933 17.351 14.8933 17.6693C14.8933 18.1815 14.8379 18.5621 14.7203 18.8527C14.6026 19.1296 14.4434 19.3648 14.2427 19.5586C14.0421 19.7524 13.8137 19.877 13.5784 19.9323C13.26 20.0154 12.9694 20.0569 12.7064 20.0569H10.5334V15.3164L10.5196 15.3302H10.5265ZM11.9867 16.4098V18.9981H12.3466C12.658 18.9981 12.8656 18.9635 13.0109 18.8943C13.1355 18.832 13.2462 18.7005 13.3223 18.5413C13.3985 18.3683 13.4261 18.0915 13.4261 17.7178C13.4261 17.2195 13.3431 16.8735 13.1839 16.6866C13.0248 16.5067 12.7479 16.4098 12.3604 16.4098H12.0005H11.9867ZM15.6614 15.3302H19.2877V16.3545H17.1355V17.1849H18.9763V18.1469H17.1355V20.0777H15.6614V15.3372V15.3302Z" fill="white"/>
</svg>
