<svg width="26" height="25" viewBox="0 0 26 25" fill="none" xmlns="http://www.w3.org/2000/svg">
<path d="M1 12.5391L8.8144 20.3535C9.18935 20.7285 9.39999 21.2371 9.4 21.7675V23.7391L1 15.3391V12.5391Z" stroke="black" stroke-linecap="round" stroke-linejoin="round"/>
<path d="M9.40039 23.7391H25.0004V21.7675C25.0004 21.2371 24.7897 20.7285 24.4148 20.3535L16.6004 12.5391H15.0004" stroke="black" stroke-linecap="round" stroke-linejoin="round"/>
<path d="M1 12.5391H5.8" stroke="black" stroke-linecap="round" stroke-linejoin="round"/>
<path d="M9.8 0.539062C9.8 0.539062 12.6 3.61906 12.6 6.13906C12.6 6.88167 12.305 7.59386 11.7799 8.11896C11.2548 8.64406 10.5426 8.93906 9.8 8.93906C9.05739 8.93906 8.3452 8.64406 7.8201 8.11896C7.295 7.59386 7 6.88167 7 6.13906C7 3.61906 9.8 0.539062 9.8 0.539062Z" stroke="black" stroke-linecap="round" stroke-linejoin="round"/>
<path d="M8.99961 7.03344C8.87373 6.92109 8.77302 6.7834 8.70409 6.6294C8.63515 6.4754 8.59955 6.30857 8.59961 6.13984C8.60519 5.86846 8.64868 5.59919 8.72881 5.33984" stroke="black" stroke-linecap="round" stroke-linejoin="round"/>
<path d="M5.40039 9.33926L9.11679 13.0557C9.20649 13.1456 9.31303 13.2169 9.43034 13.2656C9.54764 13.3142 9.67339 13.3393 9.80039 13.3393C9.92739 13.3393 10.0531 13.3142 10.1704 13.2656C10.2877 13.2169 10.3943 13.1456 10.484 13.0557L15.8004 7.73926" stroke="black" stroke-linecap="round" stroke-linejoin="round"/>
<path d="M14.1992 7.73926H15.7992V9.33926" stroke="black" stroke-linecap="round" stroke-linejoin="round"/>
</svg>
