<svg width="31" height="32" viewBox="0 0 31 32" fill="none" xmlns="http://www.w3.org/2000/svg">
<path d="M27.3145 9.93164L29.1735 10.2017L28.9287 12.2529" stroke="black" stroke-miterlimit="10" stroke-linecap="round" stroke-linejoin="round"/>
<path d="M12.3789 5.0795C12.8799 4.11484 13.4482 3.20407 13.9767 2.5017C14.5975 1.67638 15.1633 1.13867 15.5002 1.13867C15.8371 1.13867 16.4029 1.67638 17.0237 2.50164C18.4099 4.34423 20.0707 7.62013 20.0707 9.54379C20.0707 12.329 18.0244 14.5869 15.5002 14.5869C12.976 14.5869 10.9297 12.329 10.9297 9.54379C10.9297 8.88479 11.1245 8.06713 11.4366 7.20278" stroke="black" stroke-miterlimit="10" stroke-linecap="round" stroke-linejoin="round"/>
<path d="M10.5802 4.37141C10.5802 5.44264 9.79317 6.31105 8.82233 6.31105C7.85149 6.31105 7.06445 5.44264 7.06445 4.37141C7.06445 3.63155 7.70317 2.37156 8.23637 1.66286C8.47517 1.34548 8.69279 1.13867 8.82233 1.13867C8.95187 1.13867 9.16949 1.34548 9.40829 1.66286C9.94149 2.37156 10.5802 3.63155 10.5802 4.37141Z" stroke="black" stroke-miterlimit="10" stroke-linecap="round" stroke-linejoin="round"/>
<path d="M23.9376 5.7942C23.9376 6.65122 23.308 7.34593 22.5313 7.34593C21.7546 7.34593 21.125 6.65122 21.125 5.7942C21.125 5.20227 21.636 4.19431 22.0625 3.62736C22.2536 3.37346 22.4277 3.20801 22.5313 3.20801C22.635 3.20801 22.8091 3.37346 23.0001 3.62736C23.4266 4.19438 23.9376 5.20233 23.9376 5.7942Z" stroke="black" stroke-miterlimit="10" stroke-linecap="round" stroke-linejoin="round"/>
<path d="M25.1539 16.4636L19.3145 12.4365" stroke="black" stroke-miterlimit="10" stroke-linecap="round" stroke-linejoin="round"/>
<path d="M9.53516 27.1496L15.1677 31.0339C15.3707 31.1739 15.6283 31.1739 15.8312 31.0339L30.2059 21.1208C30.5982 20.8503 30.5982 20.2199 30.2059 19.9494L26.9727 17.7197" stroke="black" stroke-miterlimit="10" stroke-linecap="round" stroke-linejoin="round"/>
<path d="M11.6877 12.4375L0.794232 19.9499C0.401923 20.2205 0.401923 20.8508 0.794232 21.1214L7.72904 25.9038" stroke="black" stroke-miterlimit="10" stroke-linecap="round" stroke-linejoin="round"/>
<path d="M1.82617 10.2021L14.2146 20.691C14.9732 21.3333 16.0283 21.3333 16.7869 20.691L29.069 10.2921" stroke="black" stroke-miterlimit="10" stroke-linecap="round" stroke-linejoin="round"/>
<path d="M15.502 23.3799V24.4143" stroke="black" stroke-miterlimit="10" stroke-linecap="round" stroke-linejoin="round"/>
<path d="M17.377 22.7744L18.0399 23.5059" stroke="black" stroke-miterlimit="10" stroke-linecap="round" stroke-linejoin="round"/>
<path d="M13.6258 22.7744L12.9629 23.5059" stroke="black" stroke-miterlimit="10" stroke-linecap="round" stroke-linejoin="round"/>
</svg>
