<svg width="26" height="23" viewBox="0 0 26 23" fill="none" xmlns="http://www.w3.org/2000/svg">
<path d="M1 10.71L9.4 19.11V21.91L1 13.51V10.71Z" stroke="black" stroke-linecap="round" stroke-linejoin="round"/>
<path d="M9.40039 21.91H25.0004V19.11L16.6004 10.71H13.8004" stroke="black" stroke-linecap="round" stroke-linejoin="round"/>
<path d="M1 10.71H4.6" stroke="black" stroke-linecap="round" stroke-linejoin="round"/>
<path d="M9.40039 19.1094H25.0004" stroke="black" stroke-linecap="round" stroke-linejoin="round"/>
<path d="M10.5012 17.11C10.5012 17.0547 10.5459 17.01 10.6012 17.01C10.6564 17.01 10.7012 17.0547 10.7012 17.11C10.7012 17.1652 10.6564 17.21 10.6012 17.21C10.5459 17.21 10.5012 17.1652 10.5012 17.11Z" fill="#464747" stroke="black"/>
<path d="M12.9016 17.11C12.9016 17.0547 12.9463 17.01 13.0016 17.01C13.0568 17.01 13.1016 17.0547 13.1016 17.11C13.1016 17.1652 13.0568 17.21 13.0016 17.21C12.9463 17.21 12.9016 17.1652 12.9016 17.11Z" fill="#464747" stroke="black"/>
<path d="M15.3 17.11C15.3 17.0547 15.3448 17.01 15.4 17.01C15.4552 17.01 15.5 17.0547 15.5 17.11C15.5 17.1652 15.4552 17.21 15.4 17.21C15.3448 17.21 15.3 17.1652 15.3 17.11Z" fill="#464747" stroke="black"/>
<path d="M17.7004 17.11C17.7004 17.0547 17.7452 17.01 17.8004 17.01C17.8556 17.01 17.9004 17.0547 17.9004 17.11C17.9004 17.1652 17.8556 17.21 17.8004 17.21C17.7452 17.21 17.7004 17.1652 17.7004 17.11Z" fill="#464747" stroke="black"/>
<path d="M20.1008 17.11C20.1008 17.0547 20.1456 17.01 20.2008 17.01C20.256 17.01 20.3008 17.0547 20.3008 17.11C20.3008 17.1652 20.256 17.21 20.2008 17.21C20.1456 17.21 20.1008 17.1652 20.1008 17.11Z" fill="#464747" stroke="black"/>
<path d="M8.89961 15.5104C8.89961 15.4551 8.94438 15.4104 8.99961 15.4104C9.05484 15.4104 9.09961 15.4551 9.09961 15.5104C9.09961 15.5656 9.05484 15.6104 8.99961 15.6104C8.94438 15.6104 8.89961 15.5656 8.89961 15.5104Z" fill="#464747" stroke="black"/>
<path d="M11.3 15.5104C11.3 15.4551 11.3448 15.4104 11.4 15.4104C11.4552 15.4104 11.5 15.4551 11.5 15.5104C11.5 15.5656 11.4552 15.6104 11.4 15.6104C11.3448 15.6104 11.3 15.5656 11.3 15.5104Z" fill="#464747" stroke="black"/>
<path d="M13.7004 15.5104C13.7004 15.4551 13.7452 15.4104 13.8004 15.4104C13.8556 15.4104 13.9004 15.4551 13.9004 15.5104C13.9004 15.5656 13.8556 15.6104 13.8004 15.6104C13.7452 15.6104 13.7004 15.5656 13.7004 15.5104Z" fill="#464747" stroke="black"/>
<path d="M16.1008 15.5104C16.1008 15.4551 16.1456 15.4104 16.2008 15.4104C16.256 15.4104 16.3008 15.4551 16.3008 15.5104C16.3008 15.5656 16.256 15.6104 16.2008 15.6104C16.1456 15.6104 16.1008 15.5656 16.1008 15.5104Z" fill="#464747" stroke="black"/>
<path d="M18.4992 15.5104C18.4992 15.4551 18.544 15.4104 18.5992 15.4104C18.6544 15.4104 18.6992 15.4551 18.6992 15.5104C18.6992 15.5656 18.6544 15.6104 18.5992 15.6104C18.544 15.6104 18.4992 15.5656 18.4992 15.5104Z" fill="#464747" stroke="black"/>
<path d="M7.3 13.9098C7.3 13.8545 7.34477 13.8098 7.4 13.8098C7.45523 13.8098 7.5 13.8545 7.5 13.9098C7.5 13.965 7.45523 14.0098 7.4 14.0098C7.34477 14.0098 7.3 13.965 7.3 13.9098Z" fill="#464747" stroke="black"/>
<path d="M9.70039 13.9098C9.70039 13.8545 9.74516 13.8098 9.80039 13.8098C9.85562 13.8098 9.90039 13.8545 9.90039 13.9098C9.90039 13.965 9.85562 14.0098 9.80039 14.0098C9.74516 14.0098 9.70039 13.965 9.70039 13.9098Z" fill="#464747" stroke="black"/>
<path d="M12.1008 13.9098C12.1008 13.8545 12.1456 13.8098 12.2008 13.8098C12.256 13.8098 12.3008 13.8545 12.3008 13.9098C12.3008 13.965 12.256 14.0098 12.2008 14.0098C12.1456 14.0098 12.1008 13.965 12.1008 13.9098Z" fill="#464747" stroke="black"/>
<path d="M14.5012 13.9098C14.5012 13.8545 14.5459 13.8098 14.6012 13.8098C14.6564 13.8098 14.7012 13.8545 14.7012 13.9098C14.7012 13.965 14.6564 14.0098 14.6012 14.0098C14.5459 14.0098 14.5012 13.965 14.5012 13.9098Z" fill="#464747" stroke="black"/>
<path d="M16.8996 13.9098C16.8996 13.8545 16.9444 13.8098 16.9996 13.8098C17.0548 13.8098 17.0996 13.8545 17.0996 13.9098C17.0996 13.965 17.0548 14.0098 16.9996 14.0098C16.9444 14.0098 16.8996 13.965 16.8996 13.9098Z" fill="#464747" stroke="black"/>
<path d="M5.70039 12.3102C5.70039 12.2549 5.74516 12.2102 5.80039 12.2102C5.85562 12.2102 5.90039 12.2549 5.90039 12.3102C5.90039 12.3654 5.85562 12.4102 5.80039 12.4102C5.74516 12.4102 5.70039 12.3654 5.70039 12.3102Z" fill="#464747" stroke="black"/>
<path d="M8.10078 12.3102C8.10078 12.2549 8.14555 12.2102 8.20078 12.2102C8.25601 12.2102 8.30078 12.2549 8.30078 12.3102C8.30078 12.3654 8.25601 12.4102 8.20078 12.4102C8.14555 12.4102 8.10078 12.3654 8.10078 12.3102Z" fill="#464747" stroke="black"/>
<path d="M10.5012 12.3102C10.5012 12.2549 10.5459 12.2102 10.6012 12.2102C10.6564 12.2102 10.7012 12.2549 10.7012 12.3102C10.7012 12.3654 10.6564 12.4102 10.6012 12.4102C10.5459 12.4102 10.5012 12.3654 10.5012 12.3102Z" fill="#464747" stroke="black"/>
<path d="M12.9016 12.3102C12.9016 12.2549 12.9463 12.2102 13.0016 12.2102C13.0568 12.2102 13.1016 12.2549 13.1016 12.3102C13.1016 12.3654 13.0568 12.4102 13.0016 12.4102C12.9463 12.4102 12.9016 12.3654 12.9016 12.3102Z" fill="#464747" stroke="black"/>
<path d="M15.3 12.3102C15.3 12.2549 15.3448 12.2102 15.4 12.2102C15.4552 12.2102 15.5 12.2549 15.5 12.3102C15.5 12.3654 15.4552 12.4102 15.4 12.4102C15.3448 12.4102 15.3 12.3654 15.3 12.3102Z" fill="#464747" stroke="black"/>
<mask id="mask0_122_11225" style="mask-type:luminance" maskUnits="userSpaceOnUse" x="4" y="0" width="10" height="11">
<path d="M4 0.370117H14V10.3701H4V0.370117Z" fill="white"/>
</mask>
<g mask="url(#mask0_122_11225)">
<path d="M9.00179 3.83365C8.15323 3.83365 7.46532 4.52154 7.46532 5.37012C7.46532 6.21867 8.15323 6.90656 9.00179 6.90656C9.85034 6.90656 10.5383 6.21867 10.5383 5.37012C10.5383 4.52154 9.85034 3.83365 9.00179 3.83365ZM13.3143 4.27369L12.8983 4.61615C12.4238 5.0068 12.4238 5.73342 12.8983 6.12406L13.3143 6.46652C13.4617 6.58789 13.4998 6.79805 13.4043 6.96342L12.5829 8.38617C12.4874 8.55154 12.2864 8.62365 12.1076 8.55666L11.603 8.36764C11.0274 8.15201 10.3982 8.51531 10.2971 9.12158L10.2085 9.65309C10.1771 9.84143 10.0142 9.97949 9.82323 9.97949H8.18034C7.9894 9.97949 7.82643 9.84143 7.79505 9.65309L7.70645 9.12158C7.60542 8.51531 6.97614 8.15201 6.40057 8.36764L5.896 8.55666C5.71718 8.62365 5.51614 8.55154 5.42065 8.38617L4.59923 6.96342C4.50376 6.79805 4.54182 6.58789 4.68925 6.46652L5.10526 6.12406C5.57977 5.73342 5.57977 5.0068 5.10526 4.61615L4.68925 4.27369C4.54182 4.15232 4.50376 3.94217 4.59923 3.7768L5.42065 2.35404C5.51614 2.18867 5.71718 2.11656 5.896 2.18356L6.40057 2.37258C6.97614 2.5882 7.60542 2.2249 7.70645 1.61863L7.79505 1.08713C7.82643 0.898789 7.9894 0.760742 8.18034 0.760742H9.82323C10.0142 0.760742 10.1771 0.898789 10.2085 1.08713L10.2971 1.61863C10.3982 2.2249 11.0274 2.5882 11.603 2.37258L12.1076 2.18356C12.2864 2.11656 12.4874 2.18867 12.5829 2.35404L13.4043 3.7768C13.4998 3.94217 13.4617 4.15232 13.3143 4.27369Z" stroke="black" stroke-miterlimit="10" stroke-linecap="round" stroke-linejoin="round"/>
</g>
</svg>
