<svg width="70" height="69" viewBox="0 0 70 69" fill="none" xmlns="http://www.w3.org/2000/svg">
<path d="M5.72656 35.6692V18.2695" stroke="#9E211B" stroke-width="2" stroke-miterlimit="10" stroke-linecap="round" stroke-linejoin="round"/>
<path d="M64.2695 60.656V35.832" stroke="#9E211B" stroke-width="2" stroke-miterlimit="10" stroke-linecap="round" stroke-linejoin="round"/>
<path d="M64.2695 31.0477V18.4941" stroke="#9E211B" stroke-width="2" stroke-miterlimit="10" stroke-linecap="round" stroke-linejoin="round"/>
<path d="M14.6211 35.67V29.8301" stroke="#9E211B" stroke-width="2" stroke-miterlimit="10" stroke-linecap="round" stroke-linejoin="round"/>
<path d="M55.375 29.9199V60.5245" stroke="#9E211B" stroke-width="2" stroke-miterlimit="10" stroke-linecap="round" stroke-linejoin="round"/>
<path d="M37.3086 48.3289V35.9277H50.9057V48.4318" stroke="#9E211B" stroke-width="2" stroke-miterlimit="10" stroke-linecap="round" stroke-linejoin="round"/>
<path d="M37.3086 60.5252V48.4316H50.9057V60.6561" stroke="#9E211B" stroke-width="2" stroke-miterlimit="10" stroke-linecap="round" stroke-linejoin="round"/>
<path d="M23.7109 60.6561V48.4316H36.8763" stroke="#9E211B" stroke-width="2" stroke-miterlimit="10" stroke-linecap="round" stroke-linejoin="round"/>
<path d="M46.8755 36.2422V41.0986H41.3359V36.2422" stroke="#9E211B" stroke-width="2" stroke-miterlimit="10" stroke-linecap="round" stroke-linejoin="round"/>
<path d="M46.8755 48.6738V53.6028H41.3359V48.6738" stroke="#9E211B" stroke-width="2" stroke-miterlimit="10" stroke-linecap="round" stroke-linejoin="round"/>
<path d="M33.2779 48.8262V53.6034H27.7383V48.9164" stroke="#9E211B" stroke-width="2" stroke-miterlimit="10" stroke-linecap="round" stroke-linejoin="round"/>
<path d="M3.89844 48.4316H16.8579" stroke="#9E211B" stroke-width="2" stroke-miterlimit="10" stroke-linecap="round" stroke-linejoin="round"/>
<path d="M13.145 48.8262V53.6034H7.60547V48.8262" stroke="#9E211B" stroke-width="2" stroke-miterlimit="10" stroke-linecap="round" stroke-linejoin="round"/>
<path d="M3.57422 60.7459V56.9355" stroke="#9E211B" stroke-width="2" stroke-miterlimit="10" stroke-linecap="round" stroke-linejoin="round"/>
<path d="M3.57422 52.1508V35.9277H17.1709V60.6561" stroke="#9E211B" stroke-width="2" stroke-miterlimit="10" stroke-linecap="round" stroke-linejoin="round"/>
<path d="M13.145 36.2422V41.0986H7.60547V36.3626" stroke="#9E211B" stroke-width="2" stroke-miterlimit="10" stroke-linecap="round" stroke-linejoin="round"/>
<path d="M68.9727 60.9355H1.02344V67.1033H68.9727V60.9355Z" stroke="#9E211B" stroke-width="2" stroke-miterlimit="10" stroke-linecap="round" stroke-linejoin="round"/>
<path d="M26.8838 29.5971H58.5793V20.6953H11.4141V29.5971H22.0986" stroke="#9E211B" stroke-width="2" stroke-miterlimit="10" stroke-linecap="round" stroke-linejoin="round"/>
<path d="M43.5334 10.1416L68.9727 19.7926V14.0695L34.998 1.17969L1.02344 14.0695V19.7926L34.998 6.90273L39.06 8.44355" stroke="#9E211B" stroke-width="2" stroke-miterlimit="10" stroke-linecap="round" stroke-linejoin="round"/>
<path d="M11.6562 25.1465H58.3389" stroke="#9E211B" stroke-width="2" stroke-miterlimit="10" stroke-linecap="round" stroke-linejoin="round"/>
</svg>
