<svg width="70" height="71" viewBox="0 0 70 71" fill="none" xmlns="http://www.w3.org/2000/svg">
<path d="M65.5408 38.4784L55.7813 34.4107V31.4904C57.1247 30.7194 58.2879 29.6704 59.1933 28.4136C60.0987 27.1568 60.7253 25.7212 61.0313 24.2028H61.25C62.1203 24.2146 62.9596 23.8804 63.5833 23.2734C64.2071 22.6665 64.5642 21.8366 64.5761 20.9664C64.588 20.0961 64.2537 19.2568 63.6468 18.633C63.0398 18.0093 62.2099 17.6521 61.3397 17.6403L62.4116 15.1553C63.3274 13.0318 63.3743 10.6339 62.542 8.47629C61.7097 6.31869 60.0647 4.57341 57.96 3.6151L54.9063 2.22604C53.0993 1.42378 51.1123 1.11373 49.1469 1.32734C47.1814 1.54094 45.3074 2.2706 43.715 3.44229L42.0131 4.72635C40.2754 5.17389 38.7829 6.2858 37.8569 7.82276C37.3454 8.67178 37.0263 9.6226 36.922 10.6083C36.8177 11.5939 36.9307 12.5905 37.2531 13.5278C35.6019 13.1975 33.8978 13.2389 32.2645 13.6492C32.7321 11.6647 32.4962 9.57946 31.5971 7.7496C30.698 5.91974 29.1916 4.45876 27.335 3.61619L24.2813 2.22604C22.4743 1.42378 20.4873 1.11373 18.5219 1.32734C16.5564 1.54094 14.6824 2.2706 13.09 3.44229L11.3881 4.72635C10.4024 4.97822 9.48563 5.44763 8.70503 6.1001C7.92444 6.75258 7.29985 7.57157 6.87712 8.49697C6.45439 9.42236 6.24424 10.4307 6.2621 11.4479C6.27996 12.4651 6.52537 13.4654 6.98032 14.3754L8.61438 17.6403C7.74414 17.6582 6.91669 18.0212 6.31405 18.6493C5.71141 19.2773 5.38296 20.1191 5.40095 20.9893C5.41893 21.8596 5.78188 22.687 6.40995 23.2897C7.03802 23.8923 7.87977 24.2207 8.75001 24.2028H8.96876C9.27592 25.7204 9.90304 27.1552 10.8083 28.4115C11.7136 29.6678 12.8762 30.7166 14.2188 31.4882V34.4107L4.45923 38.4784C3.46155 38.892 2.60913 39.5925 2.00999 40.4911C1.41085 41.3898 1.09197 42.446 1.09376 43.526V58.109C1.09376 58.3991 1.20899 58.6773 1.41411 58.8824C1.61923 59.0875 1.89743 59.2028 2.18751 59.2028H9.84376V67.9528C9.84376 68.2428 9.95899 68.521 10.1641 68.7262C10.3692 68.9313 10.6474 69.0465 10.9375 69.0465H59.0625C59.3526 69.0465 59.6308 68.9313 59.8359 68.7262C60.041 68.521 60.1563 68.2428 60.1563 67.9528V59.2028H67.8125C68.1026 59.2028 68.3808 59.0875 68.5859 58.8824C68.791 58.6773 68.9063 58.3991 68.9063 58.109V43.526C68.908 42.446 68.5892 41.3898 67.99 40.4911C67.3909 39.5925 66.5385 38.892 65.5408 38.4784ZM38.6892 16.2479L41.7419 17.6403C43.3253 18.3616 44.5628 19.6749 45.1887 21.2984C45.8146 22.9218 45.7792 24.726 45.0899 26.3235L44.7617 27.0728L43.6406 24.8076C43.5692 24.6633 43.4667 24.5366 43.3406 24.4366C43.2145 24.3365 43.0679 24.2654 42.9112 24.2286C42.7544 24.1917 42.5915 24.1899 42.434 24.2232C42.2765 24.2566 42.1283 24.3243 42 24.4215L40.25 25.734C38.7354 26.8699 36.8932 27.484 35 27.484C33.1068 27.484 31.2646 26.8699 29.75 25.734L28 24.4215C27.8723 24.3248 27.7247 24.2577 27.5679 24.2249C27.4111 24.1922 27.249 24.1947 27.0933 24.2323C26.9371 24.2689 26.7909 24.3394 26.665 24.4388C26.5391 24.5383 26.4367 24.6642 26.3649 24.8076L25.1563 27.2335L24.2528 25.4278C23.9004 24.7228 23.734 23.9394 23.7693 23.1521C23.8046 22.3647 24.0406 21.5994 24.4548 20.9288C24.8689 20.2583 25.4476 19.7046 26.1358 19.3205C26.8241 18.9364 27.599 18.7345 28.3872 18.734C29.2298 18.7332 30.0595 18.9408 30.8024 19.3383C31.5453 19.7358 32.1783 20.3109 32.6452 21.0123L32.9886 21.5285L34.8086 20.3145L34.4652 19.7993C33.4931 18.3428 32.0289 17.2851 30.3406 16.8199C31.5813 16.0543 32.9897 15.6021 34.4443 15.5024C35.8988 15.4028 37.3557 15.6586 38.6892 16.2479ZM45.9375 31.859H47.0313C47.3213 31.859 47.5995 31.9742 47.8047 32.1794C48.0098 32.3845 48.125 32.6627 48.125 32.9528C48.125 33.2428 48.0098 33.521 47.8047 33.7262C47.5995 33.9313 47.3213 34.0465 47.0313 34.0465H45.9375V31.859ZM31.7188 44.4798C33.8546 45.1521 36.1454 45.1521 38.2813 44.4798V46.7187L35 49.9999L31.7188 46.7187V44.4798ZM35 42.7965C32.6802 42.7939 30.4561 41.8712 28.8157 40.2308C27.1753 38.5904 26.2526 36.3664 26.25 34.0465V29.9296L27.7353 26.9579L28.4375 27.484C30.3307 28.9039 32.6335 29.6715 35 29.6715C37.3666 29.6715 39.6693 28.9039 41.5625 27.484L42.2647 26.9579L43.75 29.9296V34.0465C43.7474 36.3664 42.8247 38.5904 41.1843 40.2308C39.5439 41.8712 37.3199 42.7939 35 42.7965ZM24.0625 34.0465H22.9688C22.6787 34.0465 22.4005 33.9313 22.1954 33.7262C21.9902 33.521 21.875 33.2428 21.875 32.9528C21.875 32.6627 21.9902 32.3845 22.1954 32.1794C22.4005 31.9742 22.6787 31.859 22.9688 31.859H24.0625V34.0465ZM9.84376 55.9653V57.0153H3.28126V43.526C3.28086 42.8785 3.47246 42.2453 3.83185 41.7067C4.19123 41.168 4.70225 40.7479 5.30032 40.4996L15.7336 36.1531C15.9333 36.0697 16.1039 35.929 16.2236 35.7487C16.3434 35.5684 16.4069 35.3567 16.4063 35.1403V30.8353C16.4005 30.628 16.3385 30.4263 16.227 30.2516C16.1154 30.0768 15.9585 29.9357 15.773 29.8432C14.4654 29.1928 13.3423 28.2243 12.5068 27.0266C11.6712 25.8289 11.15 24.4404 10.9911 22.9887C10.9615 22.7211 10.8342 22.4738 10.6336 22.2942C10.433 22.1145 10.1732 22.0152 9.90391 22.0153H8.75001C8.45993 22.0153 8.18173 21.9 7.97661 21.6949C7.77149 21.4898 7.65626 21.2116 7.65626 20.9215C7.65626 20.6314 7.77149 20.3532 7.97661 20.1481C8.18173 19.943 8.45993 19.8278 8.75001 19.8278H9.84376C9.98804 19.8278 10.1309 19.7992 10.2641 19.7438C10.3973 19.6883 10.5182 19.6071 10.6199 19.5047C10.7215 19.4023 10.8019 19.2808 10.8565 19.1473C10.911 19.0137 10.9385 18.8706 10.9375 18.7264L10.9299 17.6326C10.9288 17.4655 10.8895 17.3009 10.815 17.1514L8.93704 13.3965C8.62246 12.7661 8.45608 12.0722 8.4506 11.3676C8.44512 10.6631 8.60068 9.96669 8.90542 9.33147C9.21016 8.69625 9.656 8.13906 10.2089 7.70243C10.7618 7.26581 11.4072 6.96129 12.0958 6.81213C12.2506 6.77784 12.3963 6.71112 12.5234 6.61635L14.4047 5.19447C15.6812 4.25622 17.1831 3.67202 18.7581 3.50108C20.3331 3.33013 21.9253 3.5785 23.3734 4.22104L26.4294 5.60901C28.0128 6.33032 29.2503 7.64366 29.8762 9.26711C30.5021 10.8906 30.4667 12.6947 29.7774 14.2923L29.6002 14.7024C29.1849 14.9324 28.7855 15.19 28.4047 15.4735L26.6799 16.7653C25.6961 17.018 24.7815 17.4877 24.003 18.14C23.2245 18.7923 22.6019 19.6106 22.1809 20.5349C21.7598 21.4592 21.5511 22.466 21.5699 23.4815C21.5887 24.4969 21.8346 25.4953 22.2895 26.4034L23.9258 29.6715H22.9688C22.0985 29.6715 21.2639 30.0172 20.6486 30.6326C20.0332 31.2479 19.6875 32.0825 19.6875 32.9528C19.6875 33.823 20.0332 34.6576 20.6486 35.2729C21.2639 35.8883 22.0985 36.234 22.9688 36.234H24.2813C24.5945 37.7474 25.2242 39.1775 26.129 40.4304C27.0337 41.6833 28.1932 42.7308 29.5313 43.5042V46.3403L13.8491 50.6967C12.6987 51.0188 11.685 51.7077 10.9621 52.6587C10.2391 53.6096 9.84645 54.7707 9.84376 55.9653ZM57.9688 66.859H51.4063V58.109H49.2188V66.859H20.7813V58.109H18.5938V66.859H12.0313V55.9653C12.0329 55.2481 12.2688 54.5511 12.7032 53.9804C13.1376 53.4098 13.7466 52.9968 14.4375 52.8043L30.3067 48.3965L34.23 52.3198C34.4351 52.5248 34.7133 52.64 35.0033 52.64C35.2933 52.64 35.5715 52.5248 35.7766 52.3198L39.6999 48.3965L55.5625 52.8043C56.2534 52.9968 56.8624 53.4098 57.2968 53.9804C57.7312 54.5511 57.9672 55.2481 57.9688 55.9653V66.859ZM66.7188 57.0153H60.1563V55.9653C60.1536 54.7707 59.7609 53.6096 59.0379 52.6587C58.315 51.7077 57.3013 51.0188 56.1509 50.6967L40.4688 46.3403V43.5042C41.8068 42.7308 42.9663 41.6833 43.8711 40.4304C44.7758 39.1775 45.4055 37.7474 45.7188 36.234H47.0313C47.9015 36.234 48.7361 35.8883 49.3515 35.2729C49.9668 34.6576 50.3125 33.823 50.3125 32.9528C50.3125 32.0825 49.9668 31.2479 49.3515 30.6326C48.7361 30.0172 47.9015 29.6715 47.0313 29.6715H46.0272L47.0991 27.1876C48.0149 25.0641 48.0618 22.6662 47.2295 20.5086C46.3972 18.351 44.7522 16.6058 42.6475 15.6474L40.11 14.4914L39.5631 13.3976C39.2483 12.7672 39.0818 12.0733 39.0761 11.3687C39.0704 10.6641 39.2259 9.96754 39.5305 9.3322C39.8352 8.69685 40.281 8.13953 40.8339 7.70277C41.3868 7.26601 42.0322 6.96138 42.7208 6.81213C42.8756 6.77784 43.0213 6.71112 43.1484 6.61635L45.0297 5.19447C46.3062 4.25622 47.8081 3.67202 49.3831 3.50108C50.9581 3.33013 52.5503 3.5785 53.9984 4.22104L57.0544 5.60901C58.6378 6.33032 59.8753 7.64366 60.5012 9.26711C61.1271 10.8906 61.0917 12.6947 60.4024 14.2923L59.1445 17.2028C59.0849 17.3409 59.0543 17.4898 59.0549 17.6403L59.0625 18.734C59.0625 19.0241 59.1777 19.3023 59.3829 19.5074C59.588 19.7125 59.8662 19.8278 60.1563 19.8278H61.25C61.5401 19.8278 61.8183 19.943 62.0234 20.1481C62.2285 20.3532 62.3438 20.6314 62.3438 20.9215C62.3438 21.2116 62.2285 21.4898 62.0234 21.6949C61.8183 21.9 61.5401 22.0153 61.25 22.0153H60.0961C59.8268 22.0152 59.567 22.1145 59.3664 22.2942C59.1658 22.4738 59.0385 22.7211 59.0089 22.9887C58.8494 24.4459 58.3248 25.8393 57.4835 27.0398C56.6423 28.2403 55.5117 29.209 54.1964 29.8563C54.0142 29.9469 53.8608 30.0865 53.7536 30.2594C53.6464 30.4324 53.5895 30.6318 53.5894 30.8353V35.1403C53.5894 35.3561 53.6532 35.5672 53.7729 35.7468C53.8926 35.9265 54.0628 36.0667 54.262 36.1498L64.6997 40.4996C65.2978 40.7479 65.8088 41.168 66.1682 41.7067C66.5275 42.2453 66.7192 42.8785 66.7188 43.526V57.0153Z" fill="#9E211B"/>
</svg>
