<svg width="24" height="25" viewBox="0 0 24 25" fill="none" xmlns="http://www.w3.org/2000/svg">
<path d="M11.8965 9.50165C10.2872 9.50165 8.98269 10.8062 8.98269 12.4154C8.98269 12.738 9.0351 13.0483 9.13187 13.3383M15.4484 7.19121C11.6376 5.90618 7.31017 6.80351 4.2737 9.83999L2.21336 11.9003C1.92888 12.1848 1.92888 12.646 2.21336 12.9305L4.2737 14.9909C4.86693 15.5841 5.31854 16.2114 6 16.6396M17.5 8.12171C17.6688 8.22016 17.8355 8.32352 18 8.43179C18.6104 8.83362 19.1893 9.30301 19.7263 9.83999L21.7866 11.9003C22.0711 12.1848 22.0711 12.646 21.7866 12.9305L19.7263 14.9909C16.707 18.0101 12.3604 18.8931 8.5648 17.6396C8.37508 17.577 8.18673 17.509 8 17.4357M14.5 11.1057C14.5853 11.2749 14.6546 11.4535 14.7058 11.6396C14.7739 11.8866 14.8102 12.1468 14.8102 12.4154C14.8102 14.0246 13.5057 15.3292 11.8965 15.3292C11.5837 15.3292 11.2824 15.2799 11 15.1887C10.8374 15.1362 10.6811 15.0698 10.5324 14.9909M17.5 5.13965L4 18.6396" stroke="#7D8693" stroke-width="1.5" stroke-linecap="round" stroke-linejoin="round"/>
</svg>
