<svg width="30" height="30" viewBox="0 0 30 30" fill="none" xmlns="http://www.w3.org/2000/svg">
<path d="M28.052 11.9115L22.9247 6.27699C21.9102 5.26245 20.2574 5.26111 19.2334 6.28518C18.9088 6.6097 18.6879 6.99834 18.5734 7.41293C17.5534 6.63156 16.082 6.70929 15.1425 7.64886C14.8193 7.97338 14.5984 8.36202 14.4811 8.7752C13.4611 7.99658 11.9897 8.0729 11.0515 9.01247C10.7338 9.33022 10.5156 9.70927 10.397 10.1129L7.98061 7.69654C6.96606 6.68199 5.31333 6.68065 4.28926 7.70472C3.27337 8.71927 3.27337 10.372 4.28926 11.3879L13.5729 20.6715L8.06651 21.536C6.57876 21.7488 5.45651 23.0415 5.45651 24.5456C5.45651 25.6733 6.37422 26.5911 7.50197 26.5911H20.3597C22.3629 26.5911 24.2461 25.811 25.6629 24.3942L27.8078 22.2493C29.2233 20.8351 30.0019 18.9533 30.0019 16.9529C30.0019 15.0847 29.3092 13.2943 28.052 11.9115ZM26.8437 21.2851L24.6988 23.4301C23.5397 24.5892 21.9988 25.2274 20.3596 25.2274H7.5019C7.12554 25.2274 6.82006 24.9219 6.82006 24.5455C6.82006 23.7164 7.43913 23.0033 8.26959 22.8846L15.1083 21.8101C15.3619 21.7705 15.5705 21.5919 15.651 21.3478C15.7301 21.1051 15.666 20.8364 15.4846 20.6551L5.25331 10.4238C4.76924 9.9397 4.76924 9.1515 5.26015 8.65925C5.50285 8.41788 5.8206 8.2965 6.13835 8.2965C6.4561 8.2965 6.77379 8.41788 7.01656 8.66059L13.8389 15.4829C14.1048 15.7488 14.5371 15.7488 14.803 15.4829C14.9352 15.3492 15.0021 15.1747 15.0021 15.0002C15.0021 14.8256 14.9353 14.6511 14.8016 14.5174L12.0157 11.7315C11.5316 11.2475 11.5316 10.4606 12.0239 9.96834C12.5066 9.48561 13.2962 9.48561 13.7789 9.96834L16.5662 12.7556C16.8321 13.0215 17.2644 13.0215 17.5303 12.7556C17.6625 12.6219 17.7294 12.4474 17.7294 12.2729C17.7294 12.0983 17.6626 11.9238 17.5289 11.7901L16.1066 10.3678C15.6226 9.88377 15.6226 9.09691 16.1148 8.60466C16.5975 8.12193 17.3871 8.12193 17.8698 8.60466L19.2989 10.0337C19.3016 10.0351 19.3002 10.0351 19.3002 10.0351L19.3016 10.0364C19.3029 10.0378 19.3029 10.0378 19.3029 10.0378C19.3042 10.0391 19.3043 10.0391 19.3043 10.0391H19.3056L19.3069 10.0404C19.5742 10.2941 19.997 10.2886 20.2574 10.0268C20.5233 9.76092 20.5233 9.32862 20.2574 9.06271L20.1988 9.0041C19.9642 8.76957 19.8347 8.45726 19.8347 8.12589C19.8347 7.79453 19.9628 7.48362 20.2056 7.24092C20.6911 6.75819 21.4765 6.75953 21.9388 7.21771L27.0443 12.8291C28.071 13.9597 28.6383 15.4242 28.6383 16.9529C28.6383 18.5892 28.0015 20.1274 26.8437 21.2851Z" fill="white"/>
<path d="M11.7218 7.02695C10.7291 4.83013 8.53639 3.40918 6.13637 3.40918C2.75318 3.40918 0 6.16236 0 9.54555C0 11.9456 1.42089 14.1383 3.61771 15.1324C3.70905 15.1733 3.80455 15.1924 3.89864 15.1924C4.15771 15.1924 4.40591 15.0424 4.52046 14.7915C4.67457 14.4479 4.5218 14.0442 4.17957 13.8888C2.46957 13.1156 1.36368 11.411 1.36368 9.54555C1.36368 6.91375 3.50457 4.7728 6.13643 4.7728C8.00189 4.7728 9.70646 5.87868 10.4796 7.58869C10.6337 7.93232 11.0387 8.08643 11.381 7.92957C11.7246 7.77418 11.8773 7.37059 11.7218 7.02695Z" fill="#9E211B"/>
</svg>
