<svg width="6" height="10" viewBox="0 0 6 10" fill="none" xmlns="http://www.w3.org/2000/svg">
<path d="M0 2.62446C0 2.248 0.120867 1.86656 0.362602 1.48016C0.604337 1.09376 0.957046 0.773731 1.42073 0.520085C1.88446 0.266595 2.4254 0.139783 3.04356 0.139648C3.61808 0.139648 4.12534 0.245665 4.56533 0.457699C5.00533 0.669733 5.34518 0.958049 5.5849 1.32265C5.82067 1.67419 5.94592 2.08822 5.94454 2.5115C5.94454 2.84835 5.87612 3.1436 5.73928 3.39724C5.611 3.63961 5.44664 3.86108 5.25184 4.05407C5.06363 4.2384 4.72581 4.54851 4.23837 4.9844C4.12447 5.08633 4.01632 5.19448 3.91439 5.30838C3.84399 5.38608 3.78313 5.47194 3.73313 5.56411C3.69472 5.6381 3.66385 5.71577 3.64099 5.79595C3.61914 5.87325 3.58644 6.00897 3.54287 6.2031C3.46755 6.6153 3.23177 6.82137 2.83554 6.8213C2.73977 6.82377 2.64446 6.80717 2.55516 6.77248C2.46586 6.73778 2.38434 6.68568 2.31536 6.61921C2.17464 6.48461 2.1043 6.28449 2.10434 6.01884C2.10434 5.68596 2.15585 5.3977 2.25886 5.15406C2.35713 4.91769 2.49594 4.70032 2.66904 4.51173C2.88763 4.28126 3.11777 4.06202 3.35858 3.85487C3.61218 3.63299 3.79549 3.46555 3.9085 3.35256C4.0207 3.24062 4.11672 3.11357 4.19378 2.97508C4.27088 2.83707 4.31081 2.6814 4.30967 2.52331C4.312 2.37197 4.28161 2.22191 4.22057 2.0834C4.15953 1.9449 4.06929 1.82121 3.95602 1.72082C3.72016 1.50295 3.41601 1.39397 3.04356 1.39388C2.6076 1.39388 2.28661 1.5038 2.08059 1.72364C1.87457 1.94348 1.70017 2.26745 1.55741 2.69553C1.42266 3.14362 1.16706 3.36767 0.790618 3.36767C0.685797 3.36976 0.581693 3.34996 0.484961 3.30953C0.388229 3.2691 0.300999 3.20893 0.228847 3.13286C0.0762822 2.97626 0 2.80679 0 2.62446ZM2.90092 9.13955C2.66802 9.14285 2.44227 9.05912 2.26784 8.90475C2.08744 8.74826 1.99727 8.52931 1.99734 8.24789C1.99482 8.13046 2.01677 8.01379 2.06179 7.90531C2.10682 7.79683 2.17393 7.69891 2.25886 7.61778C2.34321 7.5342 2.44354 7.46848 2.55385 7.42454C2.66417 7.3806 2.78221 7.35935 2.90092 7.36204C3.0177 7.36035 3.13364 7.38211 3.24187 7.42603C3.3501 7.46995 3.44841 7.53515 3.53099 7.61775C3.61357 7.70035 3.67873 7.79868 3.72263 7.90692C3.76652 8.01516 3.78825 8.1311 3.78653 8.24789C3.78653 8.52534 3.69735 8.74329 3.51898 8.90176C3.35053 9.05647 3.12963 9.14146 2.90092 9.13955Z" fill="white"/>
</svg>
