<svg width="19" height="20" viewBox="0 0 19 20" fill="none" xmlns="http://www.w3.org/2000/svg">
<path d="M3.10229 5.04286L0.183594 2.12506L1.45709 0.851562L4.37489 3.77026H18.0927C18.233 3.77025 18.3713 3.80304 18.4967 3.86599C18.622 3.92895 18.7309 4.02034 18.8147 4.13287C18.8985 4.2454 18.9548 4.37595 18.9791 4.5141C19.0034 4.65225 18.9952 4.79418 18.9549 4.92856L16.7949 12.1286C16.7393 12.314 16.6254 12.4766 16.4701 12.5922C16.3148 12.7078 16.1263 12.7703 15.9327 12.7703H4.90229V14.5703H14.8023V16.3703H4.00229C3.7636 16.3703 3.53468 16.2754 3.3659 16.1067C3.19712 15.9379 3.10229 15.709 3.10229 15.4703V5.04286ZM4.90229 5.57026V10.9703H15.2631L16.8831 5.57026H4.90229ZM4.45229 19.9703C4.09425 19.9703 3.75087 19.828 3.4977 19.5749C3.24453 19.3217 3.10229 18.9783 3.10229 18.6203C3.10229 18.2622 3.24453 17.9188 3.4977 17.6657C3.75087 17.4125 4.09425 17.2703 4.45229 17.2703C4.81034 17.2703 5.15371 17.4125 5.40689 17.6657C5.66006 17.9188 5.80229 18.2622 5.80229 18.6203C5.80229 18.9783 5.66006 19.3217 5.40689 19.5749C5.15371 19.828 4.81034 19.9703 4.45229 19.9703ZM15.2523 19.9703C14.8943 19.9703 14.5509 19.828 14.2977 19.5749C14.0445 19.3217 13.9023 18.9783 13.9023 18.6203C13.9023 18.2622 14.0445 17.9188 14.2977 17.6657C14.5509 17.4125 14.8943 17.2703 15.2523 17.2703C15.6103 17.2703 15.9537 17.4125 16.2069 17.6657C16.4601 17.9188 16.6023 18.2622 16.6023 18.6203C16.6023 18.9783 16.4601 19.3217 16.2069 19.5749C15.9537 19.828 15.6103 19.9703 15.2523 19.9703Z" fill="black"/>
</svg>
