<svg width="17" height="14" viewBox="0 0 17 14" fill="none" xmlns="http://www.w3.org/2000/svg">
<path d="M6.4 -0.000976562L3.9 10.149L3.3 7.24903C4.26667 7.24903 5.06667 7.54902 5.7 8.14902C6.33333 8.74902 6.65 9.54902 6.65 10.549C6.65 11.549 6.33333 12.3657 5.7 12.999C5.06667 13.6324 4.28333 13.949 3.35 13.949C2.38333 13.949 1.58333 13.6324 0.95 12.999C0.316667 12.3324 0 11.5157 0 10.549C0 10.2157 0.0166666 9.89902 0.0499999 9.59902C0.116667 9.29902 0.216667 8.94902 0.35 8.54902C0.483333 8.11569 0.666667 7.59902 0.9 6.99902L3.25 -0.000976562H6.4ZM15.85 -0.000976562L13.35 10.149L12.75 7.24903C13.7167 7.24903 14.5167 7.54902 15.15 8.14902C15.7833 8.74902 16.1 9.54902 16.1 10.549C16.1 11.549 15.7833 12.3657 15.15 12.999C14.5167 13.6324 13.7333 13.949 12.8 13.949C11.8333 13.949 11.0333 13.6324 10.4 12.999C9.76667 12.3324 9.45 11.5157 9.45 10.549C9.45 10.2157 9.46667 9.89902 9.5 9.59902C9.56667 9.29902 9.66667 8.94902 9.8 8.54902C9.93333 8.11569 10.1167 7.59902 10.35 6.99902L12.7 -0.000976562H15.85Z" fill="#9E211B"/>
</svg>
