<svg width="68" height="69" viewBox="0 0 68 69" fill="none" xmlns="http://www.w3.org/2000/svg">
<path d="M65.7188 33.0469H65.5109C66.9842 31.6272 67.9062 29.6398 67.9062 27.437C67.9062 25.1161 66.8836 22.933 65.1019 21.4455L61.3438 18.3152V8.98438H63.5312V6.79688H52.5938V8.98438H54.7812V18.3152L54.3711 18.6564C53.9741 18.1008 53.3277 17.7344 52.5938 17.7344H48.2188V7.89062C48.2188 3.66984 44.7833 0.234375 40.5625 0.234375C36.3417 0.234375 32.9062 3.66984 32.9062 7.89062V8.98438H30.7188V13.3594H28.5312V0.234375H26.3438V17.7344H24.1562V13.3594H21.9688V7.89062C21.9688 3.66984 18.5333 0.234375 14.3125 0.234375C10.0917 0.234375 6.65625 3.66984 6.65625 7.89062V15.5469H2.28125V17.7344H4.46875V21.5625L2.86531 22.7667C1.12953 24.0661 0.09375 26.1388 0.09375 28.3077C0.09375 30.155 0.825469 31.8317 2.00781 33.0742C0.931562 33.2109 0.09375 34.122 0.09375 35.2344V37.4219C0.09375 38.6283 1.07484 39.6094 2.28125 39.6094V68.0469H65.7188V39.6094C66.9252 39.6094 67.9062 38.6283 67.9062 37.4219V35.2344C67.9062 34.028 66.9252 33.0469 65.7188 33.0469ZM41.6562 31.9531V24.2969H52.5938V26.4844H48.2188V28.6719H52.5938V31.9531C52.5938 32.5569 52.1037 33.0469 51.5 33.0469H42.75C42.1463 33.0469 41.6562 32.5569 41.6562 31.9531ZM54.7812 31.9531V28.6445C54.9038 28.6511 55.0164 28.6719 55.1433 28.6719C56.9666 28.6719 57.9367 27.9445 58.7166 27.3594C59.3947 26.8519 59.8836 26.4844 60.9773 26.4844C62.0722 26.4844 62.5611 26.8519 63.2392 27.3594C63.8255 27.8002 64.5211 28.3197 65.6061 28.5516C65.0877 31.112 62.8214 33.0469 60.1089 33.0469H54.58C54.7025 32.7034 54.7812 32.3381 54.7812 31.9531ZM56.9688 19.3411V8.98438H59.1562V19.3411L63.6997 23.1277C64.6742 23.9403 65.3316 25.0439 65.5919 26.2591C65.2211 26.1027 64.9105 25.8784 64.5517 25.6105C63.7719 25.0253 62.8006 24.298 60.9773 24.298C59.1541 24.298 58.1839 25.0253 57.4041 25.6105C56.7259 26.118 56.237 26.4855 55.1433 26.4855C55.0142 26.4855 54.8994 26.4702 54.7812 26.4592V21.1655L56.9688 19.3411ZM52.5938 22.1094H41.6562V19.9219H52.5938V22.1094ZM32.9062 15.5469H35.0938V18.8281C35.0938 19.4319 34.6037 19.9219 34 19.9219C33.3963 19.9219 32.9062 19.4319 32.9062 18.8281V15.5469ZM32.9062 11.1719H35.0938V13.3594H32.9062V11.1719ZM30.7188 15.5469V18.8281C30.7188 20.6372 32.1909 22.1094 34 22.1094C35.8091 22.1094 37.2812 20.6372 37.2812 18.8281V8.98438H35.0938V7.89062C35.0938 4.87516 37.547 2.42188 40.5625 2.42188C43.578 2.42188 46.0312 4.87516 46.0312 7.89062V17.7344H41.6562C40.4498 17.7344 39.4688 18.7155 39.4688 19.9219V31.9531C39.4688 32.3381 39.5475 32.7034 39.67 33.0469H34.8531L34.3806 31.1558C34.0164 29.6945 32.7061 28.6719 31.1978 28.6719H28.5312V15.5469H30.7188ZM31.1978 30.8594C31.7009 30.8594 32.1362 31.2006 32.2598 31.6873L32.6 33.0469H22.275L22.6152 31.6884C22.7377 31.2006 23.1741 30.8594 23.6772 30.8594H31.1978ZM19.7812 19.9219H21.9688V23.2031C21.9688 23.8069 21.4788 24.2969 20.875 24.2969C20.2712 24.2969 19.7812 23.8069 19.7812 23.2031V19.9219ZM19.7812 17.7344V15.5469H21.9688V17.7344H19.7812ZM8.84375 7.89062C8.84375 4.87516 11.297 2.42188 14.3125 2.42188C17.328 2.42188 19.7812 4.87516 19.7812 7.89062V13.3594H17.5938V23.2031C17.5938 25.0122 19.0659 26.4844 20.875 26.4844C22.6841 26.4844 24.1562 25.0122 24.1562 23.2031V19.9219H26.3438V28.6719H23.6772C22.1689 28.6719 20.8597 29.6945 20.4944 31.1569L20.0219 33.0469H13.5173C14.6855 31.8066 15.4062 30.1419 15.4062 28.3077C15.4062 26.1388 14.3705 24.0661 12.6358 22.7667L11.0312 21.5625V17.7344H13.2188V15.5469H8.84375V7.89062ZM2.37422 29.2286C2.44641 29.2975 2.51531 29.3609 2.59844 29.4452C3.19453 30.0413 4.01156 30.8594 5.55813 30.8594C7.10578 30.8594 7.92281 30.0423 8.52 29.4452C9.05594 28.9092 9.32063 28.6719 9.93531 28.6719C10.55 28.6719 10.8136 28.9092 11.3506 29.4452C11.6842 29.7798 12.0966 30.1856 12.6686 30.4777C11.8778 31.9958 10.3072 33.0469 8.47953 33.0469H7.02047C4.7225 33.0469 2.80406 31.403 2.37422 29.2286ZM4.17781 24.5156L6.65625 22.6562V17.7344H8.84375V22.6562L11.3233 24.5156C12.4816 25.3841 13.1805 26.7567 13.2133 28.2038C13.1159 28.1152 13.0142 28.0156 12.8972 27.8986C12.3 27.3014 11.4819 26.4844 9.93531 26.4844C8.38766 26.4844 7.57062 27.3014 6.97344 27.8986C6.4375 28.4345 6.17391 28.6719 5.55813 28.6719C4.94344 28.6719 4.68094 28.4345 4.14609 27.8986C3.75891 27.5103 3.27 27.0312 2.5525 26.7425C2.86094 25.8653 3.42094 25.0833 4.17781 24.5156ZM24.1562 39.6094V41.7969H4.46875V39.6094H24.1562ZM52.5938 48.3594H56.9688V50.5469H52.5938V48.3594ZM59.1562 52.7344V48.3594H63.5312V54.9219H46.0312V48.3594H50.4062V52.7344H59.1562ZM52.5938 57.1094H56.9688V59.2969H52.5938V57.1094ZM43.8438 65.8594H26.3438V39.6094H43.8438V65.8594ZM4.46875 43.9844H13.2188V61.4844H4.46875V43.9844ZM15.4062 43.9844H24.1562V61.4844H15.4062V43.9844ZM4.46875 63.6719H24.1562V65.8594H4.46875V63.6719ZM46.0312 65.8594V57.1094H50.4062V61.4844H59.1562V57.1094H63.5312V65.8594H46.0312ZM63.5312 46.1719H46.0312V39.6094H50.4062V43.9844H59.1562V39.6094H63.5312V46.1719ZM52.5938 39.6094H56.9688V41.7969H52.5938V39.6094ZM65.7188 37.4219H2.28125L2.27906 35.2344H2.28125H65.7188V37.4219Z" fill="#9E211B"/>
<path d="M17.5938 48.3594H19.7812V52.7344H17.5938V48.3594Z" fill="#9E211B"/>
<path d="M8.84375 48.3594H11.0312V52.7344H8.84375V48.3594Z" fill="#9E211B"/>
</svg>
