<svg width="50" height="51" viewBox="0 0 50 51" fill="none" xmlns="http://www.w3.org/2000/svg">
<rect y="0.139648" width="50" height="50" rx="25" fill="#9E211B"/>
<path d="M21.5 12.1396C22.8807 12.1396 24 11.2442 24 10.1396C24 9.03508 22.8807 8.13965 21.5 8.13965C20.1193 8.13965 19 9.03508 19 10.1396C19 11.2442 20.1193 12.1396 21.5 12.1396Z" fill="white"/>
<path d="M29.5 19.1396C30.3284 19.1396 31 18.4681 31 17.6396C31 16.8112 30.3284 16.1396 29.5 16.1396C28.6716 16.1396 28 16.8112 28 17.6396C28 18.4681 28.6716 19.1396 29.5 19.1396Z" fill="white"/>
<path d="M20 33.1396C20.5523 33.1396 21 32.6919 21 32.1396C21 31.5874 20.5523 31.1396 20 31.1396C19.4477 31.1396 19 31.5874 19 32.1396C19 32.6919 19.4477 33.1396 20 33.1396Z" fill="white"/>
<path d="M40.0385 25.1377C42.7012 21.8547 43.7294 18.5854 42.4576 16.2184C41.0921 13.6777 37.3734 12.7295 32.6831 13.3103C31.0012 8.94211 28.4089 6.13965 25.5009 6.13965C24.0905 6.19117 22.7544 6.77855 21.7706 7.77964C22.2545 7.92195 22.6895 8.19343 23.0277 8.56429C23.3659 8.93515 23.5942 9.39103 23.6876 9.88187C24.2604 9.63745 24.8771 9.50991 25.5009 9.50688C27.6539 9.50688 29.6165 11.042 31.0949 13.5629C29.1855 13.9325 27.3134 14.4703 25.5009 15.17C23.6885 14.4702 21.8164 13.9324 19.907 13.5629C20.021 13.3685 20.138 13.1802 20.2582 12.9981C19.6985 12.8442 19.2026 12.5186 18.8417 12.0683C18.6586 12.4678 18.4841 12.8828 18.318 13.3134C13.6269 12.7302 9.9089 13.6784 8.54194 16.2192C7.27091 18.5862 8.29903 21.8554 10.9618 25.1377C8.29903 28.4208 7.27091 31.6901 8.54194 34.0578C9.90736 36.5986 13.6261 37.5468 18.3164 36.9659C19.9983 41.3372 22.5898 44.1396 25.4986 44.1396C28.4073 44.1396 30.9997 41.3372 32.6807 36.9659C37.3719 37.5498 41.0898 36.6009 42.4552 34.0578C43.7294 31.6901 42.702 28.4208 40.0385 25.1377ZM19.2417 14.834C20.9061 14.9398 22.5526 15.2364 24.1479 15.7179C23.1669 16.1357 22.1783 16.6041 21.1919 17.123C20.0037 17.7482 18.8765 18.4155 17.8167 19.1127C18.1354 17.6401 18.6131 16.2056 19.2417 14.834ZM11.5505 17.8002C12.5616 15.9199 14.853 14.9266 17.795 14.8156C17.2834 16.4747 16.9098 18.1724 16.6779 19.8917C15.0266 21.0571 13.4936 22.3783 12.1005 23.8368C10.9123 21.6266 10.6423 19.4907 11.5505 17.8002ZM16.5163 29.0215C15.1464 27.8889 13.9326 26.5834 12.9059 25.1385C13.9326 23.6936 15.1464 22.3881 16.5163 21.2555C16.3902 22.509 16.3244 23.8077 16.3244 25.1385C16.3244 26.4693 16.3902 27.768 16.5163 29.0215ZM11.5505 32.476C10.6423 30.7863 10.9123 28.6496 12.1036 26.4402C13.4958 27.8979 15.0277 29.2183 16.6779 30.383C16.9099 32.1023 17.2835 33.8 17.795 35.4591C14.853 35.3496 12.5647 34.3563 11.5505 32.476ZM17.8167 31.1636C18.2169 31.4273 18.6264 31.6862 19.0452 31.9403C19.1135 31.6532 19.2661 31.3926 19.4838 31.1911C18.8103 30.7636 18.1695 30.3192 17.5614 29.858C17.0456 26.7329 17.0456 23.5457 17.5614 20.4205C19.972 18.6063 22.6493 17.168 25.5001 16.1556C26.2877 16.4334 27.0822 16.7541 27.879 17.1168C27.9547 16.8387 28.0863 16.5784 28.2658 16.3516C27.7934 16.1286 27.322 15.9166 26.8516 15.7156C28.447 15.2344 30.0934 14.9378 31.7578 14.8317C32.3866 16.2035 32.8643 17.6382 33.1828 19.1112C32.8084 18.8642 32.4252 18.6214 32.0332 18.3826C31.9366 18.6588 31.7842 18.9127 31.5853 19.1288C32.2336 19.5425 32.8509 19.9718 33.4373 20.4167C33.697 21.9764 33.8264 23.5547 33.8241 25.1354C33.8264 26.7162 33.697 28.2944 33.4373 29.8542C32.1672 30.8132 30.8194 31.667 29.4076 32.4071C28.1488 33.0713 26.8426 33.6435 25.4994 34.1191C24.2987 33.6954 23.1275 33.1941 21.9934 32.6183C21.9291 32.8978 21.7849 33.1531 21.578 33.3538C22.4367 33.7936 23.2938 34.1961 24.1494 34.5614C22.554 35.0426 20.9077 35.3392 19.2432 35.4453C18.6134 34.0732 18.1351 32.6372 17.8167 31.1636ZM25.5001 40.7678C23.3472 40.7678 21.3846 39.2327 19.907 36.7118C21.8161 36.3423 23.688 35.8045 25.5001 35.1047C27.3123 35.8046 29.1841 36.3425 31.0933 36.7118C29.6157 39.2327 27.6492 40.7678 25.5001 40.7678ZM31.7586 35.443C30.0941 35.3372 28.4477 35.0406 26.8524 34.5591C27.8333 34.1413 28.822 33.6729 29.8083 33.154C30.9966 32.5288 32.1237 31.8615 33.1836 31.1643C32.865 32.6366 32.3876 34.0708 31.7594 35.4422L31.7586 35.443ZM39.4498 32.476C38.4387 34.3563 36.1473 35.3496 33.2052 35.4606C33.7169 33.8015 34.0905 32.1038 34.3223 30.3845C35.9725 29.2198 37.5045 27.8994 38.8967 26.4418C40.088 28.6496 40.358 30.7863 39.4498 32.476ZM34.4856 21.2555C35.8544 22.3882 37.0674 23.6934 38.0937 25.1377C37.0678 26.5828 35.8547 27.8885 34.4856 29.0215C34.6109 27.7672 34.6774 26.4693 34.6774 25.1385C34.6774 23.8077 34.6124 22.509 34.4856 21.2555ZM38.8951 23.8368C37.5028 22.3793 35.9708 21.0589 34.3208 19.894C34.0888 18.1747 33.7152 16.477 33.2037 14.8179C36.1434 14.9266 38.4371 15.9199 39.4482 17.8025C40.3588 19.4907 40.088 21.6266 38.8974 23.8368H38.8951Z" fill="white"/>
</svg>
