<svg width="25" height="25" viewBox="0 0 25 25" fill="none" xmlns="http://www.w3.org/2000/svg">
<path d="M6.50156 3.07031H19.1016C19.3403 3.07031 19.5692 3.16513 19.738 3.33392C19.9067 3.5027 20.0016 3.73162 20.0016 3.97031V21.199C20.0017 21.2795 19.9802 21.3585 19.9394 21.4278C19.8986 21.4972 19.8399 21.5543 19.7695 21.5933C19.6991 21.6323 19.6195 21.6516 19.5391 21.6494C19.4587 21.6472 19.3803 21.6234 19.3122 21.5806L12.8016 17.4973L6.29096 21.5797C6.22289 21.6225 6.14461 21.6462 6.06425 21.6485C5.9839 21.6508 5.9044 21.6315 5.83403 21.5926C5.76366 21.5537 5.70498 21.4967 5.6641 21.4275C5.62322 21.3583 5.60162 21.2794 5.60156 21.199V3.97031C5.60156 3.73162 5.69638 3.5027 5.86517 3.33392C6.03395 3.16513 6.26287 3.07031 6.50156 3.07031ZM18.2016 4.87031H7.40156V18.7591L12.8016 15.3742L18.2016 18.7591V4.87031Z" fill="black"/>
</svg>
