<svg width="26" height="24" viewBox="0 0 26 24" fill="none" xmlns="http://www.w3.org/2000/svg">
<path d="M1 11.7402L8.81427 19.5545C9.18922 19.9296 9.39986 20.4382 9.39986 20.9685V22.9401L1 14.5402V11.7402Z" stroke="black" stroke-linecap="round" stroke-linejoin="round"/>
<path d="M9.40039 22.9401H25.0001V20.9685C25.0001 20.4382 24.7895 19.9296 24.4145 19.5545L16.6003 11.7402H15.0003" stroke="black" stroke-linecap="round" stroke-linejoin="round"/>
<path d="M1 11.7402H3.39996" stroke="black" stroke-linecap="round" stroke-linejoin="round"/>
<path d="M7.79926 12.5397C6.83612 12.1671 6.0117 11.5059 5.43887 10.6466C4.86604 9.78739 4.5728 8.77209 4.59931 7.73974C4.59931 4.47299 7.79926 3.67301 7.79926 1.33984C7.79926 1.33984 8.99924 2.00663 8.99924 2.93982C8.99924 3.7398 8.59924 4.40659 8.59924 5.33978C8.58864 5.55269 8.62277 5.76546 8.69942 5.96438C8.77608 6.1633 8.89356 6.34395 9.0443 6.49469C9.19504 6.64543 9.37569 6.76291 9.57461 6.83957C9.77353 6.91623 9.9863 6.95035 10.1992 6.93975C11.6392 6.93975 11.7992 5.47298 11.7992 4.53979C11.7992 4.53979 14.1992 5.67297 14.1992 8.93972C14.1992 11.7397 11.3992 12.5397 11.3992 12.5397C11.4821 12.2596 11.4985 11.9641 11.4471 11.6766C11.3957 11.3891 11.278 11.1176 11.1032 10.8836C10.9284 10.6496 10.7015 10.4596 10.4404 10.3287C10.1793 10.1978 9.89128 10.1297 9.59923 10.1297C9.30717 10.1297 9.01915 10.1978 8.75806 10.3287C8.49696 10.4596 8.27001 10.6496 8.09525 10.8836C7.92048 11.1176 7.80272 11.3891 7.75134 11.6766C7.69995 11.9641 7.71636 12.2596 7.79926 12.5397Z" stroke="black" stroke-linecap="round" stroke-linejoin="round"/>
</svg>
