<svg width="24" height="25" viewBox="0 0 24 25" fill="none" xmlns="http://www.w3.org/2000/svg">
<path d="M13.0082 16.6599L9.22909 14.5989C8.7357 15.1264 8.09507 15.4932 7.39045 15.6518C6.68583 15.8104 5.9498 15.7534 5.27801 15.4881C4.60623 15.2229 4.02975 14.7618 3.6235 14.1646C3.21724 13.5674 3 12.8619 3 12.1396C3 11.4174 3.21724 10.7119 3.6235 10.1147C4.02975 9.51754 4.60623 9.05638 5.27801 8.79116C5.9498 8.52594 6.68583 8.46892 7.39045 8.6275C8.09507 8.78608 8.7357 9.15294 9.22909 9.6804L13.0091 7.6194C12.7945 6.76986 12.8971 5.87123 13.2977 5.09193C13.6982 4.31263 14.3693 3.70618 15.185 3.38625C16.0007 3.06632 16.9051 3.05487 17.7287 3.35406C18.5522 3.65324 19.2384 4.24252 19.6586 5.01143C20.0787 5.78034 20.204 6.6761 20.011 7.53079C19.818 8.38548 19.3198 9.14043 18.61 9.65413C17.9002 10.1678 17.0273 10.405 16.1551 10.3212C15.2829 10.2374 14.4712 9.83836 13.8722 9.1989L10.0922 11.2599C10.2373 11.8371 10.2373 12.4413 10.0922 13.0185L13.8713 15.0795C14.4703 14.44 15.282 14.041 16.1542 13.9572C17.0264 13.8734 17.8993 14.1106 18.6091 14.6243C19.3189 15.138 19.8171 15.8929 20.0101 16.7476C20.2031 17.6023 20.0778 18.4981 19.6577 19.267C19.2375 20.0359 18.5513 20.6251 17.7278 20.9243C16.9042 21.2235 15.9998 21.2121 15.1841 20.8921C14.3684 20.5722 13.6973 19.9658 13.2968 19.1865C12.8962 18.4072 12.7936 17.5085 13.0082 16.659V16.6599ZM6.60019 13.9392C7.07758 13.9392 7.53541 13.7496 7.87298 13.412C8.21054 13.0744 8.40019 12.6166 8.40019 12.1392C8.40019 11.6618 8.21054 11.204 7.87298 10.8664C7.53541 10.5288 7.07758 10.3392 6.60019 10.3392C6.1228 10.3392 5.66496 10.5288 5.32739 10.8664C4.98983 11.204 4.80019 11.6618 4.80019 12.1392C4.80019 12.6166 4.98983 13.0744 5.32739 13.412C5.66496 13.7496 6.1228 13.9392 6.60019 13.9392ZM16.5002 8.5392C16.9776 8.5392 17.4354 8.34955 17.773 8.01199C18.1105 7.67442 18.3002 7.21659 18.3002 6.7392C18.3002 6.26181 18.1105 5.80397 17.773 5.4664C17.4354 5.12884 16.9776 4.9392 16.5002 4.9392C16.0228 4.9392 15.565 5.12884 15.2274 5.4664C14.8898 5.80397 14.7002 6.26181 14.7002 6.7392C14.7002 7.21659 14.8898 7.67442 15.2274 8.01199C15.565 8.34955 16.0228 8.5392 16.5002 8.5392ZM16.5002 19.3392C16.9776 19.3392 17.4354 19.1496 17.773 18.812C18.1105 18.4744 18.3002 18.0166 18.3002 17.5392C18.3002 17.0618 18.1105 16.604 17.773 16.2664C17.4354 15.9288 16.9776 15.7392 16.5002 15.7392C16.0228 15.7392 15.565 15.9288 15.2274 16.2664C14.8898 16.604 14.7002 17.0618 14.7002 17.5392C14.7002 18.0166 14.8898 18.4744 15.2274 18.812C15.565 19.1496 16.0228 19.3392 16.5002 19.3392Z" fill="black"/>
</svg>
