<svg width="24" height="25" viewBox="0 0 24 25" fill="none" xmlns="http://www.w3.org/2000/svg">
<path d="M2.21336 12.4305C1.92888 12.146 1.92888 11.6848 2.21336 11.4003L4.2737 9.33999C8.54082 5.07287 15.4592 5.07287 19.7263 9.33999L21.7866 11.4003C22.0711 11.6848 22.0711 12.146 21.7866 12.4305L19.7263 14.4909C15.4592 18.758 8.54082 18.758 4.2737 14.4909L2.21336 12.4305Z" stroke="#7D8693" stroke-width="1.5"/>
<path d="M14.8102 11.9154C14.8102 13.5246 13.5057 14.8292 11.8965 14.8292C10.2872 14.8292 8.98269 13.5246 8.98269 11.9154C8.98269 10.3062 10.2872 9.00165 11.8965 9.00165C13.5057 9.00165 14.8102 10.3062 14.8102 11.9154Z" stroke="#7D8693" stroke-width="1.5"/>
</svg>
