<svg width="24" height="25" viewBox="0 0 24 25" fill="none" xmlns="http://www.w3.org/2000/svg">
<path d="M8.70951 15.8526C5.25636 12.6924 4.349 9.41941 4.16141 7.3714C4.04703 6.12265 5.02938 5.16509 6.26834 4.9716L7.69573 4.74868C9.10101 4.52921 10.4266 5.46532 10.6899 6.86306L10.9178 8.07312C11.0214 8.62305 10.7168 9.16836 10.1943 9.36864C9.59715 9.59751 9.3046 10.266 9.60957 10.8281C9.97455 11.5008 10.5355 12.3726 11.275 13.0493C12.0145 13.7261 12.9325 14.2078 13.6348 14.5118C14.2216 14.7659 14.8616 14.4154 15.0368 13.8004C15.1901 13.2622 15.7064 12.9106 16.2633 12.9652L17.4888 13.0852C18.9043 13.2239 19.954 14.4615 19.8596 15.8807L19.7637 17.3222C19.6806 18.5734 18.8136 19.6366 17.5596 19.6331C15.503 19.6273 12.1627 19.0128 8.70951 15.8526Z" stroke="black" stroke-width="1.5"/>
</svg>
