<svg width="23" height="29" viewBox="0 0 23 29" fill="none" xmlns="http://www.w3.org/2000/svg">
<path fill-rule="evenodd" clip-rule="evenodd" d="M21.4628 8.98269C21.0337 8.60899 20.3555 8.24913 19.3451 8.24913C17.2413 8.24913 15.3797 8.24913 15.3797 8.24913C15.3797 8.24913 13.6358 8.18684 13.6358 6.14532C13.6358 4.1038 13.6358 2.53287 13.6358 2.53287C13.6358 2.53287 13.3936 1.0865 12.9161 0.671274C12.8399 0.60899 12.833 0.567467 12.8676 0.560547C12.8607 0.560547 12.8538 0.567467 12.8538 0.567467L21.4628 8.88581V8.97577V8.98269ZM13.0199 0.567467C13.0406 0.574388 13.0545 0.574388 13.0752 0.581308C13.0545 0.574388 13.0337 0.574388 13.0199 0.567467ZM13.0821 0.581308L13.1444 0.602069C13.1237 0.595149 13.1029 0.588229 13.0821 0.581308ZM13.4351 0.705876C13.4628 0.719716 13.4974 0.733557 13.532 0.747398C13.4974 0.733557 13.4697 0.719716 13.4351 0.705876Z" fill="#9E211B"/>
<path fill-rule="evenodd" clip-rule="evenodd" d="M10.4597 0.193359H7.0756H5.15172H3.18632C3.18632 0.193359 3.1448 0.193359 3.0756 0.193359H2.52196C1.53234 0.193359 0.722656 1.00305 0.722656 1.99267V2.71239V3.79198V3.80582V3.84734V3.86118V3.91654V4.01343V4.13108V4.26948V4.40789V4.43557V4.62243V4.71239V4.83696V5.03073V5.06533V5.31447V5.36291V5.58436V5.71585V5.87502V6.07571V6.17952V6.45634V6.50478V6.84388V6.8508V7.19682V7.25218V7.5636V7.66741V7.94422V8.08263V8.33177V8.5117V8.73315V8.95461V9.14838V9.40443V9.57052V9.85426V9.99959V10.311V10.4494V10.7885V10.9062V11.266V11.3698V11.7505V11.8404V12.2349V12.3179V12.3802V12.7193V12.7885V13.1968V13.266V13.6812V13.7435V13.9511V14.1588V14.221V14.4287V14.6363V14.6985V15.1138V15.183V15.5913V15.6605V16.0688V16.1518V16.2764V26.3664C0.722656 27.3491 1.51158 28.1449 2.48736 28.1657H2.49428H2.5012H2.50812H2.51504H2.52196H2.52888H2.5358H3.15864H7.08944H4.90259H11.0687H20.2728C21.2624 28.1657 22.0721 27.356 22.0721 26.3664V13.9511V11.7574C22.0721 9.05149 19.733 8.93384 19.733 8.93384C19.733 8.93384 17.6292 8.93384 15.2901 8.93384C12.951 8.93384 13.0064 6.53246 13.0064 6.53246C13.0064 6.53246 13.0064 5.62589 13.0064 2.87156C13.0064 0.103394 10.4804 0.227961 10.4804 0.227961L10.4666 0.214121L10.4597 0.193359ZM21.477 8.98229C21.0479 8.60166 20.3697 8.24872 19.3593 8.24872C17.2555 8.24872 15.3939 8.24872 15.3939 8.24872C15.3939 8.24872 13.65 8.18644 13.65 6.14492C13.65 4.10339 13.65 2.53246 13.65 2.53246C13.65 2.53246 13.4078 1.08609 12.9303 0.670868C12.8749 0.622425 12.8541 0.587823 12.868 0.567062L21.4701 8.87848V8.78852C19.2278 5.39751 17.3593 3.72277 16.0445 2.40789C15.4147 1.77813 14.6465 1.28678 14.0237 0.968446C14.6535 1.28678 15.4216 1.77813 16.0583 2.41481C17.3732 3.72969 19.2417 5.40443 21.4839 8.79543V8.97537V8.98229H21.477Z" fill="#9E211B"/>
<path d="M4.71484 14.3322H7.15775C7.69062 14.3322 8.08509 14.4568 8.35498 14.7128C8.62488 14.9689 8.74944 15.3218 8.74944 15.7924C8.74944 16.2699 8.5972 16.6436 8.31346 16.9135C8.0228 17.1834 7.58682 17.3218 6.99166 17.3218H6.18889V19.0796H4.71484V14.3391V14.3322ZM6.18889 16.3599H6.54875C6.83941 16.3599 7.02626 16.3045 7.14391 16.2076C7.26156 16.1107 7.31692 15.9862 7.31692 15.8339C7.31692 15.6817 7.26156 15.5571 7.16467 15.4533C7.06778 15.3495 6.87401 15.2941 6.5972 15.2941H6.18197V16.346V16.3599H6.18889ZM9.52453 14.3322H11.6975C12.1266 14.3322 12.4726 14.3876 12.7425 14.5052C13.0124 14.6229 13.22 14.7959 13.4 15.0035C13.573 15.2249 13.6975 15.4741 13.7737 15.7578C13.8498 16.0485 13.8913 16.353 13.8913 16.6713C13.8913 17.1834 13.8359 17.564 13.7183 17.8547C13.6007 18.1315 13.4415 18.3668 13.2408 18.5606C13.0401 18.7543 12.8117 18.8789 12.5764 18.9343C12.2581 19.0173 11.9674 19.0588 11.7045 19.0588H9.53145V14.3184L9.51761 14.3322H9.52453ZM10.9847 15.4118V18H11.3446C11.656 18 11.8636 17.9654 12.009 17.8962C12.1335 17.8339 12.2443 17.7024 12.3204 17.5433C12.3965 17.3703 12.4242 17.0934 12.4242 16.7197C12.4242 16.2215 12.3411 15.8755 12.182 15.6886C12.0228 15.5087 11.746 15.4118 11.3584 15.4118H10.9986H10.9847ZM14.6595 14.3322H18.2858V15.3564H16.1335V16.1869H17.9744V17.1488H16.1335V19.0796H14.6595V14.3391V14.3322Z" fill="white"/>
</svg>
