<svg width="15" height="18" viewBox="0 0 15 18" fill="none" xmlns="http://www.w3.org/2000/svg">
<path d="M1.375 0H13.625C13.8571 0 14.0796 0.0918648 14.2437 0.255385C14.4078 0.418906 14.5 0.640687 14.5 0.87194V17.5635C14.5001 17.6414 14.4792 17.718 14.4395 17.7852C14.3999 17.8524 14.3428 17.9077 14.2744 17.9455C14.2059 17.9832 14.1286 18.002 14.0504 17.9998C13.9722 17.9977 13.896 17.9747 13.8297 17.9332L7.5 13.9772L1.17025 17.9323C1.10407 17.9737 1.02796 17.9968 0.949839 17.999C0.871714 18.0012 0.794425 17.9825 0.726008 17.9448C0.657591 17.9072 0.600543 17.8519 0.560797 17.7849C0.521051 17.7178 0.500058 17.6414 0.5 17.5635V0.87194C0.5 0.640687 0.592187 0.418906 0.756282 0.255385C0.920376 0.0918648 1.14294 0 1.375 0ZM12.75 1.74388H2.25V15.1997L7.5 11.9203L12.75 15.1997V1.74388Z" fill="black"/>
</svg>
