<svg width="24" height="25" viewBox="0 0 24 25" fill="none" xmlns="http://www.w3.org/2000/svg">
<path d="M15.4279 16.2949L19.2826 20.1487L18.0091 21.4222L14.1553 17.5675C12.7214 18.717 10.9378 19.3423 9.1 19.3396C4.6288 19.3396 1 15.7108 1 11.2396C1 6.76845 4.6288 3.13965 9.1 3.13965C13.5712 3.13965 17.2 6.76845 17.2 11.2396C17.2026 13.0774 16.5774 14.861 15.4279 16.2949ZM13.6225 15.6271C14.7647 14.4525 15.4026 12.878 15.4 11.2396C15.4 7.75845 12.5803 4.93965 9.1 4.93965C5.6188 4.93965 2.8 7.75845 2.8 11.2396C2.8 14.7199 5.6188 17.5396 9.1 17.5396C10.7384 17.5422 12.3129 16.9043 13.4875 15.7621L13.6225 15.6271Z" fill="#7D8693"/>
</svg>
