<svg width="35" height="36" viewBox="0 0 35 36" fill="none" xmlns="http://www.w3.org/2000/svg">
<path d="M22.4977 24.0598L28.1192 29.6799L26.262 31.5371L20.6418 25.9157C18.5507 27.592 15.9497 28.5038 13.2695 28.5C6.74903 28.5 1.45703 23.208 1.45703 16.6875C1.45703 10.167 6.74903 4.875 13.2695 4.875C19.79 4.875 25.082 10.167 25.082 16.6875C25.0858 19.3676 24.1741 21.9687 22.4977 24.0598ZM19.8648 23.0859C21.5306 21.373 22.4608 19.0768 22.457 16.6875C22.457 11.6107 18.345 7.5 13.2695 7.5C8.19278 7.5 4.08203 11.6107 4.08203 16.6875C4.08203 21.7629 8.19278 25.875 13.2695 25.875C15.6588 25.8788 17.955 24.9485 19.668 23.2828L19.8648 23.0859Z" fill="black"/>
</svg>
