<svg width="25" height="25" viewBox="0 0 25 25" fill="none" xmlns="http://www.w3.org/2000/svg">
<path d="M1 23.5684H19.2857" stroke="black" stroke-miterlimit="10" stroke-linecap="round" stroke-linejoin="round"/>
<path d="M1 5.28223V23.5679" stroke="black" stroke-miterlimit="10" stroke-linecap="round" stroke-linejoin="round"/>
<path d="M1 5.28223H19.2857" stroke="black" stroke-miterlimit="10" stroke-linecap="round" stroke-linejoin="round"/>
<path d="M19.2852 23.5679V5.28223" stroke="black" stroke-miterlimit="10" stroke-linecap="round" stroke-linejoin="round"/>
<path d="M23.858 0.710938H5.57227" stroke="black" stroke-miterlimit="10" stroke-linecap="round" stroke-linejoin="round"/>
<path d="M23.8574 18.9967V0.710938" stroke="black" stroke-miterlimit="10" stroke-linecap="round" stroke-linejoin="round"/>
<path d="M5.57227 0.710938V2.23475" stroke="black" stroke-miterlimit="10" stroke-linecap="round" stroke-linejoin="round"/>
<path d="M23.8578 18.9971H22.334" stroke="black" stroke-miterlimit="10" stroke-linecap="round" stroke-linejoin="round"/>
<path d="M19.2852 22.0447L22.3328 18.9971" stroke="black" stroke-miterlimit="10" stroke-linecap="round" stroke-linejoin="round"/>
<path d="M5.57106 2.23438L2.52344 5.28199" stroke="black" stroke-miterlimit="10" stroke-linecap="round" stroke-linejoin="round"/>
<path d="M21.5709 2.99707L19.2852 5.28278" stroke="black" stroke-miterlimit="10" stroke-linecap="round" stroke-linejoin="round"/>
<path d="M6.5 5.63965H6.514" stroke="black" stroke-linecap="round" stroke-linejoin="round"/>
<path d="M8.5 6.63965H8.514" stroke="black" stroke-linecap="round" stroke-linejoin="round"/>
<path d="M2.5 7.63965H2.514" stroke="black" stroke-linecap="round" stroke-linejoin="round"/>
<path d="M1.5 10.6396H1.514" stroke="black" stroke-linecap="round" stroke-linejoin="round"/>
<path d="M5.5 11.6396H5.514" stroke="black" stroke-linecap="round" stroke-linejoin="round"/>
<path d="M10.5 9.63965H10.514" stroke="black" stroke-linecap="round" stroke-linejoin="round"/>
<path d="M3.5 12.6396H3.514" stroke="black" stroke-linecap="round" stroke-linejoin="round"/>
<path d="M7.5 14.6396H7.514" stroke="black" stroke-linecap="round" stroke-linejoin="round"/>
<path d="M9.5 11.6396H9.514" stroke="black" stroke-linecap="round" stroke-linejoin="round"/>
<path d="M9.5 15.6396H9.514" stroke="black" stroke-linecap="round" stroke-linejoin="round"/>
<path d="M3.5 16.6396H3.514" stroke="black" stroke-linecap="round" stroke-linejoin="round"/>
<path d="M3.5 19.6396H3.514" stroke="black" stroke-linecap="round" stroke-linejoin="round"/>
<path d="M6.5 20.6396H6.514" stroke="black" stroke-linecap="round" stroke-linejoin="round"/>
<path d="M11.5 18.6396H11.514" stroke="black" stroke-linecap="round" stroke-linejoin="round"/>
<path d="M13.5 13.6396H13.514" stroke="black" stroke-linecap="round" stroke-linejoin="round"/>
<path d="M12.5 7.63965H12.514" stroke="black" stroke-linecap="round" stroke-linejoin="round"/>
<path d="M16.5 9.63965H16.514" stroke="black" stroke-linecap="round" stroke-linejoin="round"/>
<path d="M18.5 6.63965H18.514" stroke="black" stroke-linecap="round" stroke-linejoin="round"/>
<path d="M18.5 10.6396H18.514" stroke="black" stroke-linecap="round" stroke-linejoin="round"/>
<path d="M12.5 11.6396H12.514" stroke="black" stroke-linecap="round" stroke-linejoin="round"/>
<path d="M11.5 14.6396H11.514" stroke="black" stroke-linecap="round" stroke-linejoin="round"/>
<path d="M15.5 15.6396H15.514" stroke="black" stroke-linecap="round" stroke-linejoin="round"/>
<path d="M18.5 16.6396H18.514" stroke="black" stroke-linecap="round" stroke-linejoin="round"/>
<path d="M14.5 21.6396H14.514" stroke="black" stroke-linecap="round" stroke-linejoin="round"/>
<path d="M18.5 19.6396H18.514" stroke="black" stroke-linecap="round" stroke-linejoin="round"/>
<path d="M4.49023 7.62402H5.53623L4.49023 8.62402V7.62402Z" stroke="black" stroke-linecap="round" stroke-linejoin="round"/>
<path d="M16.5137 11.6006V12.6456L15.5137 11.6006H16.5137Z" stroke="black" stroke-linecap="round" stroke-linejoin="round"/>
<path d="M15.4902 18.624H16.5362L15.4902 19.624V18.624Z" stroke="black" stroke-linecap="round" stroke-linejoin="round"/>
<path d="M7.51367 17.6006V18.6456L6.51367 17.6006H7.51367Z" stroke="black" stroke-linecap="round" stroke-linejoin="round"/>
<path d="M2.51367 20.6006V21.6456L1.51367 20.6006H2.51367Z" stroke="black" stroke-linecap="round" stroke-linejoin="round"/>
</svg>
