<svg width="18" height="24" viewBox="0 0 18 24" fill="none" xmlns="http://www.w3.org/2000/svg">
<path fill-rule="evenodd" clip-rule="evenodd" d="M17.4702 8.01213C17.127 7.71317 16.5844 7.42528 15.7761 7.42528C14.093 7.42528 12.6038 7.42528 12.6038 7.42528C12.6038 7.42528 11.2086 7.37545 11.2086 5.74223C11.2086 4.10902 11.2086 2.85227 11.2086 2.85227C11.2086 2.85227 11.0148 1.69518 10.6328 1.363C10.5719 1.31317 10.5664 1.27995 10.5941 1.27441C10.5886 1.27441 10.583 1.27995 10.583 1.27995L17.4702 7.93462V8.00659V8.01213ZM10.7159 1.27995C10.7325 1.28549 10.7436 1.28549 10.7602 1.29102C10.7436 1.28549 10.727 1.28549 10.7159 1.27995ZM10.7657 1.29102L10.8155 1.30763C10.7989 1.3021 10.7823 1.29656 10.7657 1.29102ZM11.0481 1.39068C11.0702 1.40175 11.0979 1.41282 11.1256 1.4239C11.0979 1.41282 11.0757 1.40175 11.0481 1.39068Z" fill="white"/>
<path fill-rule="evenodd" clip-rule="evenodd" d="M8.66853 0.981445H5.96126H4.42216H2.84984C2.84984 0.981445 2.81662 0.981445 2.76126 0.981445H2.31835C1.52666 0.981445 0.878906 1.6292 0.878906 2.42089V2.99667V3.86034V3.87141V3.90463V3.9157V3.95999V4.0375V4.13162V4.24234V4.35307V4.37522V4.5247V4.59667V4.69632V4.85134V4.87902V5.07833V5.11708V5.29425V5.39944V5.52677V5.68733V5.77037V5.99183V6.03058V6.30186V6.3074V6.58421V6.6285V6.87764V6.96068V7.18214V7.29286V7.49217V7.63612V7.81328V7.99044V8.14546V8.3503V8.48317V8.71016V8.82643V9.07556V9.18629V9.45757V9.55169V9.83958V9.92262V10.2271V10.2991V10.6147V10.6811V10.7309V11.0022V11.0576V11.3842V11.4396V11.7718V11.8216V11.9877V12.1538V12.2036V12.3697V12.5358V12.5856V12.9178V12.9731V13.2998V13.3551V13.6818V13.7482V13.8479V21.9199C0.878906 22.706 1.51005 23.3427 2.29067 23.3593H2.29621H2.30174H2.30728H2.31282H2.31835H2.32389H2.32943H2.8277H5.97233H4.22285H9.15572H16.519C17.3107 23.3593 17.9585 22.7115 17.9585 21.9199V11.9877V10.2327C17.9585 8.06795 16.0872 7.97383 16.0872 7.97383C16.0872 7.97383 14.4042 7.97383 12.5329 7.97383C10.6616 7.97383 10.7059 6.05273 10.7059 6.05273C10.7059 6.05273 10.7059 5.32747 10.7059 3.12401C10.7059 0.909473 8.68513 1.00913 8.68513 1.00913L8.67406 0.998054L8.66853 0.981445ZM17.4824 8.01259C17.1391 7.70809 16.5966 7.42574 15.7882 7.42574C14.1052 7.42574 12.6159 7.42574 12.6159 7.42574C12.6159 7.42574 11.2208 7.37591 11.2208 5.74269C11.2208 4.10947 11.2208 2.85273 11.2208 2.85273C11.2208 2.85273 11.027 1.69563 10.645 1.36345C10.6007 1.3247 10.5841 1.29702 10.5952 1.28041L17.4768 7.92954V7.85757C15.6831 5.14477 14.1882 3.80497 13.1363 2.75307C12.6325 2.24927 12.018 1.85619 11.5197 1.60151C12.0235 1.85619 12.6381 2.24927 13.1474 2.75861C14.1993 3.81051 15.6941 5.1503 17.4879 7.86311V8.00705V8.01259H17.4824Z" fill="white"/>
<path d="M4.07422 12.2923H6.02854C6.45484 12.2923 6.77041 12.392 6.98633 12.5968C7.20225 12.8017 7.3019 13.084 7.3019 13.4605C7.3019 13.8425 7.1801 14.1415 6.95311 14.3574C6.72059 14.5733 6.3718 14.684 5.89567 14.684H5.25346V16.0902H4.07422V12.2979V12.2923ZM5.25346 13.9145H5.54135C5.77387 13.9145 5.92335 13.8702 6.01747 13.7927C6.11159 13.7152 6.15588 13.6155 6.15588 13.4937C6.15588 13.3719 6.11159 13.2723 6.03408 13.1892C5.95657 13.1062 5.80155 13.0619 5.5801 13.0619H5.24792V13.9034V13.9145H5.25346ZM7.92197 12.2923H9.66038C10.0036 12.2923 10.2804 12.3366 10.4964 12.4307C10.7123 12.5248 10.8784 12.6633 11.0223 12.8293C11.1607 13.0065 11.2604 13.2058 11.3213 13.4328C11.3822 13.6653 11.4154 13.9089 11.4154 14.1636C11.4154 14.5733 11.3711 14.8778 11.277 15.1103C11.1829 15.3318 11.0555 15.52 10.895 15.675C10.7344 15.83 10.5517 15.9297 10.3635 15.974C10.1088 16.0404 9.87629 16.0736 9.66591 16.0736H7.92751V12.2812L7.91643 12.2923H7.92197ZM9.09014 13.156V15.2266H9.37802C9.62716 15.2266 9.79325 15.1989 9.90951 15.1435C10.0092 15.0937 10.0977 14.9885 10.1586 14.8612C10.2195 14.7228 10.2417 14.5013 10.2417 14.2024C10.2417 13.8037 10.1753 13.5269 10.0479 13.3774C9.92058 13.2335 9.69913 13.156 9.3891 13.156H9.10121H9.09014ZM12.0299 12.2923H14.931V13.1117H13.2092V13.7761H14.6818V14.5456H13.2092V16.0902H12.0299V12.2979V12.2923Z" fill="#9E211B"/>
</svg>
