<svg width="32" height="32" viewBox="0 0 32 32" fill="none" xmlns="http://www.w3.org/2000/svg">
<path d="M27.8154 9.93262L29.6745 10.2026L29.4297 12.2539" stroke="black" stroke-miterlimit="10" stroke-linecap="round" stroke-linejoin="round"/>
<path d="M12.8789 5.08048C13.3799 4.11582 13.9482 3.20504 14.4767 2.50268C15.0975 1.67736 15.6633 1.13965 16.0002 1.13965C16.3371 1.13965 16.9029 1.67736 17.5237 2.50261C18.9099 4.34521 20.5707 7.62111 20.5707 9.54477C20.5707 12.33 18.5244 14.5879 16.0002 14.5879C13.476 14.5879 11.4297 12.33 11.4297 9.54477C11.4297 8.88577 11.6245 8.06811 11.9366 7.20376" stroke="black" stroke-miterlimit="10" stroke-linecap="round" stroke-linejoin="round"/>
<path d="M11.0792 4.37239C11.0792 5.44362 10.2922 6.31203 9.32135 6.31203C8.35051 6.31203 7.56348 5.44362 7.56348 4.37239C7.56348 3.63252 8.20219 2.37253 8.73539 1.66384C8.9742 1.34646 9.19181 1.13965 9.32135 1.13965C9.4509 1.13965 9.66851 1.34646 9.90731 1.66384C10.4405 2.37253 11.0792 3.63252 11.0792 4.37239Z" stroke="black" stroke-miterlimit="10" stroke-linecap="round" stroke-linejoin="round"/>
<path d="M24.4376 5.79517C24.4376 6.6522 23.808 7.3469 23.0313 7.3469C22.2546 7.3469 21.625 6.6522 21.625 5.79517C21.625 5.20324 22.136 4.19529 22.5625 3.62834C22.7536 3.37443 22.9277 3.20898 23.0313 3.20898C23.135 3.20898 23.3091 3.37443 23.5001 3.62834C23.9266 4.19536 24.4376 5.20331 24.4376 5.79517Z" stroke="black" stroke-miterlimit="10" stroke-linecap="round" stroke-linejoin="round"/>
<path d="M25.6539 16.4646L19.8145 12.4375" stroke="black" stroke-miterlimit="10" stroke-linecap="round" stroke-linejoin="round"/>
<path d="M10.0342 27.1506L15.6667 31.0349C15.8697 31.1749 16.1273 31.1749 16.3303 31.0349L30.7049 21.1218C31.0972 20.8513 31.0972 20.2209 30.7049 19.9504L27.4717 17.7207" stroke="black" stroke-miterlimit="10" stroke-linecap="round" stroke-linejoin="round"/>
<path d="M12.1877 12.4385L1.29423 19.9509C0.901923 20.2214 0.901923 20.8518 1.29423 21.1223L8.22904 25.9047" stroke="black" stroke-miterlimit="10" stroke-linecap="round" stroke-linejoin="round"/>
<path d="M2.32617 10.2031L14.7146 20.692C15.4732 21.3343 16.5283 21.3343 17.2869 20.692L29.569 10.2931" stroke="black" stroke-miterlimit="10" stroke-linecap="round" stroke-linejoin="round"/>
<path d="M16.002 23.3809V24.4153" stroke="black" stroke-miterlimit="10" stroke-linecap="round" stroke-linejoin="round"/>
<path d="M17.876 22.7754L18.539 23.5069" stroke="black" stroke-miterlimit="10" stroke-linecap="round" stroke-linejoin="round"/>
<path d="M14.1258 22.7754L13.4629 23.5069" stroke="black" stroke-miterlimit="10" stroke-linecap="round" stroke-linejoin="round"/>
</svg>
