<svg width="70" height="71" viewBox="0 0 70 71" fill="none" xmlns="http://www.w3.org/2000/svg">
<g clip-path="url(#clip0_195_20897)">
<path d="M67.8125 45.5312C67.6688 45.5313 67.5266 45.5031 67.3938 45.4482C67.2611 45.3932 67.1405 45.3127 67.0389 45.2111C66.9373 45.1095 66.8568 44.9889 66.8018 44.8562C66.7469 44.7234 66.7187 44.5812 66.7188 44.4375V38.9688C66.7188 38.6787 66.834 38.4005 67.0391 38.1954C67.2442 37.9902 67.5224 37.875 67.8125 37.875C68.1026 37.875 68.3808 37.9902 68.5859 38.1954C68.791 38.4005 68.9063 38.6787 68.9063 38.9688V44.4375C68.9063 44.5812 68.8781 44.7234 68.8232 44.8562C68.7682 44.9889 68.6877 45.1095 68.5861 45.2111C68.4845 45.3127 68.3639 45.3932 68.2312 45.4482C68.0984 45.5031 67.9562 45.5313 67.8125 45.5312Z" fill="#9E211B"/>
<path d="M67.8149 40.063C67.6115 40.0632 67.4122 40.0068 67.2392 39.9C67.0662 39.7932 66.9263 39.6403 66.8354 39.4585L65.7417 37.271C65.677 37.1424 65.6383 37.0024 65.6279 36.8589C65.6174 36.7154 65.6354 36.5713 65.6807 36.4347C65.7261 36.2982 65.7979 36.172 65.8921 36.0632C65.9863 35.9545 66.101 35.8654 66.2297 35.801C66.3584 35.7367 66.4985 35.6984 66.642 35.6883C66.7855 35.6781 66.9296 35.6964 67.066 35.7421C67.2025 35.7877 67.3285 35.8599 67.4371 35.9543C67.5456 36.0488 67.6344 36.1637 67.6984 36.2926L68.7922 38.4801C68.8756 38.6467 68.915 38.832 68.9067 39.0181C68.8983 39.2043 68.8426 39.3853 68.7447 39.5439C68.6468 39.7025 68.5099 39.8334 68.3472 39.9243C68.1845 40.0151 68.0012 40.0629 67.8149 40.063Z" fill="#9E211B"/>
<path d="M66.7179 37.8755C66.5315 37.8754 66.3483 37.8276 66.1855 37.7368C66.0228 37.6459 65.886 37.515 65.7881 37.3564C65.6902 37.1978 65.6344 37.0168 65.6261 36.8306C65.6178 36.6445 65.6572 36.4592 65.7406 36.2926L66.8343 34.1051C66.8983 33.9762 66.9872 33.8613 67.0957 33.7668C67.2042 33.6724 67.3303 33.6002 67.4667 33.5546C67.6032 33.5089 67.7473 33.4906 67.8908 33.5008C68.0343 33.5109 68.1744 33.5492 68.3031 33.6135C68.4317 33.6779 68.5465 33.767 68.6407 33.8757C68.7349 33.9845 68.8067 34.1107 68.852 34.2472C68.8974 34.3838 68.9153 34.5279 68.9049 34.6714C68.8944 34.8149 68.8557 34.9549 68.7911 35.0835L67.6973 37.271C67.6064 37.4528 67.4666 37.6057 67.2936 37.7125C67.1205 37.8193 66.9212 37.8757 66.7179 37.8755Z" fill="#9E211B"/>
<path d="M67.8126 35.6879C67.6465 35.6877 67.4826 35.6497 67.3333 35.5768C67.184 35.5039 67.0533 35.398 66.951 35.2671C66.8487 35.1362 66.7775 34.9837 66.7429 34.8212C66.7082 34.6587 66.7109 34.4905 66.7509 34.3292L67.8447 29.9542C67.9156 29.6737 68.0949 29.4326 68.3432 29.284C68.5915 29.1354 68.8887 29.0914 69.1695 29.1615C69.4502 29.2316 69.6918 29.4102 69.8411 29.6581C69.9904 29.9061 70.0353 30.2031 69.966 30.484L68.8722 34.859C68.8134 35.0956 68.6772 35.3057 68.4852 35.4559C68.2932 35.6061 68.0564 35.6878 67.8126 35.6879Z" fill="#9E211B"/>
<path d="M68.9086 31.313C68.7053 31.3132 68.5059 31.2568 68.3329 31.15C68.1599 31.0432 68.0201 30.8903 67.9292 30.7085L66.8354 28.521C66.7708 28.3924 66.7321 28.2524 66.7216 28.1089C66.7112 27.9654 66.7291 27.8213 66.7745 27.6847C66.8198 27.5482 66.8916 27.422 66.9858 27.3132C67.08 27.2045 67.1947 27.1154 67.3234 27.051C67.4521 26.9867 67.5922 26.9484 67.7357 26.9383C67.8792 26.9281 68.0233 26.9464 68.1598 26.9921C68.2962 27.0377 68.4223 27.1099 68.5308 27.2043C68.6393 27.2988 68.7281 27.4137 68.7922 27.5426L69.8859 29.7301C69.9693 29.8967 70.0087 30.082 70.0004 30.2681C69.9921 30.4543 69.9363 30.6353 69.8384 30.7939C69.7405 30.9525 69.6037 31.0834 69.441 31.1743C69.2782 31.2651 69.095 31.3129 68.9086 31.313Z" fill="#9E211B"/>
<path d="M67.8123 29.1241C67.596 29.124 67.3846 29.0599 67.2047 28.9397C67.0249 28.8195 66.8848 28.6487 66.802 28.4488C66.7192 28.249 66.6976 28.0291 66.7398 27.817C66.7819 27.6049 66.8861 27.41 67.039 27.257L68.1327 26.1633C68.2339 26.0602 68.3546 25.9782 68.4877 25.9221C68.6207 25.8659 68.7636 25.8366 68.9081 25.8359C69.0525 25.8353 69.1957 25.8633 69.3292 25.9182C69.4628 25.9732 69.5842 26.0541 69.6863 26.1563C69.7885 26.2584 69.8694 26.3798 69.9243 26.5133C69.9793 26.6469 70.0073 26.7901 70.0066 26.9345C70.006 27.079 69.9767 27.2219 69.9205 27.3549C69.8644 27.488 69.7824 27.6086 69.6793 27.7099L68.5855 28.8036C68.4841 28.9053 68.3636 28.986 68.2309 29.041C68.0982 29.096 67.9559 29.1242 67.8123 29.1241Z" fill="#9E211B"/>
<path d="M68.9086 28.0318C68.7053 28.032 68.5059 27.9755 68.3329 27.8687C68.1599 27.7619 68.0201 27.609 67.9292 27.4272L66.8354 25.2397C66.7708 25.1112 66.7321 24.9712 66.7216 24.8277C66.7112 24.6842 66.7291 24.54 66.7745 24.4035C66.8198 24.267 66.8916 24.1407 66.9858 24.032C67.08 23.9232 67.1947 23.8341 67.3234 23.7698C67.4521 23.7054 67.5922 23.6671 67.7357 23.657C67.8792 23.6469 68.0233 23.6652 68.1598 23.7108C68.2962 23.7565 68.4223 23.8286 68.5308 23.9231C68.6393 24.0175 68.7281 24.1325 68.7922 24.2613L69.8859 26.4488C69.9693 26.6155 70.0087 26.8007 70.0004 26.9869C69.9921 27.1731 69.9363 27.3541 69.8384 27.5126C69.7405 27.6712 69.6037 27.8022 69.441 27.893C69.2782 27.9839 69.095 28.0316 68.9086 28.0318Z" fill="#9E211B"/>
<path d="M63.4358 26.9377C63.1691 26.9374 62.9116 26.8395 62.712 26.6626C62.5124 26.4857 62.3843 26.2419 62.3519 25.9771C62.3194 25.7123 62.3849 25.4448 62.536 25.225C62.687 25.0051 62.9132 24.848 63.172 24.7833L67.547 23.6896C67.6864 23.6543 67.8314 23.647 67.9737 23.6679C68.116 23.6888 68.2528 23.7375 68.3762 23.8114C68.4996 23.8852 68.6073 23.9827 68.693 24.0982C68.7786 24.2138 68.8407 24.345 68.8755 24.4846C68.9104 24.6241 68.9173 24.7692 68.896 24.9114C68.8747 25.0536 68.8256 25.1903 68.7514 25.3135C68.6772 25.4367 68.5794 25.544 68.4636 25.6294C68.3479 25.7147 68.2164 25.7764 68.0768 25.8109L63.7018 26.9046C63.6148 26.9266 63.5255 26.9377 63.4358 26.9377Z" fill="#9E211B"/>
<path d="M60.156 30.2178C59.9397 30.2178 59.7283 30.1536 59.5485 30.0334C59.3687 29.9132 59.2285 29.7424 59.1457 29.5426C59.063 29.3428 59.0413 29.1229 59.0835 28.9108C59.1257 28.6986 59.2298 28.5038 59.3827 28.3508L62.664 25.0695C62.7652 24.9665 62.8858 24.8845 63.0189 24.8283C63.152 24.7721 63.2949 24.7429 63.4393 24.7422C63.5838 24.7415 63.7269 24.7695 63.8605 24.8245C63.9941 24.8795 64.1154 24.9604 64.2176 25.0625C64.3197 25.1646 64.4006 25.286 64.4556 25.4196C64.5106 25.5532 64.5385 25.6963 64.5379 25.8408C64.5372 25.9852 64.508 26.1281 64.4518 26.2612C64.3956 26.3943 64.3136 26.5149 64.2105 26.6161L60.9293 29.8974C60.8279 29.9991 60.7073 30.0798 60.5746 30.1348C60.4419 30.1898 60.2997 30.218 60.156 30.2178Z" fill="#9E211B"/>
<path d="M60.1578 30.219C60.0383 30.2192 59.9196 30.1997 59.8064 30.1614L56.5786 29.0676C56.3038 28.9744 56.0773 28.7759 55.9489 28.5157C55.8205 28.2555 55.8007 27.9549 55.8939 27.6801C55.9871 27.4054 56.1857 27.1788 56.4459 27.0504C56.7061 26.922 57.0066 26.9023 57.2814 26.9955L60.5092 28.0892C60.7548 28.1725 60.9628 28.3402 61.0961 28.5626C61.2295 28.7849 61.2795 29.0474 61.2373 29.3033C61.1951 29.5591 61.0634 29.7916 60.8657 29.9593C60.668 30.127 60.4171 30.2191 60.1578 30.219Z" fill="#9E211B"/>
<path d="M48.1264 33.5C47.8796 33.5003 47.64 33.4172 47.4465 33.2641C47.253 33.1111 47.1169 32.8971 47.0604 32.6569C47.0038 32.4167 47.0301 32.1645 47.135 31.9412C47.24 31.7179 47.4173 31.5366 47.6382 31.4268L56.4416 27.0518C56.7012 26.9241 57.0008 26.9044 57.2749 26.9971C57.5489 27.0898 57.7751 27.2872 57.9039 27.5463C58.0327 27.8053 58.0537 28.1048 57.9622 28.3793C57.8707 28.6537 57.6742 28.8807 57.4158 29.0107L48.6124 33.3857C48.4614 33.4609 48.295 33.5001 48.1264 33.5Z" fill="#9E211B"/>
<path d="M26.2509 33.4999C26.1904 33.5002 26.13 33.4952 26.0704 33.4849L19.5079 32.3912C19.2218 32.3436 18.9663 32.1843 18.7977 31.9483C18.629 31.7124 18.561 31.419 18.6086 31.1329C18.6562 30.8468 18.8155 30.5913 19.0514 30.4227C19.2874 30.254 19.5807 30.186 19.8668 30.2336L26.4293 31.3273C26.7 31.3724 26.9438 31.5175 27.1124 31.7339C27.2811 31.9503 27.3622 32.2222 27.3398 32.4957C27.3173 32.7691 27.1929 33.0242 26.9912 33.2102C26.7895 33.3962 26.5253 33.4996 26.2509 33.4999Z" fill="#9E211B"/>
<path d="M19.685 32.4056C19.5155 32.4054 19.3484 32.3659 19.1968 32.2902L17.0093 31.1965C16.8805 31.1324 16.7656 31.0436 16.6711 30.9351C16.5767 30.8266 16.5045 30.7005 16.4589 30.5641C16.4132 30.4276 16.3949 30.2835 16.4051 30.14C16.4152 29.9965 16.4535 29.8564 16.5178 29.7277C16.5822 29.599 16.6713 29.4843 16.78 29.3901C16.8887 29.2959 17.015 29.2241 17.1515 29.1788C17.2881 29.1334 17.4322 29.1155 17.5757 29.1259C17.7192 29.1364 17.8592 29.1751 17.9878 29.2397L20.1753 30.3334C20.3958 30.4436 20.5726 30.6251 20.6771 30.8484C20.7815 31.0717 20.8075 31.3238 20.7507 31.5637C20.6939 31.8036 20.5578 32.0173 20.3643 32.1701C20.1709 32.3229 19.9315 32.4059 19.685 32.4056Z" fill="#9E211B"/>
<path d="M17.4993 31.3126C17.3261 31.3124 17.1554 31.2711 17.0012 31.192C16.8471 31.113 16.7139 30.9984 16.6126 30.8579C16.5114 30.7173 16.445 30.5547 16.4188 30.3835C16.3926 30.2122 16.4075 30.0372 16.4622 29.8728L17.5559 26.5916C17.6011 26.455 17.6728 26.3288 17.7669 26.22C17.8609 26.1112 17.9755 26.0221 18.1041 25.9577C18.2326 25.8932 18.3726 25.8548 18.5161 25.8446C18.6595 25.8343 18.8036 25.8525 18.94 25.898C19.0764 25.9435 19.2025 26.0155 19.311 26.1098C19.4196 26.2041 19.5084 26.319 19.5726 26.4477C19.6367 26.5764 19.6748 26.7165 19.6847 26.8599C19.6946 27.0034 19.6761 27.1474 19.6302 27.2837L18.5365 30.565C18.4639 30.7827 18.3247 30.972 18.1386 31.1062C17.9524 31.2404 17.7288 31.3126 17.4993 31.3126Z" fill="#9E211B"/>
<path d="M18.5941 28.0305C18.3148 28.031 18.046 27.9243 17.8432 27.7325L15.6557 25.6689C15.5504 25.5705 15.4655 25.4522 15.4061 25.3209C15.3466 25.1897 15.3137 25.0479 15.3091 24.9039C15.3046 24.7598 15.3286 24.6163 15.3797 24.4815C15.4308 24.3468 15.508 24.2234 15.6069 24.1186C15.7058 24.0138 15.8245 23.9295 15.9561 23.8707C16.0876 23.8119 16.2295 23.7796 16.3736 23.7758C16.5177 23.7719 16.6611 23.7966 16.7956 23.8484C16.9301 23.9001 17.053 23.9779 17.1574 24.0774L19.3449 26.141C19.5043 26.2913 19.6149 26.486 19.6623 26.6999C19.7097 26.9138 19.6919 27.137 19.6109 27.3406C19.53 27.5442 19.3898 27.7188 19.2085 27.8418C19.0272 27.9648 18.8131 28.0306 18.5941 28.0305Z" fill="#9E211B"/>
<path d="M10.9374 31.3123C10.7201 31.3123 10.5077 31.2475 10.3273 31.1262C10.1469 31.005 10.0068 30.8327 9.92471 30.6315C9.84265 30.4302 9.82241 30.2091 9.86657 29.9963C9.91073 29.7835 10.0173 29.5887 10.1727 29.4367L15.6414 24.0918C15.8494 23.8922 16.1278 23.7827 16.4161 23.7872C16.7043 23.7918 16.9791 23.91 17.1807 24.1161C17.3823 24.3222 17.4944 24.5995 17.4926 24.8878C17.4907 25.1761 17.3751 25.452 17.1709 25.6555L11.7022 31.0004C11.4981 31.2007 11.2234 31.3127 10.9374 31.3123Z" fill="#9E211B"/>
<path d="M6.56386 33.5009C6.31733 33.5012 6.07793 33.4182 5.88449 33.2654C5.69104 33.1126 5.5549 32.8989 5.49814 32.659C5.44138 32.4191 5.46733 32.1671 5.57178 31.9438C5.67623 31.7204 5.85306 31.539 6.07359 31.4288L10.4486 29.2413C10.708 29.1124 11.0079 29.0916 11.2826 29.1835C11.5573 29.2754 11.7843 29.4725 11.9139 29.7316C12.0434 29.9907 12.0649 30.2906 11.9736 30.5655C11.8824 30.8404 11.6858 31.0679 11.427 31.1981L7.05199 33.3856C6.9004 33.4613 6.73331 33.5008 6.56386 33.5009Z" fill="#9E211B"/>
<path d="M5.46888 37.8755C5.30275 37.8753 5.13883 37.8373 4.98955 37.7644C4.84027 37.6915 4.70953 37.5856 4.60723 37.4547C4.50493 37.3238 4.43376 37.1713 4.3991 37.0088C4.36444 36.8464 4.3672 36.6781 4.40717 36.5169L5.50092 32.1419C5.53537 32.0022 5.59704 31.8708 5.68239 31.755C5.76775 31.6392 5.8751 31.5415 5.99831 31.4673C6.12151 31.3931 6.25815 31.3439 6.40039 31.3226C6.54262 31.3013 6.68767 31.3083 6.8272 31.3431C6.96674 31.378 7.09803 31.44 7.21355 31.5257C7.32907 31.6114 7.42655 31.719 7.5004 31.8424C7.57425 31.9658 7.62303 32.1026 7.64393 32.2449C7.66483 32.3872 7.65745 32.5322 7.6222 32.6717L6.52845 37.0467C6.46967 37.2833 6.33343 37.4934 6.14142 37.6436C5.94941 37.7938 5.71266 37.8754 5.46888 37.8755Z" fill="#9E211B"/>
<path d="M6.56165 42.2505C6.31787 42.2504 6.08113 42.1688 5.88912 42.0186C5.6971 41.8684 5.56086 41.6583 5.50208 41.4217L4.40833 37.0467C4.37309 36.9072 4.3657 36.7622 4.38661 36.6199C4.40751 36.4776 4.45628 36.3408 4.53013 36.2174C4.60398 36.094 4.70146 35.9864 4.81698 35.9007C4.9325 35.815 5.06379 35.753 5.20333 35.7181C5.34287 35.6833 5.48791 35.6763 5.63015 35.6976C5.77239 35.7189 5.90902 35.7681 6.03223 35.8423C6.15543 35.9165 6.26279 36.0143 6.34814 36.13C6.43349 36.2458 6.49516 36.3772 6.52961 36.5169L7.62336 40.8919C7.66334 41.0531 7.66609 41.2214 7.63143 41.3838C7.59677 41.5463 7.5256 41.6988 7.4233 41.8297C7.32101 41.9606 7.19027 42.0665 7.04098 42.1394C6.8917 42.2123 6.72779 42.2503 6.56165 42.2505Z" fill="#9E211B"/>
<path d="M3.28079 43.3442C3.02119 43.3441 2.77008 43.2517 2.57238 43.0835C2.37467 42.9152 2.24326 42.6821 2.20165 42.4259C2.16003 42.1697 2.21092 41.907 2.34523 41.6848C2.47953 41.4627 2.68848 41.2955 2.93471 41.2133L6.21596 40.1196C6.35226 40.0737 6.49627 40.0552 6.63973 40.0651C6.78319 40.075 6.92329 40.1131 7.05201 40.1772C7.18073 40.2413 7.29553 40.3302 7.38985 40.4387C7.48417 40.5473 7.55615 40.6734 7.60167 40.8098C7.64718 40.9462 7.66534 41.0902 7.65511 41.2337C7.64487 41.3771 7.60644 41.5171 7.54202 41.6457C7.47759 41.7743 7.38844 41.8888 7.27967 41.9829C7.17089 42.077 7.04463 42.1486 6.90811 42.1938L3.62686 43.2876C3.51531 43.325 3.39844 43.3441 3.28079 43.3442Z" fill="#9E211B"/>
<path d="M3.28189 43.3447C3.11245 43.3445 2.94536 43.305 2.79376 43.2293L0.606264 42.1356C0.347488 42.0054 0.150903 41.7779 0.0596301 41.503C-0.0316426 41.2281 -0.0101499 40.9282 0.119394 40.6691C0.248937 40.41 0.475953 40.2129 0.750646 40.121C1.02534 40.0291 1.32528 40.0499 1.58467 40.1788L3.77217 41.2725C3.99269 41.3827 4.16952 41.5642 4.27398 41.7875C4.37843 42.0108 4.40438 42.2629 4.34762 42.5028C4.29086 42.7427 4.15471 42.9564 3.96127 43.1092C3.76782 43.262 3.52842 43.345 3.28189 43.3447Z" fill="#9E211B"/>
<path d="M5.46983 51.1058C5.28826 51.106 5.10948 51.0611 4.94965 50.9749C4.78983 50.8888 4.654 50.7641 4.55445 50.6123L0.179446 43.944C0.100616 43.824 0.0462068 43.6896 0.0193255 43.5485C-0.00755582 43.4074 -0.00638297 43.2623 0.0227771 43.1217C0.0519371 42.9811 0.108513 42.8475 0.189275 42.7288C0.270038 42.61 0.373404 42.5083 0.493473 42.4294C0.613542 42.3506 0.747961 42.2962 0.889058 42.2693C1.03015 42.2424 1.17516 42.2436 1.31581 42.2728C1.45645 42.3019 1.58997 42.3585 1.70875 42.4393C1.82753 42.52 1.92923 42.6234 2.00806 42.7435L6.38307 49.4117C6.49131 49.5766 6.55296 49.7677 6.56149 49.9647C6.57002 50.1617 6.52511 50.3574 6.43151 50.531C6.33792 50.7046 6.19913 50.8497 6.02982 50.9509C5.86052 51.0521 5.66706 51.1056 5.46983 51.1058Z" fill="#9E211B"/>
<path d="M1.09375 44.4375C0.950094 44.4376 0.80783 44.4093 0.675093 44.3544C0.542356 44.2995 0.42175 44.2189 0.320169 44.1173C0.218589 44.0158 0.138027 43.8951 0.08309 43.7624C0.028153 43.6297 -8.17763e-05 43.4874 1.77899e-07 43.3438V41.1562C1.77899e-07 40.8662 0.115234 40.588 0.320352 40.3829C0.52547 40.1777 0.80367 40.0625 1.09375 40.0625C1.38383 40.0625 1.66203 40.1777 1.86715 40.3829C2.07227 40.588 2.1875 40.8662 2.1875 41.1562V43.3438C2.18758 43.4874 2.15935 43.6297 2.10441 43.7624C2.04947 43.8951 1.96891 44.0158 1.86733 44.1173C1.76575 44.2189 1.64514 44.2995 1.51241 44.3544C1.37967 44.4093 1.23741 44.4376 1.09375 44.4375Z" fill="#9E211B"/>
<path d="M5.64467 51.0001C5.43225 51.0001 5.22442 50.9383 5.04656 50.8222C4.86869 50.706 4.7285 50.5406 4.64309 50.3461C4.55768 50.1516 4.53075 49.9365 4.5656 49.7269C4.60044 49.5174 4.69555 49.3225 4.83931 49.1661L6.85057 46.9786C6.94778 46.8729 7.06486 46.7873 7.19514 46.7268C7.32542 46.6663 7.46634 46.632 7.60986 46.626C7.75338 46.6199 7.89669 46.6422 8.0316 46.6915C8.16651 46.7409 8.29038 46.8163 8.39614 46.9135C8.5019 47.0107 8.58748 47.1278 8.64799 47.2581C8.70851 47.3883 8.74276 47.5293 8.74882 47.6728C8.75487 47.8163 8.73259 47.9596 8.68326 48.0945C8.63392 48.2294 8.5585 48.3533 8.46129 48.4591L6.45003 50.6466C6.34771 50.7582 6.22325 50.8473 6.08459 50.9081C5.94592 50.969 5.7961 51.0003 5.64467 51.0001Z" fill="#9E211B"/>
<path d="M7.65761 48.8134C7.41108 48.8137 7.17168 48.7307 6.97824 48.5779C6.78479 48.4251 6.64865 48.2114 6.59189 47.9715C6.53513 47.7316 6.56108 47.4796 6.66553 47.2563C6.76998 47.0329 6.94681 46.8515 7.16734 46.7413L9.35484 45.6475C9.61423 45.5186 9.91417 45.4978 10.1889 45.5897C10.4636 45.6817 10.6906 45.8788 10.8201 46.1379C10.9497 46.397 10.9711 46.6969 10.8799 46.9718C10.7886 47.2467 10.592 47.4742 10.3332 47.6043L8.14574 48.6981C7.99415 48.7738 7.82706 48.8133 7.65761 48.8134Z" fill="#9E211B"/>
<path d="M9.84379 47.7185C9.64048 47.7187 9.44113 47.6623 9.26812 47.5555C9.0951 47.4487 8.95528 47.2958 8.86433 47.114L7.77058 44.9265C7.64165 44.6671 7.62087 44.3671 7.7128 44.0924C7.80472 43.8178 8.00185 43.5907 8.26093 43.4612C8.52001 43.3316 8.8199 43.3102 9.09481 43.4014C9.36972 43.4927 9.5972 43.6893 9.72736 43.9481L10.8211 46.1356C10.9045 46.3022 10.9439 46.4875 10.9356 46.6737C10.9273 46.8598 10.8715 47.0408 10.7736 47.1994C10.6757 47.358 10.5389 47.4889 10.3761 47.5798C10.2134 47.6706 10.0302 47.7184 9.84379 47.7185Z" fill="#9E211B"/>
<path d="M13.125 45.5312H8.75C8.45992 45.5312 8.18172 45.416 7.9766 45.2109C7.77148 45.0058 7.65625 44.7276 7.65625 44.4375C7.65625 44.1474 7.77148 43.8692 7.9766 43.6641C8.18172 43.459 8.45992 43.3438 8.75 43.3438H13.125C13.4151 43.3438 13.6933 43.459 13.8984 43.6641C14.1035 43.8692 14.2188 44.1474 14.2188 44.4375C14.2188 44.7276 14.1035 45.0058 13.8984 45.2109C13.6933 45.416 13.4151 45.5312 13.125 45.5312Z" fill="#9E211B"/>
<path d="M16.4069 48.8132C16.2633 48.8134 16.121 48.7851 15.9883 48.7301C15.8556 48.6751 15.7351 48.5944 15.6337 48.4927L12.3524 45.2115C12.1504 45.0058 12.0378 44.7286 12.0391 44.4402C12.0404 44.1519 12.1555 43.8758 12.3594 43.6719C12.5633 43.468 12.8394 43.3529 13.1277 43.3516C13.4161 43.3503 13.6932 43.4629 13.899 43.6649L17.1802 46.9462C17.3331 47.0991 17.4373 47.294 17.4795 47.5061C17.5216 47.7183 17.5 47.9381 17.4172 48.138C17.3344 48.3378 17.1943 48.5086 17.0145 48.6288C16.8346 48.749 16.6232 48.8131 16.4069 48.8132Z" fill="#9E211B"/>
<path d="M16.406 48.8132C16.1897 48.8131 15.9783 48.749 15.7985 48.6288C15.6187 48.5086 15.4785 48.3378 15.3957 48.138C15.313 47.9381 15.2913 47.7183 15.3335 47.5061C15.3757 47.294 15.4798 47.0991 15.6327 46.9462L17.8202 44.7587C18.026 44.5566 18.3031 44.444 18.5915 44.4453C18.8798 44.4466 19.1559 44.5617 19.3598 44.7656C19.5637 44.9695 19.6788 45.2457 19.6801 45.534C19.6814 45.8223 19.5688 46.0995 19.3668 46.3052L17.1793 48.4927C17.0779 48.5944 16.9573 48.6751 16.8246 48.7301C16.6919 48.7851 16.5497 48.8134 16.406 48.8132Z" fill="#9E211B"/>
<path d="M22.9702 47.7194C22.8805 47.7194 22.7912 47.7083 22.7042 47.6863L18.3292 46.5926C18.0487 46.5217 17.8076 46.3424 17.659 46.094C17.5104 45.8457 17.4664 45.5486 17.5365 45.2678C17.6066 44.987 17.7852 44.7455 18.0331 44.5962C18.2811 44.4469 18.5781 44.402 18.859 44.4713L23.234 45.565C23.4928 45.6298 23.719 45.7868 23.8701 46.0067C24.0211 46.2266 24.0866 46.4941 24.0542 46.7588C24.0217 47.0236 23.8937 47.2674 23.694 47.4443C23.4944 47.6212 23.237 47.7191 22.9702 47.7194Z" fill="#9E211B"/>
<path d="M24.0625 49.906C23.8592 49.9062 23.6599 49.8498 23.4869 49.743C23.3139 49.6362 23.174 49.4833 23.0831 49.3015L21.9893 47.114C21.8604 46.8546 21.8396 46.5546 21.9315 46.2799C22.0235 46.0053 22.2206 45.7782 22.4797 45.6487C22.7388 45.5191 23.0387 45.4977 23.3136 45.5889C23.5885 45.6802 23.816 45.8768 23.9461 46.1356L25.0399 48.3231C25.1232 48.4897 25.1627 48.675 25.1543 48.8612C25.146 49.0473 25.0903 49.2283 24.9924 49.3869C24.8944 49.5455 24.7576 49.6764 24.5949 49.7673C24.4322 49.8581 24.2489 49.9059 24.0625 49.906Z" fill="#9E211B"/>
<path d="M26.25 49.9062H24.0625C23.7724 49.9062 23.4942 49.791 23.2891 49.5859C23.084 49.3808 22.9688 49.1026 22.9688 48.8125C22.9688 48.5224 23.084 48.2442 23.2891 48.0391C23.4942 47.834 23.7724 47.7188 24.0625 47.7188H26.25C26.5401 47.7188 26.8183 47.834 27.0234 48.0391C27.2285 48.2442 27.3438 48.5224 27.3438 48.8125C27.3438 49.1026 27.2285 49.3808 27.0234 49.5859C26.8183 49.791 26.5401 49.9062 26.25 49.9062Z" fill="#9E211B"/>
<path d="M27.3442 53.1876C27.1147 53.1876 26.8911 53.1154 26.7049 52.9812C26.5188 52.847 26.3796 52.6577 26.307 52.44L25.2133 49.1587C25.1675 49.0224 25.1489 48.8784 25.1588 48.735C25.1687 48.5915 25.2068 48.4514 25.2709 48.3227C25.3351 48.1939 25.4239 48.0791 25.5325 47.9848C25.641 47.8905 25.7671 47.8185 25.9035 47.773C26.0399 47.7275 26.184 47.7093 26.3274 47.7196C26.4709 47.7298 26.6109 47.7682 26.7394 47.8327C26.868 47.8971 26.9826 47.9862 27.0767 48.095C27.1707 48.2038 27.2424 48.33 27.2876 48.4666L28.3813 51.7478C28.436 51.9122 28.4509 52.0872 28.4247 52.2585C28.3986 52.4297 28.3321 52.5923 28.2309 52.7329C28.1296 52.8734 27.9964 52.988 27.8423 53.067C27.6881 53.1461 27.5174 53.1874 27.3442 53.1876Z" fill="#9E211B"/>
<path d="M30.6234 55.3753C30.4078 55.3751 30.1971 55.3112 30.0178 55.1916L26.7365 53.0041C26.4981 52.8419 26.3333 52.5922 26.2781 52.3092C26.2228 52.0262 26.2816 51.7328 26.4415 51.4929C26.6015 51.253 26.8497 51.0859 27.1322 51.0281C27.4147 50.9703 27.7086 51.0263 27.9499 51.1841L31.2312 53.3716C31.4266 53.5018 31.5748 53.6915 31.654 53.9126C31.7332 54.1336 31.7392 54.3743 31.6711 54.599C31.6029 54.8237 31.4642 55.0206 31.2756 55.1604C31.0869 55.3002 30.8582 55.3755 30.6234 55.3753Z" fill="#9E211B"/>
<path d="M30.6245 55.3757C30.3649 55.3757 30.1138 55.2832 29.9161 55.115C29.7184 54.9468 29.587 54.7137 29.5454 54.4574C29.5038 54.2012 29.5547 53.9385 29.689 53.7164C29.8233 53.4942 30.0322 53.3271 30.2785 53.2448L33.5597 52.1511C33.8346 52.0601 34.1343 52.0819 34.3931 52.2116C34.652 52.3413 34.8488 52.5684 34.9404 52.843C35.0321 53.1176 35.0111 53.4174 34.882 53.6765C34.7529 53.9357 34.5263 54.1331 34.2519 54.2254L30.9706 55.3191C30.8591 55.3565 30.7422 55.3756 30.6245 55.3757Z" fill="#9E211B"/>
<path d="M36.0912 55.3743C35.9218 55.3742 35.7547 55.3347 35.6031 55.259L33.4156 54.1652C33.2868 54.1012 33.1718 54.0124 33.0774 53.9039C32.9829 53.7953 32.9108 53.6693 32.8651 53.5328C32.8195 53.3964 32.8012 53.2523 32.8113 53.1088C32.8214 52.9653 32.8597 52.8252 32.9241 52.6965C32.9884 52.5678 33.0775 52.4531 33.1863 52.3589C33.295 52.2647 33.4213 52.1929 33.5578 52.1475C33.6943 52.1022 33.8385 52.0842 33.982 52.0947C34.1255 52.1051 34.2655 52.1438 34.394 52.2084L36.5815 53.3022C36.802 53.4124 36.9789 53.5939 37.0833 53.8172C37.1878 54.0405 37.2137 54.2925 37.157 54.5324C37.1002 54.7723 36.964 54.986 36.7706 55.1388C36.5772 55.2917 36.3378 55.3746 36.0912 55.3743Z" fill="#9E211B"/>
<path d="M36.0935 55.3757C35.8772 55.3756 35.6658 55.3115 35.486 55.1913C35.3062 55.0711 35.166 54.9003 35.0832 54.7005C35.0005 54.5006 34.9788 54.2808 35.021 54.0686C35.0632 53.8565 35.1673 53.6616 35.3202 53.5087L36.414 52.4149C36.6197 52.2129 36.8969 52.1003 37.1852 52.1016C37.4735 52.1029 37.7497 52.218 37.9536 52.4219C38.1575 52.6258 38.2726 52.9019 38.2739 53.1902C38.2752 53.4786 38.1626 53.7558 37.9605 53.9615L36.8668 55.0552C36.7654 55.1569 36.6448 55.2376 36.5121 55.2926C36.3794 55.3476 36.2372 55.3759 36.0935 55.3757Z" fill="#9E211B"/>
<path d="M43.7482 56.4692C43.6305 56.4691 43.5137 56.45 43.4021 56.4126L36.8396 54.2251C36.7031 54.1799 36.5768 54.1082 36.4681 54.0141C36.3593 53.9201 36.2701 53.8055 36.2057 53.6769C36.1413 53.5484 36.1029 53.4084 36.0926 53.2649C36.0824 53.1215 36.1005 52.9774 36.1461 52.841C36.1916 52.7046 36.2636 52.5785 36.3579 52.47C36.4522 52.3614 36.567 52.2726 36.6957 52.2084C36.8244 52.1443 36.9645 52.1062 37.108 52.0963C37.2515 52.0864 37.3955 52.105 37.5318 52.1508L44.0943 54.3383C44.3405 54.4205 44.5494 54.5877 44.6837 54.8098C44.8181 55.032 44.8689 55.2947 44.8273 55.5509C44.7857 55.8071 44.6543 56.0402 44.4566 56.2085C44.2589 56.3767 44.0078 56.4691 43.7482 56.4692Z" fill="#9E211B"/>
<path d="M43.7514 56.4697C43.5048 56.47 43.2654 56.387 43.072 56.2342C42.8785 56.0814 42.7424 55.8677 42.6856 55.6278C42.6289 55.3879 42.6548 55.1358 42.7593 54.9125C42.8637 54.6892 43.0406 54.5077 43.2611 54.3975L45.4486 53.3038C45.708 53.1749 46.0079 53.1541 46.2826 53.246C46.5573 53.3379 46.7843 53.535 46.9139 53.7941C47.0434 54.0532 47.0649 54.3531 46.9736 54.628C46.8824 54.9029 46.6858 55.1304 46.427 55.2606L44.2395 56.3543C44.0879 56.43 43.9208 56.4695 43.7514 56.4697Z" fill="#9E211B"/>
<path d="M48.125 55.375H45.9375C45.6474 55.375 45.3692 55.2598 45.1641 55.0546C44.959 54.8495 44.8438 54.5713 44.8438 54.2812C44.8438 53.9912 44.959 53.713 45.1641 53.5079C45.3692 53.3027 45.6474 53.1875 45.9375 53.1875H48.125C48.4151 53.1875 48.6933 53.3027 48.8984 53.5079C49.1035 53.713 49.2188 53.9912 49.2188 54.2812C49.2188 54.5713 49.1035 54.8495 48.8984 55.0546C48.6933 55.2598 48.4151 55.375 48.125 55.375Z" fill="#9E211B"/>
<path d="M48.1243 55.3751C47.9511 55.3749 47.7804 55.3336 47.6262 55.2545C47.4721 55.1755 47.3389 55.0609 47.2376 54.9204C47.1364 54.7798 47.07 54.6172 47.0438 54.446C47.0176 54.2747 47.0325 54.0997 47.0872 53.9353L48.1809 50.6541C48.2261 50.5175 48.2978 50.3913 48.3919 50.2825C48.4859 50.1737 48.6005 50.0846 48.7291 50.0202C48.8576 49.9557 48.9976 49.9173 49.1411 49.9071C49.2845 49.8968 49.4286 49.915 49.565 49.9605C49.7014 50.006 49.8275 50.078 49.936 50.1723C50.0446 50.2666 50.1334 50.3814 50.1976 50.5102C50.2617 50.6389 50.2998 50.779 50.3097 50.9225C50.3196 51.0659 50.301 51.2099 50.2552 51.3462L49.1615 54.6275C49.0889 54.8452 48.9497 55.0345 48.7636 55.1687C48.5774 55.3029 48.3538 55.3751 48.1243 55.3751Z" fill="#9E211B"/>
<path d="M51.4062 52.0938H49.2188C48.9287 52.0938 48.6505 51.9785 48.4454 51.7734C48.2402 51.5683 48.125 51.2901 48.125 51C48.125 50.7099 48.2402 50.4317 48.4454 50.2266C48.6505 50.0215 48.9287 49.9062 49.2188 49.9062H51.4062C51.6963 49.9062 51.9745 50.0215 52.1796 50.2266C52.3848 50.4317 52.5 50.7099 52.5 51C52.5 51.2901 52.3848 51.5683 52.1796 51.7734C51.9745 51.9785 51.6963 52.0938 51.4062 52.0938Z" fill="#9E211B"/>
<path d="M53.5944 54.2819C53.4508 54.2821 53.3085 54.2539 53.1758 54.1989C53.0431 54.1439 52.9226 54.0632 52.8212 53.9615L50.6337 51.774C50.4316 51.5683 50.319 51.2911 50.3203 51.0027C50.3216 50.7144 50.4367 50.4383 50.6406 50.2344C50.8445 50.0305 51.1207 49.9154 51.409 49.9141C51.6973 49.9128 51.9745 50.0254 52.1802 50.2274L54.3677 52.4149C54.5206 52.5679 54.6248 52.7627 54.667 52.9749C54.7091 53.187 54.6875 53.4069 54.6047 53.6067C54.5219 53.8065 54.3818 53.9773 54.202 54.0975C54.0221 54.2177 53.8107 54.2819 53.5944 54.2819Z" fill="#9E211B"/>
<path d="M55.7819 55.3759C55.6124 55.3758 55.4454 55.3363 55.2938 55.2606L53.1063 54.1668C52.8475 54.0367 52.6509 53.8092 52.5596 53.5343C52.4684 53.2594 52.4898 52.9595 52.6194 52.7004C52.7489 52.4413 52.976 52.2442 53.2506 52.1522C53.5253 52.0603 53.8253 52.0811 54.0847 52.21L56.2722 53.3038C56.4927 53.414 56.6695 53.5954 56.774 53.8188C56.8784 54.0421 56.9044 54.2941 56.8476 54.534C56.7909 54.7739 56.6547 54.9876 56.4613 55.1404C56.2678 55.2932 56.0284 55.3762 55.7819 55.3759Z" fill="#9E211B"/>
<path d="M55.7826 55.3759C55.5361 55.3762 55.2967 55.2932 55.1032 55.1404C54.9098 54.9876 54.7736 54.7739 54.7169 54.534C54.6601 54.2941 54.6861 54.0421 54.7905 53.8188C54.895 53.5954 55.0718 53.414 55.2923 53.3038L57.4798 52.21C57.7392 52.0811 58.0392 52.0603 58.3139 52.1522C58.5886 52.2442 58.8156 52.4413 58.9451 52.7004C59.0747 52.9595 59.0961 53.2594 59.0049 53.5343C58.9136 53.8092 58.717 54.0367 58.4582 54.1668L56.2707 55.2606C56.1191 55.3363 55.9521 55.3758 55.7826 55.3759Z" fill="#9E211B"/>
<path d="M57.9688 56.4688C57.8251 56.4688 57.6828 56.4406 57.5501 56.3857C57.4174 56.3307 57.2967 56.2502 57.1952 56.1486C57.0936 56.047 57.013 55.9264 56.9581 55.7937C56.9032 55.6609 56.8749 55.5187 56.875 55.375V53.1875C56.875 52.8974 56.9902 52.6192 57.1954 52.4141C57.4005 52.209 57.6787 52.0938 57.9688 52.0938C58.2588 52.0938 58.537 52.209 58.7421 52.4141C58.9473 52.6192 59.0625 52.8974 59.0625 53.1875V55.375C59.0626 55.5187 59.0343 55.6609 58.9794 55.7937C58.9245 55.9264 58.8439 56.047 58.7423 56.1486C58.6408 56.2502 58.5201 56.3307 58.3874 56.3857C58.2547 56.4406 58.1124 56.4688 57.9688 56.4688Z" fill="#9E211B"/>
<path d="M56.8736 58.7093C56.7077 58.7096 56.544 58.6716 56.3951 58.5983C56.1345 58.4711 55.9351 58.2455 55.8407 57.9713C55.7464 57.6971 55.7648 57.3966 55.892 57.136L56.9857 54.8951C57.0487 54.7661 57.1365 54.6507 57.2441 54.5556C57.3516 54.4604 57.4769 54.3874 57.6127 54.3407C57.7485 54.294 57.8921 54.2745 58.0355 54.2833C58.1788 54.2921 58.319 54.3291 58.448 54.392C58.5771 54.455 58.6924 54.5428 58.7876 54.6504C58.8827 54.758 58.9557 54.8832 59.0024 55.019C59.0491 55.1548 59.0686 55.2984 59.0598 55.4418C59.051 55.5851 59.0141 55.7253 58.9511 55.8543L57.8573 58.0952C57.7675 58.2796 57.6276 58.4349 57.4537 58.5436C57.2797 58.6522 57.0787 58.7096 56.8736 58.7093Z" fill="#9E211B"/>
<path d="M61.2486 60.8428C61.0827 60.8428 60.919 60.8048 60.7701 60.7317L56.3951 58.5976C56.2661 58.5346 56.1507 58.4469 56.0556 58.3393C55.9604 58.2317 55.8874 58.1065 55.8407 57.9707C55.794 57.8349 55.7745 57.6912 55.7833 57.5479C55.7921 57.4046 55.8291 57.2644 55.892 57.1353C55.955 57.0063 56.0428 56.8909 56.1504 56.7958C56.258 56.7007 56.3832 56.6277 56.519 56.581C56.6548 56.5342 56.7984 56.5147 56.9418 56.5235C57.0851 56.5323 57.2253 56.5693 57.3543 56.6323L61.7293 58.7664C61.9516 58.8749 62.1305 59.0555 62.2368 59.2788C62.3432 59.5021 62.3707 59.7549 62.315 59.9958C62.2592 60.2368 62.1234 60.4517 61.9297 60.6055C61.736 60.7593 61.4959 60.843 61.2486 60.8428Z" fill="#9E211B"/>
<path d="M61.25 60.7733C61.1063 60.7733 60.9641 60.7451 60.8313 60.6902C60.6986 60.6352 60.578 60.5547 60.4764 60.4531C60.3748 60.3515 60.2943 60.2309 60.2393 60.0982C60.1844 59.9654 60.1562 59.8232 60.1563 59.6795V51C60.1563 50.7099 60.2715 50.4317 60.4766 50.2266C60.6817 50.0215 60.9599 49.9062 61.25 49.9062C61.5401 49.9062 61.8183 50.0215 62.0234 50.2266C62.2285 50.4317 62.3438 50.7099 62.3438 51V59.6795C62.3438 59.8232 62.3156 59.9654 62.2607 60.0982C62.2057 60.2309 62.1252 60.3515 62.0236 60.4531C61.922 60.5547 61.8014 60.6352 61.6687 60.6902C61.5359 60.7451 61.3937 60.7733 61.25 60.7733Z" fill="#9E211B"/>
<path d="M61.2524 52.0943C61.049 52.0945 60.8497 52.038 60.6767 51.9312C60.5037 51.8244 60.3638 51.6715 60.2729 51.4897L58.0854 47.1147C58.0208 46.9862 57.9821 46.8462 57.9716 46.7027C57.9612 46.5592 57.9791 46.415 58.0245 46.2785C58.0698 46.142 58.1416 46.0157 58.2358 45.907C58.33 45.7982 58.4447 45.7091 58.5734 45.6448C58.7021 45.5804 58.8422 45.5421 58.9857 45.532C59.1292 45.5219 59.2733 45.5402 59.4098 45.5858C59.5462 45.6315 59.6723 45.7036 59.7808 45.7981C59.8893 45.8925 59.9781 46.0075 60.0422 46.1363L62.2297 50.5113C62.3131 50.678 62.3525 50.8632 62.3442 51.0494C62.3358 51.2356 62.2801 51.4166 62.1822 51.5751C62.0843 51.7337 61.9474 51.8647 61.7847 51.9555C61.622 52.0464 61.4387 52.0941 61.2524 52.0943Z" fill="#9E211B"/>
<path d="M59.0625 47.7188H56.875C56.5849 47.7188 56.3067 47.6035 56.1016 47.3984C55.8965 47.1933 55.7812 46.9151 55.7812 46.625C55.7812 46.3349 55.8965 46.0567 56.1016 45.8516C56.3067 45.6465 56.5849 45.5312 56.875 45.5312H59.0625C59.3526 45.5312 59.6308 45.6465 59.8359 45.8516C60.041 46.0567 60.1562 46.3349 60.1562 46.625C60.1562 46.9151 60.041 47.1933 59.8359 47.3984C59.6308 47.6035 59.3526 47.7188 59.0625 47.7188Z" fill="#9E211B"/>
<path d="M56.8751 47.7191C56.709 47.7189 56.5451 47.681 56.3958 47.608C56.2465 47.5351 56.1158 47.4292 56.0135 47.2983C55.9112 47.1674 55.84 47.0149 55.8054 46.8525C55.7707 46.69 55.7734 46.5217 55.8134 46.3605L56.9072 41.9855C56.9781 41.7049 57.1574 41.4639 57.4057 41.3153C57.654 41.1667 57.9512 41.1226 58.232 41.1927C58.5127 41.2629 58.7543 41.4415 58.9036 41.6894C59.0529 41.9373 59.0978 42.2343 59.0285 42.5153L57.9347 46.8903C57.8759 47.1269 57.7397 47.337 57.5477 47.4872C57.3557 47.6374 57.1189 47.719 56.8751 47.7191Z" fill="#9E211B"/>
<path d="M57.9701 43.3447C57.7236 43.345 57.4842 43.262 57.2907 43.1092C57.0973 42.9564 56.9611 42.7427 56.9044 42.5028C56.8476 42.2629 56.8736 42.0108 56.978 41.7875C57.0825 41.5642 57.2593 41.3827 57.4798 41.2725L61.8548 39.085C62.1142 38.9561 62.4142 38.9353 62.6889 39.0272C62.9636 39.1192 63.1906 39.3163 63.3201 39.5754C63.4497 39.8345 63.4711 40.1344 63.3799 40.4093C63.2886 40.6842 63.092 40.9117 62.8332 41.0418L58.4582 43.2293C58.3066 43.305 58.1396 43.3445 57.9701 43.3447Z" fill="#9E211B"/>
<path d="M62.3431 41.1564C62.1698 41.1562 61.9991 41.1148 61.845 41.0358C61.6908 40.9567 61.5576 40.8422 61.4564 40.7016C61.3551 40.5611 61.2887 40.3985 61.2625 40.2272C61.2364 40.056 61.2513 39.881 61.3059 39.7166L62.3997 36.4353C62.4449 36.2988 62.5165 36.1725 62.6106 36.0638C62.7047 35.955 62.8193 35.8658 62.9478 35.8014C63.0764 35.737 63.2164 35.6986 63.3598 35.6883C63.5033 35.6781 63.6473 35.6962 63.7837 35.7418C63.9201 35.7873 64.0462 35.8593 64.1548 35.9536C64.2633 36.0479 64.3522 36.1627 64.4163 36.2914C64.4804 36.4201 64.5185 36.5602 64.5284 36.7037C64.5383 36.8472 64.5198 36.9912 64.474 37.1275L63.3802 40.4087C63.3077 40.6264 63.1685 40.8158 62.9823 40.95C62.7962 41.0842 62.5725 41.1564 62.3431 41.1564Z" fill="#9E211B"/>
<path d="M67.8132 45.5319C67.6695 45.5321 67.5273 45.5039 67.3946 45.4489C67.2619 45.3939 67.1413 45.3132 67.0399 45.2115L63.7587 41.9302C63.5566 41.7245 63.444 41.4473 63.4453 41.159C63.4466 40.8707 63.5617 40.5945 63.7656 40.3906C63.9695 40.1867 64.2457 40.0716 64.534 40.0703C64.8223 40.069 65.0995 40.1816 65.3052 40.3837L68.5865 43.6649C68.7394 43.8179 68.8435 44.0127 68.8857 44.2249C68.9279 44.437 68.9062 44.6569 68.8235 44.8567C68.7407 45.0565 68.6005 45.2273 68.4207 45.3475C68.2409 45.4677 68.0295 45.5319 67.8132 45.5319Z" fill="#9E211B"/>
<path d="M64.5289 42.2504C64.2851 42.2503 64.0484 42.1686 63.8564 42.0184C63.6644 41.8682 63.5281 41.6581 63.4693 41.4215L62.3756 37.0465C62.3063 36.7656 62.3512 36.4686 62.5005 36.2206C62.6498 35.9727 62.8913 35.7941 63.1721 35.724C63.4529 35.6539 63.75 35.6979 63.9983 35.8465C64.2467 35.9951 64.426 36.2362 64.4969 36.5167L65.5906 40.8917C65.6306 41.053 65.6333 41.2212 65.5987 41.3837C65.564 41.5462 65.4929 41.6987 65.3906 41.8296C65.2883 41.9605 65.1575 42.0664 65.0082 42.1393C64.859 42.2122 64.695 42.2502 64.5289 42.2504Z" fill="#9E211B"/>
<path d="M37.1875 47.7188C36.9315 47.719 36.6836 47.6294 36.4868 47.4656C35.9357 47.0053 22.9688 36.0571 22.9688 23.6562C22.9687 19.8852 24.4668 16.2686 27.1333 13.6021C29.7999 10.9355 33.4165 9.4375 37.1875 9.4375C40.9585 9.4375 44.5751 10.9355 47.2417 13.6021C49.9082 16.2686 51.4062 19.8852 51.4062 23.6562C51.4062 36.0571 38.4393 47.0053 37.8882 47.4656C37.6914 47.6294 37.4435 47.719 37.1875 47.7188ZM37.1875 11.625C33.9977 11.6286 30.9396 12.8973 28.6841 15.1529C26.4286 17.4084 25.1599 20.4665 25.1562 23.6562C25.1562 33.4712 34.5194 42.7264 37.1875 45.1638C39.8546 42.7242 49.2188 33.4573 49.2188 23.6562C49.2151 20.4665 47.9464 17.4084 45.6909 15.1529C43.4354 12.8973 40.3773 11.6286 37.1875 11.625Z" fill="#9E211B"/>
<path d="M37.1875 31.3125C35.6732 31.3125 34.193 30.8635 32.9339 30.0222C31.6749 29.1809 30.6935 27.9852 30.1141 26.5862C29.5346 25.1872 29.3829 23.6478 29.6784 22.1626C29.9738 20.6774 30.703 19.3132 31.7737 18.2425C32.8445 17.1717 34.2087 16.4425 35.6938 16.1471C37.179 15.8517 38.7184 16.0033 40.1174 16.5828C41.5164 17.1623 42.7122 18.1436 43.5534 19.4027C44.3947 20.6617 44.8438 22.142 44.8438 23.6563C44.8413 25.6861 44.0339 27.632 42.5986 29.0673C41.1633 30.5026 39.2173 31.31 37.1875 31.3125ZM37.1875 18.1875C36.1059 18.1875 35.0486 18.5082 34.1492 19.1092C33.2499 19.7101 32.549 20.5642 32.135 21.5635C31.7211 22.5627 31.6128 23.6623 31.8238 24.7232C32.0348 25.784 32.5557 26.7584 33.3205 27.5232C34.0853 28.2881 35.0598 28.8089 36.1206 29.0199C37.1814 29.2309 38.281 29.1226 39.2803 28.7087C40.2796 28.2948 41.1337 27.5939 41.7346 26.6945C42.3355 25.7952 42.6563 24.7379 42.6563 23.6563C42.6546 22.2064 42.0778 20.8164 41.0526 19.7911C40.0274 18.7659 38.6374 18.1892 37.1875 18.1875Z" fill="#9E211B"/>
</g>
<defs>
<clipPath id="clip0_195_20897">
<rect width="70" height="70" fill="white" transform="translate(0 0.140625)"/>
</clipPath>
</defs>
</svg>
