<svg width="40" height="41" viewBox="0 0 40 41" fill="none" xmlns="http://www.w3.org/2000/svg">
<path d="M40 7.19847V0.139648H32.9412V2.49259H7.05882V0.139648H0V7.19847H2.35294V33.0808H0V40.1396H7.05882V37.7867H32.9412V40.1396H40V33.0808H37.6471V7.19847H40ZM35.2941 2.49259H37.6471V4.84553H35.2941V2.49259ZM2.35294 2.49259H4.70588V4.84553H2.35294V2.49259ZM4.70588 37.7867H2.35294V35.4338H4.70588V37.7867ZM37.6471 37.7867H35.2941V35.4338H37.6471V37.7867ZM35.2941 33.0808H32.9412V35.4338H7.05882V33.0808H4.70588V7.19847H7.05882V4.84553H32.9412V7.19847H35.2941V33.0808Z" fill="white"/>
<path d="M10.0156 18.4795L18.3333 10.1618L19.9968 11.8254L11.6792 20.143L10.0156 18.4795Z" fill="white"/>
<path d="M19.9961 28.4619L28.3138 20.1442L29.9773 21.8077L21.6596 30.1254L19.9961 28.4619Z" fill="white"/>
<path d="M12.5078 25.9658L25.816 12.6576L27.4796 14.3211L14.1713 27.6294L12.5078 25.9658Z" fill="white"/>
</svg>
