<svg width="26" height="23" viewBox="0 0 26 23" fill="none" xmlns="http://www.w3.org/2000/svg">
<path d="M1 21.5395C5.8 21.5395 5.8 19.9395 7.4 19.9395" stroke="black" stroke-miterlimit="10" stroke-linecap="round" stroke-linejoin="round"/>
<path d="M9.00039 21.5395C9.00039 20.6595 8.28039 19.9395 7.40039 19.9395" stroke="black" stroke-miterlimit="10" stroke-linecap="round" stroke-linejoin="round"/>
<path d="M9 21.5395C13.8 21.5395 13.8 19.9395 15.4 19.9395" stroke="black" stroke-miterlimit="10" stroke-linecap="round" stroke-linejoin="round"/>
<path d="M17.0004 21.5395C17.0004 20.6595 16.2804 19.9395 15.4004 19.9395" stroke="black" stroke-miterlimit="10" stroke-linecap="round" stroke-linejoin="round"/>
<path d="M17 21.5395C21.8 21.5395 21.8 19.9395 23.4 19.9395" stroke="black" stroke-miterlimit="10" stroke-linecap="round" stroke-linejoin="round"/>
<path d="M25.0004 21.5395C25.0004 20.6595 24.2804 19.9395 23.4004 19.9395" stroke="black" stroke-miterlimit="10" stroke-linecap="round" stroke-linejoin="round"/>
<path d="M1 15.1391C5.8 15.1391 5.8 13.5391 7.4 13.5391" stroke="black" stroke-miterlimit="10" stroke-linecap="round" stroke-linejoin="round"/>
<path d="M9.00039 15.1391C9.00039 14.2591 8.28039 13.5391 7.40039 13.5391" stroke="black" stroke-miterlimit="10" stroke-linecap="round" stroke-linejoin="round"/>
<path d="M17 15.1391C21.8 15.1391 21.8 13.5391 23.4 13.5391" stroke="black" stroke-miterlimit="10" stroke-linecap="round" stroke-linejoin="round"/>
<path d="M25.0004 15.1391C25.0004 14.2591 24.2804 13.5391 23.4004 13.5391" stroke="black" stroke-miterlimit="10" stroke-linecap="round" stroke-linejoin="round"/>
<path d="M9 15.1391C13.8 15.1391 13.8 13.5391 15.4 13.5391" stroke="black" stroke-miterlimit="10" stroke-linecap="round" stroke-linejoin="round"/>
<path d="M17.0004 15.1391C17.0004 14.2591 16.2804 13.5391 15.4004 13.5391" stroke="black" stroke-miterlimit="10" stroke-linecap="round" stroke-linejoin="round"/>
<path d="M1 8.73965C5.8 8.73965 5.8 7.13965 7.4 7.13965" stroke="black" stroke-miterlimit="10" stroke-linecap="round" stroke-linejoin="round"/>
<path d="M9.00039 8.73965C9.00039 7.85965 8.28039 7.13965 7.40039 7.13965" stroke="black" stroke-miterlimit="10" stroke-linecap="round" stroke-linejoin="round"/>
<path d="M17 8.73965C21.8 8.73965 21.8 7.13965 23.4 7.13965" stroke="black" stroke-miterlimit="10" stroke-linecap="round" stroke-linejoin="round"/>
<path d="M25.0004 8.73965C25.0004 7.85965 24.2804 7.13965 23.4004 7.13965" stroke="black" stroke-miterlimit="10" stroke-linecap="round" stroke-linejoin="round"/>
<path d="M9 8.73965C13.8 8.73965 13.8 7.13965 15.4 7.13965" stroke="black" stroke-miterlimit="10" stroke-linecap="round" stroke-linejoin="round"/>
<path d="M17.0004 8.73965C17.0004 7.85965 16.2804 7.13965 15.4004 7.13965" stroke="black" stroke-miterlimit="10" stroke-linecap="round" stroke-linejoin="round"/>
<path d="M1 2.33926C5.8 2.33926 5.8 0.739258 7.4 0.739258" stroke="black" stroke-miterlimit="10" stroke-linecap="round" stroke-linejoin="round"/>
<path d="M9.00039 2.33926C9.00039 1.45926 8.28039 0.739258 7.40039 0.739258" stroke="black" stroke-miterlimit="10" stroke-linecap="round" stroke-linejoin="round"/>
<path d="M17 2.33926C21.8 2.33926 21.8 0.739258 23.4 0.739258" stroke="black" stroke-miterlimit="10" stroke-linecap="round" stroke-linejoin="round"/>
<path d="M25.0004 2.33926C25.0004 1.45926 24.2804 0.739258 23.4004 0.739258" stroke="black" stroke-miterlimit="10" stroke-linecap="round" stroke-linejoin="round"/>
<path d="M9 2.33926C13.8 2.33926 13.8 0.739258 15.4 0.739258" stroke="black" stroke-miterlimit="10" stroke-linecap="round" stroke-linejoin="round"/>
<path d="M17.0004 2.33926C17.0004 1.45926 16.2804 0.739258 15.4004 0.739258" stroke="black" stroke-miterlimit="10" stroke-linecap="round" stroke-linejoin="round"/>
<path d="M1 2.33887V21.5389" stroke="black" stroke-miterlimit="10" stroke-linecap="round" stroke-linejoin="round"/>
<path d="M9 2.33887V21.5389" stroke="black" stroke-miterlimit="10" stroke-linecap="round" stroke-linejoin="round"/>
<path d="M17 2.33887V21.5389" stroke="black" stroke-miterlimit="10" stroke-linecap="round" stroke-linejoin="round"/>
<path d="M25 2.33887V21.5389" stroke="black" stroke-miterlimit="10" stroke-linecap="round" stroke-linejoin="round"/>
</svg>
