<svg width="24" height="25" viewBox="0 0 24 25" fill="none" xmlns="http://www.w3.org/2000/svg">
<path d="M18.7292 10.9545C18.7292 14.5594 15.577 17.814 13.5603 19.5273C12.5993 20.3438 11.2295 20.3438 10.2686 19.5273C8.25185 17.814 5.09961 14.5594 5.09961 10.9545C5.09961 9.14706 5.8176 7.41369 7.09562 6.13566C8.37365 4.85764 10.107 4.13965 11.9144 4.13965C13.7218 4.13965 15.4552 4.85764 16.7332 6.13566C18.0112 7.41369 18.7292 9.14706 18.7292 10.9545Z" stroke="black" stroke-width="1.5" stroke-linecap="round" stroke-linejoin="round"/>
<path d="M11.9144 13.2261C13.169 13.2261 14.186 12.209 14.186 10.9545C14.186 9.69989 13.169 8.68286 11.9144 8.68286C10.6598 8.68286 9.64282 9.69989 9.64282 10.9545C9.64282 12.209 10.6598 13.2261 11.9144 13.2261Z" stroke="black" stroke-width="1.5" stroke-linecap="round" stroke-linejoin="round"/>
</svg>
