<svg width="41" height="45" viewBox="0 0 41 45" fill="none" xmlns="http://www.w3.org/2000/svg">
<path d="M15.0141 7.68447C16.4635 7.68447 17.6384 6.49354 17.6384 5.02445C17.6384 3.55537 16.4635 2.36444 15.0141 2.36444C13.5648 2.36444 12.3899 3.55537 12.3899 5.02445C12.3899 6.49354 13.5648 7.68447 15.0141 7.68447Z" fill="#9E211B"/>
<path d="M25.4025 15.6648C26.4894 15.6648 27.3706 14.7717 27.3706 13.6699C27.3706 12.5681 26.4894 11.675 25.4025 11.675C24.3155 11.675 23.4344 12.5681 23.4344 13.6699C23.4344 14.7717 24.3155 15.6648 25.4025 15.6648Z" fill="#9E211B"/>
<path d="M14.4674 32.1799C15.1317 32.1799 15.6703 31.634 15.6703 30.9606C15.6703 30.2872 15.1317 29.7412 14.4674 29.7412C13.803 29.7412 13.2644 30.2872 13.2644 30.9606C13.2644 31.634 13.803 32.1799 14.4674 32.1799Z" fill="#9E211B"/>
<path d="M37.03 22.4998C40.1079 18.6117 41.2963 14.7401 39.8257 11.9368C38.2475 8.92772 33.9495 7.80445 28.5282 8.49559C26.5847 3.31913 23.5883 0 20.2267 0C18.6901 0 17.2306 0.695356 15.9124 1.94214C17.0438 2.28032 17.9111 3.23995 18.1308 4.43184C18.8054 4.14328 19.5066 3.9902 20.2267 3.9902C22.7152 3.9902 24.9836 5.80812 26.692 8.79153C24.6368 9.18848 22.4562 9.82471 20.2267 10.6964C17.9972 9.82436 15.8166 9.18848 13.7614 8.79153C13.8933 8.56104 14.029 8.33864 14.1672 8.12257C13.5118 7.93888 12.9417 7.54686 12.53 7.02147C12.3185 7.49443 12.1165 7.98568 11.9248 8.49594C6.50312 7.8048 2.20553 8.92842 0.627305 11.9372C-0.843298 14.7404 0.345058 18.612 3.42305 22.4998C0.345058 26.388 -0.843298 30.2596 0.627305 33.0632C2.20553 36.0719 6.50347 37.1952 11.9248 36.5041C13.8683 41.6809 16.8644 45 20.2263 45C23.5883 45 26.5844 41.6809 28.5278 36.5041C33.9495 37.1952 38.2471 36.0716 39.8253 33.0632C41.296 30.2596 40.1079 26.388 37.03 22.4998ZM12.9924 10.2966C14.7595 10.3958 16.6779 10.7449 18.6634 11.3435C17.5292 11.8386 16.387 12.3929 15.2469 13.0077C13.8738 13.7477 12.5706 14.5384 11.3454 15.3654C11.7509 13.501 12.3099 11.7925 12.9924 10.2966ZM4.10315 13.81C5.27137 11.5828 7.91992 10.4064 11.3204 10.278C10.7591 12.1149 10.3206 14.1359 10.0297 16.2895C7.99699 17.7752 6.21706 19.3566 4.74229 20.9589C3.36577 18.3414 3.05366 15.8112 4.10315 13.81ZM9.84219 27.0988C8.13794 25.6272 6.7267 24.0637 5.66957 22.5002C6.7267 20.937 8.13794 19.3732 9.84219 17.9019C9.69672 19.3866 9.62 20.9244 9.62 22.5002C9.62 24.076 9.69672 25.6141 9.84219 27.0988ZM4.10315 31.19C3.05366 29.1891 3.36577 26.6589 4.74229 24.0415C6.21671 25.6441 7.99699 27.2251 10.0293 28.7109C10.3202 30.8645 10.7591 32.8855 11.3201 34.7224C7.91992 34.5936 5.27137 33.4172 4.10315 31.19ZM11.3458 29.6353C11.8082 29.9474 12.2817 30.2543 12.766 30.5552C12.8459 30.2093 13.0257 29.9028 13.2729 29.6677C12.4942 29.1617 11.7523 28.6335 11.0514 28.0887C10.7615 26.3253 10.6042 24.4479 10.6042 22.5002C10.6042 20.5524 10.7611 18.6754 11.0514 16.912C12.4512 15.8243 14.0127 14.8027 15.7093 13.8881C17.2171 13.0756 18.7342 12.3999 20.227 11.8608C21.1369 12.1895 22.0559 12.5695 22.9762 12.9996C23.0658 12.6667 23.22 12.3609 23.4248 12.0966C22.8787 11.8323 22.3333 11.5803 21.79 11.3432C23.7758 10.7449 25.6942 10.3958 27.461 10.2963C28.1435 11.7922 28.7028 13.5007 29.1079 15.3647C28.675 15.0723 28.232 14.7851 27.7797 14.5022C27.6668 14.8326 27.4898 15.1328 27.262 15.3862C28.0112 15.8764 28.726 16.3863 29.4027 16.9116C29.6926 18.675 29.8495 20.5521 29.8495 22.4998C29.8495 24.4476 29.6926 26.3246 29.4027 28.0884C28.0029 29.1757 26.4413 30.1973 24.7447 31.1119C23.2373 31.9248 21.7198 32.6001 20.2274 33.1392C18.8873 32.6553 17.5274 32.0606 16.1728 31.3561C16.0971 31.6929 15.9273 31.993 15.6923 32.2267C16.6845 32.7475 17.6774 33.2261 18.6644 33.6568C16.679 34.2551 14.7605 34.6042 12.9938 34.7037C12.3099 33.2078 11.7509 31.499 11.3458 29.6353ZM20.2267 41.0098C17.7382 41.0098 15.4701 39.1919 13.7617 36.2085C15.8169 35.8115 17.9972 35.1756 20.2267 34.3036C22.4558 35.176 24.6364 35.8115 26.6916 36.2085C24.9832 39.1919 22.7152 41.0098 20.2267 41.0098ZM27.4606 34.7034C25.6935 34.6042 23.7751 34.2551 21.7896 33.6565C22.9238 33.1614 24.066 32.6071 25.2061 31.9923C26.5792 31.2523 27.8824 30.4616 29.1076 29.6346C28.7021 31.499 28.1428 33.2078 27.4606 34.7034ZM36.3499 31.19C35.1816 33.4172 32.5331 34.5936 29.1326 34.722C29.6939 32.8851 30.1324 30.8642 30.4233 28.7105C32.4557 27.2248 34.2359 25.6437 35.7104 24.0412C37.0872 26.6589 37.3997 29.1891 36.3499 31.19ZM30.6112 17.9015C32.3151 19.3732 33.7267 20.9367 34.7838 22.4998C33.7267 24.0633 32.3154 25.6272 30.6112 27.0985C30.7563 25.6134 30.8334 24.0756 30.8334 22.4998C30.8334 20.924 30.7563 19.3862 30.6112 17.9015ZM35.7107 20.9589C34.2363 19.3566 32.456 17.7756 30.4237 16.2895C30.1328 14.1359 29.6939 12.1149 29.1329 10.278C32.5331 10.4064 35.1816 11.5828 36.3502 13.81C37.3997 15.8112 37.0872 18.3414 35.7107 20.9589Z" fill="#9E211B"/>
</svg>
