<svg width="28" height="31" viewBox="0 0 28 31" fill="none" xmlns="http://www.w3.org/2000/svg">
<path d="M25.6308 15.6395C27.761 12.9878 28.5835 10.3473 27.566 8.43545C26.4737 6.38332 23.4987 5.61748 19.7464 6.08662C18.401 2.55844 16.3271 0.294922 14.0007 0.294922C12.8724 0.336531 11.8035 0.81096 11.0165 1.61953C11.4036 1.73447 11.7516 1.95375 12.0222 2.25329C12.2927 2.55283 12.4754 2.92104 12.5501 3.31749C13.0083 3.12007 13.5017 3.01705 14.0007 3.01461C15.7231 3.01461 17.2932 4.25454 18.4759 6.2906C16.9484 6.58915 15.4507 7.02356 14.0007 7.58863C12.5508 7.02345 11.0531 6.58903 9.52558 6.2906C9.61676 6.1336 9.71042 5.98154 9.80655 5.83443C9.35881 5.7101 8.96207 5.44716 8.67338 5.08343C8.52691 5.40608 8.38725 5.74131 8.25439 6.0891C4.50148 5.6181 1.52712 6.38393 0.433556 8.43606C-0.583271 10.3479 0.239226 12.9885 2.36943 15.6395C0.239226 18.2912 -0.583271 20.9318 0.433556 22.8442C1.52589 24.8964 4.50086 25.6622 8.25316 25.1931C9.59861 28.7237 11.6719 30.9872 13.9989 30.9872C16.3259 30.9872 18.3998 28.7237 19.7446 25.1931C23.4975 25.6647 26.4719 24.8982 27.5642 22.8442C28.5835 20.9318 27.7616 18.2912 25.6308 15.6395ZM8.99334 7.31728C10.3249 7.40273 11.6421 7.64231 12.9183 8.0312C12.1336 8.36869 11.3426 8.74697 10.5535 9.16605C9.60294 9.67105 8.70123 10.21 7.85336 10.7731C8.10828 9.58372 8.49047 8.42512 8.99334 7.31728ZM2.8404 9.71308C3.64928 8.19438 5.48241 7.39207 7.83603 7.30245C7.42669 8.64247 7.12781 10.0137 6.94236 11.4024C5.62132 12.3436 4.39492 13.4107 3.28042 14.5887C2.32982 12.8036 2.11383 11.0785 2.8404 9.71308ZM6.81301 18.7764C5.71712 17.8616 4.74606 16.8072 3.92468 15.6401C4.74606 14.4731 5.71712 13.4187 6.81301 12.5039C6.71213 13.5163 6.65953 14.5653 6.65953 15.6401C6.65953 16.715 6.71213 17.764 6.81301 18.7764ZM2.8404 21.5666C2.11383 20.2018 2.32982 18.476 3.2829 16.6916C4.39662 17.8689 5.62219 18.9354 6.94236 19.8761C7.12792 21.2647 7.4268 22.636 7.83603 23.976C5.48241 23.8876 3.65175 23.0853 2.8404 21.5666ZM7.85336 20.5065C8.17353 20.7196 8.50112 20.9287 8.83614 21.1339C8.89077 20.9021 9.01287 20.6915 9.18705 20.5288C8.64821 20.1835 8.13557 19.8246 7.64912 19.452C7.23645 16.9279 7.23645 14.3536 7.64912 11.8295C9.57763 10.3642 11.7194 9.20245 14.0001 8.38476C14.6301 8.60914 15.2657 8.86812 15.9032 9.16111C15.9638 8.93644 16.069 8.72623 16.2126 8.543C15.8347 8.36292 15.4576 8.1917 15.0813 8.02935C16.3576 7.64071 17.6747 7.40114 19.0063 7.31543C19.5093 8.42343 19.8915 9.58225 20.1462 10.7719C19.8467 10.5725 19.5402 10.3763 19.2266 10.1835C19.1493 10.4065 19.0274 10.6116 18.8683 10.7861C19.3869 11.1203 19.8807 11.4671 20.3499 11.8264C20.5576 13.0862 20.6611 14.3609 20.6593 15.6377C20.6611 16.9144 20.5576 18.1892 20.3499 19.449C19.3338 20.2235 18.2555 20.9132 17.1261 21.511C16.1191 22.0474 15.0741 22.5096 13.9995 22.8937C13.039 22.5515 12.102 22.1466 11.1947 21.6816C11.1433 21.9073 11.0279 22.1135 10.8624 22.2756C11.5493 22.6308 12.2351 22.9559 12.9195 23.251C11.6432 23.6396 10.3261 23.8792 8.99458 23.9649C8.49068 22.8567 8.10806 21.6968 7.85336 20.5065ZM14.0001 28.2638C12.2778 28.2638 10.7076 27.0239 9.52558 24.9878C11.0529 24.6894 12.5504 24.255 14.0001 23.6898C15.4498 24.2551 16.9473 24.6895 18.4746 24.9878C17.2926 27.0239 15.7194 28.2638 14.0001 28.2638ZM19.0069 23.963C17.6753 23.8776 16.3582 23.638 15.0819 23.2491C15.8667 22.9116 16.6576 22.5333 17.4467 22.1142C18.3973 21.6092 19.299 21.0703 20.1469 20.5072C19.892 21.6963 19.51 22.8547 19.0075 23.9624L19.0069 23.963ZM25.1598 21.5666C24.3509 23.0853 22.5178 23.8876 20.1642 23.9772C20.5735 22.6372 20.8724 21.266 21.0579 19.8773C22.378 18.9366 23.6036 17.8701 24.7173 16.6928C25.6704 18.476 25.8864 20.2018 25.1598 21.5666ZM21.1884 12.5039C22.2835 13.4188 23.2539 14.473 24.0749 15.6395C23.2542 16.8067 22.2838 17.8613 21.1884 18.7764C21.2887 17.7634 21.3419 16.715 21.3419 15.6401C21.3419 14.5653 21.2899 13.5163 21.1884 12.5039ZM24.7161 14.5887C23.6022 13.4116 22.3767 12.3451 21.0566 11.4042C20.8711 10.0156 20.5722 8.64435 20.163 7.3043C22.5147 7.39207 24.3497 8.19438 25.1586 9.71494C25.887 11.0785 25.6704 12.8036 24.7179 14.5887H24.7161Z" fill="#9E211B"/>
</svg>
