<svg width="158" height="40" fill="none" xmlns="http://www.w3.org/2000/svg"><path d="M59.644 26.483h-4.13V17.48c0-.32-.06-.543-.182-.667-.122-.123-.335-.185-.64-.185h-2.886c-.305 0-.519.062-.64.185-.122.124-.183.346-.183.667v9.002h-4.13V15.388c0-.543.174-.991.521-1.343.348-.352.978-.528 1.892-.528h8.004c.888 0 1.516.185 1.882.556.329.333.493.772.493 1.315v11.095zM75.194 20c0 1.185-.067 2.118-.2 2.797-.22 1.086-.631 1.916-1.234 2.49-.603.575-1.471.96-2.604 1.158-.707.124-1.706.186-2.997.186s-2.29-.062-2.997-.186c-1.133-.197-2-.583-2.604-1.157-.603-.575-1.014-1.405-1.233-2.491-.134-.68-.201-1.612-.201-2.797 0-1.198.067-2.136.2-2.816.22-1.086.634-1.914 1.243-2.482.61-.568 1.468-.95 2.577-1.148.718-.124 1.723-.185 3.015-.185 1.29 0 2.296.061 3.015.185 1.108.197 1.967.58 2.576 1.148.61.568 1.024 1.396 1.243 2.482.134.68.201 1.618.201 2.816zm-4.24 0c0-.68-.017-1.142-.054-1.39-.061-.382-.2-.74-.42-1.074-.269-.395-.591-.66-.969-.796-.292-.099-.743-.149-1.352-.149-.597 0-1.048.05-1.353.149-.39.136-.712.401-.968.796-.317.482-.475 1.303-.475 2.464 0 1.148.158 1.97.475 2.463.256.396.579.66.969.797.304.099.755.148 1.352.148.609 0 1.06-.05 1.352-.148.378-.136.7-.401.969-.797.316-.469.475-1.29.475-2.463zM90.562 26.483h-4.386l-3.088-8.576c-.098-.21-.165-.315-.201-.315-.025 0-.091.105-.201.315l-3.088 8.576h-4.386l4.916-11.78c.365-.89 1.285-1.334 2.759-1.334s2.394.445 2.759 1.334l4.916 11.78zM104.87 26.482h-4.203l.182-7.612c.013-.321-.048-.482-.182-.482-.073 0-.232.21-.475.63l-3.637 6.298c-.511.877-1.431 1.315-2.759 1.315-1.133 0-1.925-.327-2.375-.982-.317-.47-.475-1.18-.475-2.13V13.517h4.203l-.183 7.427v.204c0 .296.073.445.219.445.073 0 .195-.154.366-.463l3.527-6.242c.572-1.012 1.492-1.519 2.759-1.519 2.022 0 3.033 1.068 3.033 3.204v9.91zM118.885 16.74h-4.568v9.742h-4.13V16.74h-4.568v-3.223h13.266v3.223zM132.112 26.483h-4.349l-1.005-2.667h-4.605l-1.005 2.667h-4.349l4.733-11.54c.219-.543.512-.926.877-1.148.45-.284 1.133-.426 2.047-.426.743 0 1.309.08 1.699.241.548.235.956.68 1.224 1.334l4.733 11.539zm-6.341-5.631l-1.151-3.278c-.061-.186-.116-.278-.164-.278-.049 0-.104.092-.165.278l-1.151 3.278h2.631zM137.174 26.482h-4.13V13.517h4.13v12.965zm9.995 0h-4.97l-3.874-5.02c-.5-.641-.749-1.178-.749-1.61 0-.408.194-.89.584-1.445l3.436-4.89h4.897l-4.44 5.353c-.354.42-.53.74-.53.963 0 .284.225.673.675 1.167l4.971 5.482z" fill="#9E211B"/><path d="M158 26.483h-5.664c-1.073 0-1.919-.099-2.54-.297a3.858 3.858 0 0 1-1.828-1.296c-.779-.988-1.169-2.562-1.169-4.723 0-2.346.371-4.001 1.114-4.965.877-1.123 2.37-1.685 4.478-1.685h5.408v3.223h-3.417c-.853 0-1.438.043-1.754.13-.524.123-.914.42-1.17.889-.28.506-.42 1.284-.42 2.334 0 1.037.104 1.753.311 2.148.243.457.658.753 1.242.89.353.085.975.129 1.864.129H158v3.223zM13.346 6.83c1.288 0 2.332-1.058 2.332-2.364 0-1.306-1.044-2.364-2.332-2.364-1.288 0-2.333 1.058-2.333 2.364 0 1.306 1.045 2.364 2.333 2.364zM22.58 13.925c.966 0 1.75-.795 1.75-1.774 0-.98-.784-1.773-1.75-1.773s-1.75.794-1.75 1.773c0 .98.784 1.774 1.75 1.774zM12.86 28.604c.59 0 1.07-.485 1.07-1.084 0-.598-.48-1.084-1.07-1.084-.59 0-1.07.486-1.07 1.084 0 .599.48 1.084 1.07 1.084z" fill="#9E211B"/><path d="M32.916 20c2.736-3.456 3.792-6.898 2.485-9.39-1.403-2.674-5.224-3.673-10.043-3.058C23.631 2.95 20.968 0 17.98 0c-1.366 0-2.663.618-3.835 1.726a2.847 2.847 0 0 1 1.972 2.213 4.708 4.708 0 0 1 1.863-.392c2.212 0 4.229 1.616 5.747 4.268-1.827.353-3.765.918-5.747 1.693-1.981-.775-3.92-1.34-5.747-1.693.118-.205.238-.403.361-.595a2.82 2.82 0 0 1-1.455-.979 23.1 23.1 0 0 0-.538 1.31c-4.82-.613-8.64.385-10.042 3.06C-.75 13.103.307 16.544 3.043 20 .307 23.456-.75 26.897.558 29.39 1.96 32.064 5.78 33.062 10.6 32.448 12.327 37.05 14.99 40 17.979 40c2.988 0 5.652-2.95 7.38-7.552 4.818.614 8.639-.384 10.041-3.058 1.308-2.493.252-5.934-2.484-9.39zM11.549 9.153c1.57.088 3.276.398 5.04.93-1.007.44-2.023.933-3.036 1.48a40.807 40.807 0 0 0-3.468 2.095c.36-1.657.857-3.176 1.464-4.505zm-7.902 3.122c1.039-1.98 3.393-3.025 6.416-3.139a33.878 33.878 0 0 0-1.148 5.344c-1.807 1.32-3.389 2.726-4.7 4.15-1.223-2.326-1.5-4.576-.568-6.354zM8.75 24.088C7.234 22.78 5.979 21.39 5.039 20c.94-1.39 2.195-2.78 3.71-4.087A41.963 41.963 0 0 0 8.55 20c0 1.4.068 2.768.198 4.088zm-5.102 3.636c-.933-1.778-.655-4.027.568-6.354 1.311 1.425 2.893 2.83 4.7 4.15a33.91 33.91 0 0 0 1.147 5.344c-3.022-.114-5.376-1.16-6.415-3.14zm6.438-1.381c.411.277.832.55 1.263.817.07-.307.23-.58.45-.789-.692-.45-1.351-.919-1.975-1.403A30.704 30.704 0 0 1 9.426 20c0-1.731.14-3.4.397-4.967a29.817 29.817 0 0 1 4.14-2.688 29.892 29.892 0 0 1 4.017-1.802c.808.292 1.625.63 2.443 1.012.08-.296.217-.568.4-.803-.486-.234-.971-.458-1.454-.67 1.765-.531 3.47-.841 5.04-.93.608 1.33 1.105 2.849 1.465 4.506-.385-.26-.779-.516-1.18-.767-.101.293-.259.56-.461.786.666.435 1.301.889 1.903 1.356.257 1.567.397 3.236.397 4.967 0 1.731-.14 3.4-.397 4.967a29.841 29.841 0 0 1-4.14 2.688 29.845 29.845 0 0 1-4.016 1.802c-1.191-.43-2.4-.959-3.604-1.585a1.58 1.58 0 0 1-.427.774c.882.463 1.764.888 2.642 1.271-1.765.532-3.47.842-5.04.93-.609-1.329-1.106-2.848-1.466-4.505zm7.894 10.11c-2.212 0-4.228-1.616-5.746-4.268 1.826-.353 3.764-.918 5.746-1.693 1.982.775 3.92 1.34 5.747 1.693-1.519 2.652-3.535 4.268-5.747 4.268zm6.43-5.606c-1.57-.088-3.276-.398-5.04-.93a40.766 40.766 0 0 0 3.037-1.48 40.807 40.807 0 0 0 3.467-2.095c-.36 1.657-.857 3.176-1.463 4.506zm7.902-3.123c-1.038 1.98-3.393 3.026-6.415 3.14.499-1.633.888-3.43 1.147-5.344 1.806-1.32 3.389-2.726 4.7-4.15 1.224 2.327 1.501 4.576.568 6.354zM27.21 15.912c1.514 1.309 2.77 2.698 3.709 4.088-.94 1.39-2.194 2.78-3.709 4.087.129-1.32.197-2.686.197-4.087 0-1.4-.068-2.768-.197-4.088zm4.533 2.718c-1.31-1.424-2.893-2.83-4.7-4.15a33.907 33.907 0 0 0-1.147-5.344c3.022.114 5.377 1.16 6.415 3.14.933 1.778.656 4.027-.568 6.354z" fill="#9E211B"/></svg>