<svg width="23" height="29" viewBox="0 0 23 29" fill="none" xmlns="http://www.w3.org/2000/svg">
<path fill-rule="evenodd" clip-rule="evenodd" d="M21.4637 8.98074C21.0347 8.60704 20.3565 8.24717 19.3461 8.24717C17.2423 8.24717 15.3807 8.24717 15.3807 8.24717C15.3807 8.24717 13.6368 8.18489 13.6368 6.14337C13.6368 4.10185 13.6368 2.53091 13.6368 2.53091C13.6368 2.53091 13.3945 1.08455 12.917 0.66932C12.8409 0.607037 12.834 0.565514 12.8686 0.558594C12.8617 0.558594 12.8547 0.565514 12.8547 0.565514L21.4637 8.88385V8.97382V8.98074ZM13.0208 0.565514C13.0416 0.572435 13.0554 0.572435 13.0762 0.579355C13.0554 0.572435 13.0347 0.572435 13.0208 0.565514ZM13.0831 0.579355L13.1454 0.600116C13.1246 0.593196 13.1039 0.586275 13.0831 0.579355ZM13.4361 0.703922C13.4637 0.717763 13.4983 0.731604 13.5329 0.745445C13.4983 0.731604 13.4707 0.717763 13.4361 0.703922Z" fill="#9E211B"/>
<path fill-rule="evenodd" clip-rule="evenodd" d="M10.4607 0.191406H7.07657H5.1527H3.1873C3.1873 0.191406 3.14578 0.191406 3.07657 0.191406H2.52294C1.53332 0.191406 0.723633 1.00109 0.723633 1.99071V2.71044V3.79002V3.80386V3.84539V3.85923V3.91459V4.01148V4.12912V4.26753V4.40594V4.43362V4.62047V4.71044V4.835V5.02878V5.06338V5.31251V5.36096V5.58241V5.7139V5.87307V6.07376V6.17757V6.45438V6.50282V6.84193V6.84885V7.19487V7.25023V7.56165V7.66545V7.94227V8.08068V8.32981V8.50974V8.7312V8.95265V9.14642V9.40248V9.56857V9.85231V9.99763V10.3091V10.4475V10.7866V10.9042V11.2641V11.3679V11.7485V11.8385V12.2329V12.316V12.3783V12.7174V12.7866V13.1949V13.2641V13.6793V13.7416V13.9492V14.1568V14.2191V14.4267V14.6343V14.6966V15.1118V15.181V15.5893V15.6585V16.0668V16.1499V16.2745V26.3644C0.723633 27.3471 1.51256 28.143 2.48834 28.1637H2.49526H2.50218H2.5091H2.51602H2.52294H2.52986H2.53678H3.15962H7.09041H4.90356H11.0697H20.2738C21.2634 28.1637 22.0731 27.354 22.0731 26.3644V13.9492V11.7554C22.0731 9.04954 19.734 8.93189 19.734 8.93189C19.734 8.93189 17.6302 8.93189 15.2911 8.93189C12.952 8.93189 13.0074 6.53051 13.0074 6.53051C13.0074 6.53051 13.0074 5.62393 13.0074 2.86961C13.0074 0.101441 10.4814 0.226008 10.4814 0.226008L10.4676 0.212167L10.4607 0.191406ZM21.478 8.98033C21.0489 8.59971 20.3707 8.24677 19.3603 8.24677C17.2565 8.24677 15.3949 8.24677 15.3949 8.24677C15.3949 8.24677 13.651 8.18449 13.651 6.14296C13.651 4.10144 13.651 2.53051 13.651 2.53051C13.651 2.53051 13.4088 1.08414 12.9312 0.668915C12.8759 0.620472 12.8551 0.58587 12.869 0.565109L21.471 8.87653V8.78656C19.2288 5.39556 17.3603 3.72082 16.0454 2.40594C15.4157 1.77618 14.6475 1.28483 14.0247 0.966493C14.6544 1.28483 15.4226 1.77618 16.0593 2.41286C17.3742 3.72774 19.2427 5.40248 21.4849 8.79348V8.97341V8.98033H21.478Z" fill="#9E211B"/>
<path d="M4.7168 14.3302H7.1597C7.69257 14.3302 8.08704 14.4548 8.35693 14.7109C8.62683 14.9669 8.7514 15.3199 8.7514 15.7905C8.7514 16.268 8.59915 16.6417 8.31541 16.9116C8.02475 17.1815 7.58877 17.3199 6.99361 17.3199H6.19085V19.0777H4.7168V14.3372V14.3302ZM6.19085 16.3579H6.55071C6.84136 16.3579 7.02822 16.3026 7.14586 16.2057C7.26351 16.1088 7.31887 15.9842 7.31887 15.832C7.31887 15.6797 7.26351 15.5552 7.16662 15.4514C7.06974 15.3475 6.87597 15.2922 6.59915 15.2922H6.18392V16.3441V16.3579H6.19085ZM9.52648 14.3302H11.6995C12.1286 14.3302 12.4746 14.3856 12.7445 14.5033C13.0144 14.6209 13.222 14.7939 13.4019 15.0015C13.5749 15.223 13.6995 15.4721 13.7756 15.7559C13.8517 16.0465 13.8933 16.351 13.8933 16.6693C13.8933 17.1815 13.8379 17.5621 13.7203 17.8527C13.6026 18.1296 13.4434 18.3648 13.2427 18.5586C13.0421 18.7524 12.8137 18.877 12.5784 18.9323C12.26 19.0154 11.9694 19.0569 11.7064 19.0569H9.5334V14.3164L9.51956 14.3302H9.52648ZM10.9867 15.4098V17.9981H11.3466C11.658 17.9981 11.8656 17.9635 12.0109 17.8943C12.1355 17.832 12.2462 17.7005 12.3223 17.5413C12.3985 17.3683 12.4261 17.0915 12.4261 16.7178C12.4261 16.2195 12.3431 15.8735 12.1839 15.6866C12.0248 15.5067 11.7479 15.4098 11.3604 15.4098H11.0005H10.9867ZM14.6614 14.3302H18.2877V15.3545H16.1355V16.1849H17.9763V17.1469H16.1355V19.0777H14.6614V14.3372V14.3302Z" fill="white"/>
</svg>
